{"glyphs":{"0":{"ha":671,"x_min":0,"x_max":639,"o":"m 12 571 l 11 600 l 9 579 l 11 549 l 12 571 z m 0 749 l 0 460 l 9 579 l 0 749 z m 625 675 l 627 643 l 629 660 l 627 693 l 625 675 z m 4 279 l 0 221 l 0 172 l 43 129 l 46 214 l 64 107 l 96 75 l 111 85 l 122 90 l 127 43 l 171 0 l 189 0 l 210 20 l 227 0 l 244 0 l 281 3 l 281 62 l 300 0 l 328 11 l 338 0 l 355 0 l 382 11 l 392 0 l 467 0 l 476 11 l 486 111 l 489 33 l 510 43 l 542 75 l 546 117 l 557 102 l 574 107 l 606 140 l 618 216 l 628 161 l 639 172 l 637 336 l 628 390 l 639 412 l 627 643 l 612 517 l 625 675 l 615 863 l 627 693 l 639 844 l 639 940 l 628 951 l 612 956 l 608 972 l 587 994 l 579 945 l 568 1015 l 558 1026 l 529 1035 l 538 1047 l 528 1059 l 513 1060 l 505 1026 l 497 1090 l 478 1111 l 458 1111 l 435 1089 l 419 1111 l 401 1111 l 371 1100 l 355 1072 l 343 1111 l 323 1111 l 292 1108 l 281 1097 l 267 1111 l 248 1111 l 229 1092 l 201 1108 l 191 1097 l 171 1111 l 149 1090 l 136 1046 l 136 1063 l 117 1059 l 75 1015 l 60 950 l 53 994 l 11 951 l 0 893 l 0 844 l 11 600 l 24 764 l 12 571 l 24 313 l 11 549 l 0 364 l 4 328 l 4 279 z m 240 747 l 254 553 l 260 643 l 249 823 l 261 668 l 269 818 l 269 903 l 288 903 l 293 966 l 298 909 l 298 925 l 313 903 l 318 903 l 322 930 l 330 903 l 336 950 l 343 903 l 367 903 l 376 785 l 390 854 l 390 811 l 382 733 l 385 700 l 380 725 l 367 604 l 379 488 l 367 518 l 367 476 l 375 453 l 375 410 l 367 347 l 367 220 l 355 220 l 351 186 l 343 220 l 325 220 l 317 147 l 313 220 l 306 220 l 293 203 l 294 220 l 288 220 l 286 211 l 268 203 l 257 220 l 281 271 l 254 518 l 245 403 l 253 532 l 240 747 z m 367 818 l 367 732 l 374 770 l 367 818 z m 253 532 l 254 518 l 256 538 l 254 553 l 253 532 z m 374 770 l 380 725 l 382 733 l 376 785 l 374 770 z m 269 347 l 269 476 l 261 615 l 256 538 l 269 347 z m 639 509 l 639 749 l 629 660 l 639 509 z m 261 615 l 264 643 l 261 668 l 260 643 l 261 615 z m 269 561 l 269 732 l 264 643 l 269 561 z "},"1":{"ha":382,"x_min":0,"x_max":364,"o":"m 334 1111 l 364 1111 l 364 903 l 322 127 l 364 764 l 364 486 l 363 359 l 339 823 l 339 754 l 364 208 l 364 0 l 330 3 l 328 33 l 314 3 l 306 41 l 283 0 l 267 11 l 233 0 l 239 20 l 221 0 l 204 0 l 170 5 l 172 106 l 157 0 l 110 0 l 110 392 l 151 850 l 110 503 l 110 558 l 127 453 l 110 671 l 110 895 l 89 895 l 86 1039 l 75 907 l 68 895 l 61 895 l 52 901 l 47 895 l 28 895 l 32 951 l 14 895 l 0 895 l 0 1039 l 26 1047 l 40 1014 l 49 1042 l 64 1061 l 103 1075 l 122 1042 l 132 1071 l 142 1089 l 154 1093 l 170 1078 l 180 1101 l 205 1111 l 215 1111 l 215 962 l 228 1111 l 256 1111 l 265 1072 l 275 1100 l 285 1111 l 314 1111 l 325 871 l 334 1111 z "},"2":{"ha":671,"x_min":0,"x_max":639,"o":"m 639 208 l 639 0 l 599 0 l 579 52 l 568 5 l 479 0 l 441 8 l 399 0 l 359 0 l 329 22 l 279 0 l 239 0 l 129 5 l 119 36 l 83 14 l 69 90 l 21 3 l 0 0 l 0 212 l 24 375 l 0 260 l 0 307 l 29 216 l 0 354 l 0 379 l 119 489 l 168 533 l 160 375 l 191 554 l 285 643 l 326 676 l 326 432 l 338 685 l 380 730 l 380 872 l 393 867 l 393 905 l 372 892 l 366 892 l 346 920 l 349 892 l 326 892 l 321 953 l 311 914 l 302 892 l 279 892 l 273 979 l 264 892 l 257 892 l 257 864 l 241 833 l 257 846 l 257 828 l 241 803 l 257 808 l 257 790 l 244 786 l 257 772 l 257 745 l 211 745 l 196 815 l 187 747 l 172 747 l 150 745 l 135 755 l 118 745 l 103 745 l 86 755 l 71 755 l 57 745 l 11 745 l 11 939 l 82 1014 l 93 854 l 102 1036 l 142 1079 l 158 1082 l 163 1100 l 172 1111 l 207 1111 l 225 1075 l 243 1111 l 260 1111 l 275 1103 l 294 1111 l 313 1111 l 329 1080 l 346 1103 l 366 1111 l 383 1111 l 399 1100 l 418 1111 l 453 1111 l 476 1092 l 488 880 l 489 1069 l 511 1061 l 534 1042 l 543 1019 l 554 1010 l 570 1011 l 591 991 l 611 970 l 616 892 l 627 962 l 639 951 l 639 646 l 614 625 l 576 615 l 582 700 l 562 589 l 519 541 l 471 497 l 457 494 l 433 473 l 400 433 l 353 390 l 309 367 l 321 612 l 297 350 l 257 306 l 257 208 l 281 208 l 300 161 l 318 208 l 353 208 l 376 189 l 399 205 l 424 208 l 447 208 l 464 117 l 475 197 l 543 208 l 574 200 l 602 186 l 614 208 l 639 208 z "},"3":{"ha":644,"x_min":0,"x_max":614,"o":"m 142 1079 l 174 1111 l 205 1111 l 222 1092 l 237 1111 l 286 1111 l 326 1100 l 326 1057 l 343 1035 l 349 1086 l 367 1111 l 431 1111 l 511 1042 l 521 864 l 533 1022 l 614 951 l 614 684 l 586 661 l 581 827 l 571 694 l 559 637 l 514 599 l 504 621 l 496 583 l 468 561 l 486 547 l 498 433 l 504 533 l 541 505 l 546 454 l 555 485 l 568 486 l 614 452 l 614 359 l 595 216 l 614 323 l 614 231 l 589 370 l 614 195 l 614 157 l 561 109 l 553 132 l 539 89 l 534 200 l 526 79 l 507 60 l 443 0 l 408 0 l 386 17 l 375 5 l 355 0 l 302 0 l 269 8 l 264 41 l 249 0 l 214 0 l 197 41 l 179 0 l 161 0 l 131 32 l 119 135 l 111 53 l 92 75 l 78 113 l 68 123 l 61 107 l 41 127 l 32 179 l 21 149 l 1 171 l 1 366 l 33 366 l 50 336 l 65 366 l 97 366 l 123 355 l 126 277 l 146 366 l 195 366 l 214 328 l 221 355 l 241 366 l 258 366 l 258 220 l 264 220 l 268 158 l 277 220 l 301 220 l 307 183 l 314 220 l 326 220 l 334 138 l 339 220 l 357 220 l 357 387 l 395 54 l 357 416 l 357 463 l 340 463 l 326 493 l 323 463 l 306 463 l 296 498 l 289 463 l 272 463 l 258 510 l 256 463 l 221 463 l 221 567 l 233 493 l 221 593 l 221 619 l 239 504 l 221 644 l 221 671 l 297 671 l 301 555 l 315 671 l 357 671 l 357 714 l 372 889 l 357 743 l 357 831 l 389 705 l 357 860 l 357 903 l 326 903 l 318 987 l 314 903 l 289 903 l 283 950 l 277 903 l 258 903 l 258 768 l 241 768 l 231 832 l 225 772 l 193 768 l 179 778 l 171 793 l 146 768 l 129 768 l 98 770 l 102 832 l 81 766 l 0 766 l 1 939 l 33 971 l 47 920 l 56 993 l 119 1057 l 123 908 l 142 1079 z "},"4":{"ha":771,"x_min":0,"x_max":734,"o":"m 131 222 l 74 222 l 0 432 l 49 517 l 86 533 l 89 411 l 109 611 l 144 688 l 290 942 l 288 693 l 309 953 l 363 1068 l 386 1111 l 431 1111 l 449 1084 l 464 1084 l 475 1111 l 490 1111 l 505 1096 l 519 1111 l 549 1111 l 566 1034 l 576 1076 l 595 993 l 608 1111 l 624 1111 l 624 939 l 586 476 l 624 852 l 624 636 l 591 953 l 624 550 l 624 421 l 679 421 l 685 374 l 699 374 l 707 421 l 734 421 l 734 222 l 707 222 l 696 285 l 693 222 l 659 222 l 648 334 l 644 222 l 624 222 l 624 180 l 608 29 l 624 153 l 624 69 l 603 192 l 624 41 l 624 0 l 591 0 l 576 17 l 566 37 l 529 0 l 511 29 l 500 11 l 482 0 l 452 0 l 440 22 l 422 20 l 404 0 l 374 0 l 374 222 l 343 225 l 339 317 l 317 222 l 279 222 l 268 271 l 257 225 l 224 222 l 186 222 l 149 225 l 149 277 l 131 222 z m 329 421 l 374 421 l 374 440 l 403 707 l 374 481 l 374 600 l 406 431 l 406 452 l 374 660 l 374 741 l 264 541 l 267 814 l 243 500 l 199 421 l 253 421 l 268 379 l 275 421 l 309 421 l 319 395 l 329 421 z "},"5":{"ha":654,"x_min":0,"x_max":624,"o":"m 43 599 l 0 642 l 0 758 l 25 1002 l 0 817 l 0 993 l 47 758 l 47 789 l 0 1082 l 0 1111 l 35 1111 l 50 1076 l 60 1109 l 138 1111 l 205 1111 l 239 1099 l 275 1111 l 418 1109 l 431 1090 l 450 1082 l 469 1025 l 481 1111 l 549 1111 l 549 903 l 511 903 l 496 970 l 490 907 l 456 903 l 380 903 l 345 909 l 347 942 l 325 903 l 268 903 l 244 916 l 250 889 l 250 876 l 220 721 l 250 850 l 250 783 l 222 890 l 250 758 l 250 692 l 262 692 l 279 673 l 288 692 l 313 692 l 325 631 l 338 692 l 374 692 l 389 660 l 399 692 l 449 692 l 482 661 l 486 546 l 498 625 l 514 632 l 568 581 l 585 542 l 590 561 l 624 530 l 624 461 l 604 174 l 624 415 l 624 229 l 583 468 l 624 183 l 624 160 l 553 90 l 551 170 l 532 69 l 463 0 l 404 0 l 387 65 l 376 14 l 346 0 l 326 0 l 301 20 l 288 0 l 249 0 l 239 14 l 210 0 l 151 0 l 142 9 l 126 69 l 122 28 l 94 56 l 93 349 l 75 74 l 47 102 l 36 140 l 26 149 l 20 129 l 0 149 l 0 383 l 17 383 l 39 302 l 53 366 l 65 383 l 115 383 l 114 195 l 132 383 l 214 383 l 231 336 l 233 379 l 262 383 l 262 210 l 279 210 l 281 140 l 290 210 l 313 210 l 318 179 l 329 179 l 334 210 l 350 210 l 350 258 l 358 261 l 358 310 l 350 330 l 358 343 l 358 390 l 350 419 l 350 468 l 328 468 l 307 497 l 306 469 l 294 469 l 285 482 l 277 522 l 261 469 l 227 469 l 210 485 l 204 469 l 171 469 l 127 513 l 119 628 l 107 534 l 75 567 l 77 599 l 65 590 l 43 599 z "},"6":{"ha":646,"x_min":0,"x_max":615,"o":"m 197 0 l 161 0 l 131 32 l 121 96 l 111 53 l 50 117 l 46 268 l 31 139 l 0 171 l 0 317 l 8 349 l 8 397 l 0 464 l 0 561 l 28 917 l 0 659 l 0 806 l 28 476 l 0 903 l 0 951 l 60 1011 l 77 920 l 86 929 l 90 1042 l 121 1071 l 134 1057 l 143 1068 l 151 1101 l 161 1111 l 214 1111 l 229 1069 l 243 1111 l 264 1069 l 288 1095 l 304 1080 l 323 1095 l 335 1069 l 353 1069 l 372 1111 l 443 1111 l 476 1079 l 485 815 l 497 1057 l 562 993 l 575 930 l 583 971 l 615 939 l 615 757 l 600 757 l 586 781 l 567 757 l 550 781 l 536 810 l 519 757 l 503 757 l 490 930 l 476 761 l 454 757 l 422 757 l 404 835 l 404 758 l 374 757 l 370 770 l 357 766 l 357 903 l 350 903 l 342 947 l 336 903 l 289 903 l 281 970 l 275 903 l 248 903 l 248 857 l 227 733 l 227 718 l 248 811 l 248 659 l 275 659 l 285 539 l 304 643 l 315 659 l 385 659 l 400 586 l 412 659 l 468 659 l 532 595 l 545 473 l 551 576 l 615 514 l 615 428 l 604 282 l 615 385 l 615 171 l 576 127 l 570 454 l 564 123 l 546 96 l 517 64 l 515 227 l 496 43 l 457 0 l 419 0 l 404 31 l 380 8 l 367 20 l 346 0 l 235 0 l 211 65 l 197 0 z m 329 208 l 357 208 l 357 269 l 375 424 l 375 439 l 357 314 l 357 390 l 375 264 l 375 279 l 357 436 l 357 452 l 343 452 l 338 504 l 328 471 l 321 471 l 310 457 l 307 471 l 300 471 l 296 452 l 289 452 l 285 498 l 275 452 l 248 452 l 248 421 l 232 225 l 248 390 l 248 285 l 227 401 l 248 254 l 248 208 l 268 208 l 281 118 l 282 208 l 296 208 l 304 186 l 318 186 l 317 126 l 329 208 z "},"7":{"ha":640,"x_min":0,"x_max":610,"o":"m 71 0 l 0 0 l 248 618 l 235 221 l 271 676 l 361 903 l 336 903 l 328 1017 l 319 903 l 301 903 l 288 971 l 285 903 l 252 903 l 236 942 l 233 903 l 225 903 l 225 803 l 184 803 l 176 828 l 168 871 l 154 803 l 85 803 l 77 860 l 65 808 l 41 803 l 0 803 l 0 899 l 17 1088 l 0 937 l 0 996 l 28 925 l 0 1034 l 0 1111 l 37 1111 l 97 1099 l 111 974 l 114 1103 l 191 1111 l 267 1111 l 304 1096 l 342 1096 l 380 1111 l 419 1111 l 547 1103 l 539 1079 l 571 1074 l 572 1111 l 610 1111 l 610 889 l 574 798 l 571 873 l 549 722 l 447 444 l 411 325 l 411 482 l 387 278 l 286 0 l 268 0 l 265 118 l 244 29 l 228 43 l 228 4 l 179 0 l 161 0 l 151 16 l 125 0 l 107 0 l 90 37 l 71 0 z "},"8":{"ha":657,"x_min":0,"x_max":625,"o":"m 625 304 l 625 157 l 566 98 l 564 380 l 546 79 l 505 39 l 497 93 l 486 20 l 467 0 l 408 0 l 399 57 l 393 11 l 351 0 l 313 0 l 294 11 l 275 0 l 254 31 l 236 0 l 216 0 l 189 8 l 171 8 l 160 0 l 129 32 l 125 135 l 110 53 l 0 171 l 0 382 l 24 189 l 0 416 l 0 452 l 18 467 l 29 443 l 36 482 l 74 513 l 79 358 l 92 528 l 119 550 l 131 524 l 138 566 l 146 574 l 123 591 l 109 669 l 107 604 l 22 671 l 35 933 l 22 705 l 22 882 l 52 693 l 22 917 l 22 951 l 74 1002 l 82 895 l 92 904 l 103 1032 l 183 1111 l 214 1111 l 235 1072 l 245 1095 l 257 1043 l 275 1111 l 367 1111 l 372 1069 l 383 1111 l 429 1111 l 440 994 l 450 1093 l 558 1000 l 567 953 l 578 945 l 590 972 l 602 964 l 602 908 l 574 708 l 602 872 l 602 762 l 567 930 l 602 726 l 602 671 l 553 628 l 546 693 l 539 616 l 518 597 l 513 652 l 504 586 l 490 574 l 550 519 l 558 408 l 567 401 l 575 497 l 625 452 l 625 359 l 615 304 l 615 286 l 625 304 z m 363 659 l 370 618 l 368 765 l 385 889 l 368 796 l 368 842 l 387 766 l 387 782 l 368 888 l 368 903 l 345 903 l 334 964 l 332 903 l 307 903 l 296 945 l 294 903 l 269 903 l 269 659 l 289 659 l 297 581 l 300 659 l 319 659 l 325 597 l 332 659 l 363 659 z m 350 208 l 368 208 l 368 452 l 357 452 l 353 490 l 345 452 l 325 452 l 318 471 l 315 519 l 307 452 l 269 452 l 269 436 l 254 265 l 267 400 l 269 390 l 269 208 l 277 208 l 292 164 l 289 208 l 307 208 l 311 167 l 322 186 l 325 208 l 338 208 l 349 121 l 350 208 z "},"9":{"ha":657,"x_min":0,"x_max":625,"o":"m 625 704 l 625 157 l 596 127 l 587 203 l 582 155 l 566 98 l 555 89 l 542 87 l 536 69 l 515 49 l 509 104 l 496 29 l 467 0 l 411 0 l 407 31 l 399 0 l 301 0 l 260 5 l 254 45 l 243 14 l 235 85 l 208 0 l 172 0 l 107 64 l 97 231 l 97 82 l 75 96 l 0 171 l 0 366 l 49 366 l 62 355 l 83 321 l 86 353 l 113 366 l 176 366 l 187 222 l 195 353 l 225 366 l 257 366 l 257 208 l 285 208 l 296 93 l 302 180 l 315 153 l 313 208 l 347 208 l 354 170 l 361 208 l 368 208 l 368 222 l 385 443 l 368 252 l 368 380 l 390 205 l 368 410 l 368 439 l 329 439 l 315 533 l 314 440 l 290 439 l 264 439 l 249 510 l 237 439 l 160 439 l 139 458 l 131 627 l 119 478 l 60 538 l 40 823 l 40 558 l 0 597 l 0 951 l 43 991 l 46 615 l 64 1011 l 97 1042 l 109 993 l 118 1061 l 172 1111 l 347 1111 l 366 1063 l 383 1111 l 410 1086 l 428 1086 l 436 1111 l 453 1111 l 475 1092 l 494 1006 l 496 1071 l 529 1042 l 547 968 l 550 1022 l 582 991 l 590 867 l 604 972 l 625 951 l 625 852 l 610 745 l 610 610 l 625 704 z m 361 646 l 376 624 l 382 654 l 368 679 l 368 743 l 382 917 l 368 775 l 368 871 l 401 708 l 368 903 l 347 903 l 342 953 l 334 903 l 319 903 l 310 985 l 306 903 l 257 903 l 257 646 l 264 646 l 272 595 l 278 646 l 298 646 l 306 555 l 313 646 l 361 646 z "}," ":{"ha":416,"x_min":null,"x_max":null,"o":""},"!":{"ha":269,"x_min":0,"x_max":257,"o":"m 0 1043 l 0 1111 l 36 1104 l 36 1079 l 45 1104 l 64 1111 l 81 1111 l 90 1008 l 98 1109 l 135 1104 l 144 1111 l 170 1103 l 170 1060 l 193 1111 l 218 1101 l 229 1040 l 241 1111 l 257 1111 l 257 975 l 249 950 l 249 844 l 257 885 l 257 750 l 221 526 l 218 696 l 211 469 l 183 302 l 170 302 l 161 386 l 155 302 l 142 302 l 131 322 l 129 302 l 115 302 l 106 347 l 102 302 l 74 302 l 69 330 l 71 551 l 60 386 l 32 554 l 31 644 l 24 610 l 0 750 l 22 970 l 0 794 l 0 999 l 22 753 l 0 1043 z m 0 204 l 8 210 l 17 216 l 32 216 l 49 210 l 65 215 l 81 216 l 96 216 l 107 178 l 129 215 l 140 192 l 161 216 l 189 215 l 197 151 l 201 214 l 225 216 l 241 216 l 245 199 l 257 204 l 257 176 l 244 31 l 257 149 l 257 68 l 241 165 l 257 40 l 257 0 l 241 0 l 214 3 l 214 66 l 207 5 l 176 0 l 163 18 l 151 1 l 126 17 l 113 0 l 96 0 l 65 5 l 56 61 l 54 5 l 32 0 l 0 0 l 0 28 l 4 45 l 0 54 l 0 94 l 16 192 l 0 122 l 0 163 l 16 104 l 0 191 l 0 204 z "},"\"":{"ha":443,"x_min":-1,"x_max":416,"o":"m 161 943 l 161 933 l 155 922 l 150 909 l 144 897 l 139 885 l 138 936 l 127 861 l 122 848 l 115 846 l 110 833 l 106 811 l 100 800 l 94 787 l 89 831 l 83 762 l 78 750 l 72 739 l 68 742 l 64 746 l 60 750 l 56 754 l 52 758 l 49 762 l 45 766 l 40 770 l 36 774 l 32 778 l 28 782 l 24 786 l 20 790 l 16 794 l 11 799 l 7 802 l 11 808 l 14 814 l 18 821 l 21 827 l 26 812 l 28 839 l 32 846 l 36 851 l 39 859 l 43 864 l 45 818 l 50 876 l 53 882 l 57 889 l 60 895 l 64 901 l 60 901 l 56 901 l 52 901 l 45 933 l 43 901 l 39 901 l 35 901 l 31 901 l 26 901 l 24 901 l 20 901 l 16 983 l 11 901 l 7 901 l 3 901 l -1 901 l -1 913 l -1 924 l -1 935 l -1 947 l -1 958 l -1 970 l -1 981 l -1 991 l -1 1031 l 4 990 l 4 1044 l 4 1055 l -1 1076 l -1 1088 l -1 1099 l -1 1109 l 8 1109 l 22 1104 l 31 1032 l 31 1105 l 50 1109 l 60 1109 l 65 1105 l 75 1105 l 90 1109 l 100 1109 l 115 1097 l 127 1105 l 131 1109 l 142 1103 l 151 1109 l 161 1109 l 161 1101 l 161 1092 l 161 1082 l 147 942 l 161 1064 l 161 1054 l 161 1046 l 161 1036 l 161 999 l 161 990 l 161 981 l 150 1075 l 161 961 l 161 953 l 161 943 z m 416 943 l 416 933 l 411 922 l 406 909 l 400 897 l 395 885 l 393 936 l 383 861 l 378 848 l 371 846 l 366 833 l 361 811 l 355 800 l 350 787 l 345 831 l 339 762 l 334 750 l 328 739 l 323 742 l 319 746 l 315 750 l 311 754 l 309 758 l 304 762 l 300 766 l 296 770 l 292 774 l 288 778 l 283 782 l 279 786 l 275 790 l 271 794 l 267 799 l 262 802 l 267 808 l 269 814 l 273 821 l 277 827 l 282 812 l 283 839 l 288 846 l 292 851 l 294 859 l 298 864 l 300 818 l 306 876 l 309 882 l 313 889 l 317 895 l 319 901 l 315 901 l 311 901 l 307 901 l 300 933 l 298 901 l 294 901 l 290 901 l 288 901 l 283 901 l 279 901 l 275 901 l 271 983 l 267 901 l 262 901 l 258 901 l 254 901 l 254 913 l 254 924 l 254 935 l 254 947 l 254 958 l 254 970 l 254 981 l 254 991 l 254 1031 l 260 990 l 260 1044 l 260 1055 l 254 1076 l 254 1088 l 254 1099 l 254 1109 l 264 1109 l 278 1104 l 286 1032 l 286 1105 l 306 1109 l 315 1109 l 321 1105 l 330 1105 l 346 1109 l 355 1109 l 371 1097 l 383 1105 l 386 1109 l 397 1103 l 407 1109 l 416 1109 l 416 1101 l 416 1092 l 416 1082 l 403 942 l 416 1064 l 416 1054 l 416 1046 l 416 1036 l 416 999 l 416 990 l 416 981 l 407 1075 l 416 961 l 416 953 l 416 943 z "},"'":{"ha":211,"x_min":14,"x_max":176,"o":"m 176 943 l 176 933 l 171 922 l 165 909 l 160 897 l 154 885 l 153 936 l 143 861 l 138 848 l 131 846 l 125 833 l 121 811 l 115 800 l 110 787 l 104 831 l 98 762 l 93 750 l 87 739 l 83 742 l 79 746 l 75 750 l 71 754 l 66 758 l 62 762 l 60 766 l 56 770 l 52 774 l 47 778 l 43 782 l 39 786 l 35 790 l 31 794 l 26 799 l 22 802 l 26 808 l 29 814 l 33 821 l 36 827 l 41 812 l 43 839 l 47 846 l 50 851 l 54 859 l 58 864 l 60 818 l 65 876 l 68 882 l 72 889 l 75 895 l 79 901 l 75 901 l 71 901 l 66 901 l 60 933 l 58 901 l 54 901 l 50 901 l 46 901 l 41 901 l 39 901 l 35 901 l 31 983 l 26 901 l 22 901 l 18 901 l 14 901 l 14 913 l 14 924 l 14 935 l 14 947 l 14 958 l 14 970 l 14 981 l 14 991 l 14 1031 l 20 990 l 20 1044 l 20 1055 l 14 1076 l 14 1088 l 14 1099 l 14 1109 l 24 1109 l 37 1104 l 46 1032 l 46 1105 l 65 1109 l 75 1109 l 81 1105 l 90 1105 l 106 1109 l 115 1109 l 129 1097 l 143 1105 l 146 1109 l 157 1103 l 167 1109 l 176 1109 l 176 1101 l 176 1092 l 176 1082 l 163 942 l 176 1064 l 176 1054 l 176 1046 l 176 1036 l 176 999 l 176 990 l 176 981 l 165 1075 l 176 961 l 176 953 l 176 943 z "},",":{"ha":216,"x_min":11,"x_max":175,"o":"m 175 46 l 175 36 l 170 24 l 164 12 l 158 0 l 153 -12 l 150 37 l 142 -37 l 136 -49 l 127 -52 l 122 -64 l 119 -86 l 114 -98 l 107 -110 l 102 -66 l 96 -135 l 90 -147 l 85 -160 l 82 -155 l 78 -151 l 74 -147 l 69 -143 l 65 -139 l 61 -135 l 57 -132 l 53 -127 l 49 -123 l 45 -119 l 40 -115 l 36 -111 l 32 -107 l 28 -104 l 24 -100 l 20 -96 l 24 -89 l 26 -83 l 31 -77 l 35 -71 l 39 -85 l 41 -58 l 45 -53 l 49 -46 l 52 -40 l 56 -33 l 58 -81 l 62 -21 l 66 -16 l 69 -8 l 74 -3 l 77 4 l 72 4 l 68 4 l 64 4 l 57 36 l 57 4 l 53 4 l 49 4 l 45 4 l 40 4 l 36 4 l 32 4 l 28 86 l 24 4 l 20 4 l 16 4 l 11 4 l 11 16 l 11 26 l 11 37 l 11 49 l 11 60 l 11 72 l 11 83 l 11 94 l 11 134 l 17 92 l 17 146 l 17 158 l 11 179 l 11 191 l 11 201 l 11 212 l 21 212 l 36 207 l 43 135 l 43 208 l 62 212 l 72 212 l 78 208 l 87 208 l 103 212 l 114 212 l 127 200 l 142 208 l 144 212 l 154 205 l 164 212 l 175 212 l 175 204 l 175 195 l 175 184 l 160 45 l 175 167 l 175 157 l 175 147 l 175 139 l 175 102 l 175 92 l 175 83 l 164 178 l 175 64 l 175 56 l 175 46 z "},"-":{"ha":525,"x_min":16,"x_max":475,"o":"m 16 653 l 16 667 l 45 667 l 74 667 l 103 640 l 131 667 l 157 648 l 176 536 l 172 664 l 245 667 l 273 667 l 318 657 l 372 660 l 372 482 l 389 667 l 416 653 l 446 667 l 475 667 l 475 653 l 475 639 l 475 625 l 446 505 l 475 597 l 475 583 l 475 570 l 456 485 l 475 542 l 475 528 l 475 514 l 460 600 l 475 486 l 475 472 l 475 458 l 475 444 l 446 444 l 396 460 l 389 591 l 382 449 l 332 444 l 304 475 l 273 444 l 245 444 l 216 444 l 180 454 l 153 454 l 131 444 l 102 444 l 40 449 l 40 489 l 16 444 l 16 458 l 16 472 l 16 486 l 16 500 l 37 627 l 16 528 l 16 542 l 16 555 l 16 570 l 16 583 l 16 597 l 16 611 l 33 505 l 16 639 l 16 653 z "},".":{"ha":225,"x_min":7,"x_max":165,"o":"m 7 200 l 7 214 l 17 214 l 26 214 l 39 203 l 47 197 l 56 214 l 66 214 l 78 210 l 87 210 l 96 214 l 106 214 l 122 203 l 126 140 l 136 214 l 146 214 l 155 214 l 160 208 l 165 200 l 165 186 l 165 174 l 161 77 l 165 147 l 165 134 l 165 119 l 165 107 l 165 93 l 165 81 l 165 66 l 160 64 l 165 40 l 165 26 l 165 14 l 165 0 l 155 0 l 143 18 l 135 9 l 125 0 l 115 0 l 103 5 l 96 0 l 86 0 l 77 0 l 65 29 l 60 85 l 52 1 l 36 0 l 26 0 l 17 0 l 11 25 l 7 7 l 7 26 l 7 40 l 7 53 l 7 66 l 7 81 l 18 184 l 7 107 l 7 119 l 7 134 l 7 147 l 7 160 l 20 47 l 7 186 l 7 200 z "},":":{"ha":225,"x_min":7,"x_max":165,"o":"m 7 589 l 7 603 l 17 603 l 26 603 l 39 591 l 47 586 l 56 603 l 66 603 l 78 599 l 87 599 l 96 603 l 106 603 l 122 591 l 126 529 l 136 603 l 146 603 l 155 603 l 160 597 l 165 589 l 165 575 l 165 562 l 161 465 l 165 536 l 165 522 l 165 509 l 165 496 l 165 482 l 165 469 l 165 456 l 160 453 l 165 429 l 165 415 l 165 403 l 165 389 l 155 389 l 143 407 l 135 399 l 125 389 l 115 389 l 103 395 l 96 389 l 86 389 l 77 389 l 65 418 l 60 473 l 52 390 l 36 389 l 26 389 l 17 389 l 11 414 l 7 396 l 7 415 l 7 429 l 7 441 l 7 456 l 7 469 l 18 574 l 7 496 l 7 509 l 7 522 l 7 536 l 7 549 l 20 436 l 7 575 l 7 589 z m 7 200 l 7 214 l 17 214 l 26 214 l 39 203 l 47 197 l 56 214 l 66 214 l 78 210 l 87 210 l 96 214 l 106 214 l 122 203 l 126 140 l 136 214 l 146 214 l 155 214 l 160 208 l 165 200 l 165 186 l 165 174 l 161 77 l 165 147 l 165 134 l 165 119 l 165 107 l 165 93 l 165 81 l 165 66 l 160 64 l 165 40 l 165 26 l 165 14 l 165 0 l 155 0 l 143 18 l 135 9 l 125 0 l 115 0 l 103 5 l 96 0 l 86 0 l 77 0 l 65 29 l 60 85 l 52 1 l 36 0 l 26 0 l 17 0 l 11 25 l 7 7 l 7 26 l 7 40 l 7 53 l 7 66 l 7 81 l 18 184 l 7 107 l 7 119 l 7 134 l 7 147 l 7 160 l 20 47 l 7 186 l 7 200 z "},";":{"ha":225,"x_min":7,"x_max":175,"o":"m 7 589 l 7 602 l 17 602 l 26 602 l 39 591 l 47 586 l 56 602 l 66 602 l 78 599 l 87 599 l 96 602 l 106 602 l 122 591 l 126 529 l 136 602 l 146 602 l 155 602 l 160 597 l 165 589 l 165 575 l 165 562 l 161 465 l 165 534 l 165 522 l 165 509 l 165 496 l 165 482 l 165 468 l 165 456 l 160 453 l 165 429 l 165 415 l 165 401 l 165 389 l 155 389 l 143 407 l 135 397 l 125 389 l 115 389 l 103 395 l 96 389 l 86 389 l 77 389 l 65 418 l 60 473 l 52 390 l 36 389 l 26 389 l 17 389 l 11 414 l 7 396 l 7 415 l 7 429 l 7 441 l 7 456 l 7 468 l 18 574 l 7 496 l 7 509 l 7 522 l 7 534 l 7 549 l 20 436 l 7 575 l 7 589 z m 175 46 l 175 36 l 170 24 l 164 12 l 158 0 l 153 -12 l 150 37 l 142 -37 l 136 -49 l 127 -52 l 122 -64 l 119 -86 l 114 -98 l 107 -110 l 102 -66 l 96 -135 l 90 -147 l 85 -160 l 82 -155 l 78 -151 l 74 -147 l 69 -143 l 65 -139 l 61 -135 l 57 -132 l 53 -127 l 49 -123 l 45 -119 l 40 -115 l 36 -111 l 32 -107 l 28 -104 l 24 -100 l 20 -96 l 24 -89 l 26 -83 l 31 -77 l 35 -71 l 39 -85 l 41 -58 l 45 -53 l 49 -46 l 52 -40 l 56 -33 l 58 -81 l 62 -21 l 66 -16 l 69 -8 l 74 -3 l 77 4 l 72 4 l 68 4 l 64 4 l 57 36 l 57 4 l 53 4 l 49 4 l 45 4 l 40 4 l 36 4 l 32 4 l 28 86 l 24 4 l 20 4 l 16 4 l 11 4 l 11 16 l 11 26 l 11 37 l 11 49 l 11 60 l 11 72 l 11 83 l 11 94 l 11 134 l 17 92 l 17 146 l 17 158 l 11 179 l 11 191 l 11 201 l 11 212 l 21 212 l 36 207 l 43 135 l 43 208 l 62 212 l 72 212 l 78 208 l 87 208 l 103 212 l 114 212 l 127 200 l 142 208 l 144 212 l 154 205 l 164 212 l 175 212 l 175 204 l 175 195 l 175 184 l 160 45 l 175 167 l 175 157 l 175 147 l 175 139 l 175 102 l 175 92 l 175 83 l 164 178 l 175 64 l 175 56 l 175 46 z "},"=":{"ha":539,"x_min":5,"x_max":497,"o":"m 7 720 l 7 728 l 37 728 l 69 728 l 100 711 l 131 728 l 165 722 l 179 644 l 175 726 l 236 724 l 283 728 l 329 722 l 387 724 l 387 610 l 399 720 l 436 720 l 467 728 l 497 728 l 497 720 l 497 710 l 497 701 l 465 625 l 497 684 l 497 675 l 497 665 l 476 611 l 497 648 l 497 639 l 497 631 l 481 685 l 497 612 l 497 604 l 497 596 l 497 586 l 467 586 l 412 596 l 406 681 l 399 589 l 317 586 l 304 610 l 283 586 l 253 586 l 222 586 l 183 591 l 153 591 l 131 586 l 100 586 l 33 589 l 33 614 l 7 586 l 7 596 l 7 604 l 7 612 l 7 623 l 32 703 l 7 639 l 7 648 l 7 657 l 7 665 l 7 675 l 7 684 l 7 693 l 26 625 l 7 710 l 7 720 z m 496 390 l 496 382 l 465 382 l 435 382 l 403 399 l 374 382 l 338 387 l 323 465 l 329 383 l 267 386 l 221 382 l 174 387 l 117 386 l 117 500 l 104 390 l 68 390 l 36 382 l 5 382 l 5 390 l 5 400 l 5 408 l 37 485 l 5 427 l 5 435 l 5 443 l 26 498 l 5 461 l 5 471 l 5 479 l 22 425 l 5 497 l 5 505 l 5 514 l 5 524 l 36 524 l 90 514 l 97 429 l 104 519 l 186 524 l 199 500 l 221 524 l 252 524 l 282 524 l 319 518 l 350 518 l 374 524 l 404 524 l 469 519 l 469 496 l 496 524 l 496 514 l 496 505 l 496 497 l 496 488 l 472 407 l 496 471 l 496 461 l 496 453 l 496 443 l 496 435 l 496 427 l 496 416 l 476 485 l 496 400 l 496 390 z "},">":{"ha":416,"x_min":null,"x_max":null,"o":""},"?":{"ha":619,"x_min":0,"x_max":590,"o":"m 590 689 l 590 671 l 579 661 l 570 652 l 559 642 l 550 632 l 539 711 l 536 637 l 519 602 l 510 591 l 500 582 l 490 572 l 481 562 l 471 612 l 460 543 l 450 533 l 440 524 l 431 514 l 431 500 l 431 488 l 431 475 l 431 461 l 431 449 l 431 435 l 431 422 l 431 410 l 431 396 l 431 383 l 431 371 l 431 357 l 431 345 l 431 332 l 431 318 l 431 306 l 414 306 l 396 446 l 393 321 l 363 306 l 346 306 l 325 330 l 311 318 l 294 306 l 278 306 l 261 306 l 249 323 l 227 306 l 210 306 l 195 389 l 176 306 l 160 306 l 160 319 l 160 335 l 160 349 l 160 363 l 160 378 l 160 392 l 160 407 l 160 421 l 160 435 l 167 443 l 167 457 l 167 471 l 167 486 l 167 500 l 160 522 l 160 536 l 170 546 l 180 555 l 192 566 l 203 576 l 214 586 l 227 553 l 245 591 l 245 615 l 257 625 l 268 636 l 279 646 l 289 656 l 300 567 l 311 675 l 322 685 l 334 696 l 334 708 l 334 721 l 334 734 l 334 747 l 334 760 l 334 774 l 334 786 l 334 799 l 334 812 l 350 541 l 334 839 l 334 851 l 334 864 l 334 878 l 334 890 l 334 903 l 328 903 l 322 903 l 317 903 l 311 903 l 302 964 l 300 903 l 294 903 l 289 903 l 283 903 l 278 903 l 272 903 l 275 1007 l 261 903 l 257 903 l 252 903 l 245 903 l 245 890 l 245 878 l 245 864 l 245 851 l 245 839 l 245 825 l 245 812 l 245 799 l 245 786 l 245 774 l 245 760 l 245 747 l 245 734 l 245 721 l 245 708 l 245 696 l 231 696 l 215 696 l 204 804 l 201 720 l 168 696 l 153 711 l 138 696 l 122 696 l 114 745 l 109 696 l 79 703 l 54 708 l 46 733 l 31 696 l 16 696 l 0 696 l 0 713 l 0 729 l 0 746 l 0 762 l 0 779 l 0 796 l 0 812 l 0 829 l 0 846 l 0 863 l 0 879 l 0 896 l 0 913 l 0 929 l 0 947 l 0 964 l 9 972 l 20 982 l 29 991 l 39 954 l 50 1010 l 60 1018 l 69 1028 l 79 1038 l 89 1046 l 97 946 l 110 1065 l 119 1074 l 129 1083 l 142 1075 l 149 1101 l 160 1111 l 178 1105 l 197 1078 l 210 1111 l 227 1111 l 244 1111 l 262 1103 l 279 1103 l 294 1111 l 311 1111 l 345 1111 l 353 1043 l 363 1111 l 380 1097 l 401 1103 l 414 1111 l 431 1111 l 440 1101 l 452 977 l 460 1082 l 471 1071 l 481 1061 l 490 1051 l 500 1042 l 510 1032 l 519 1022 l 525 953 l 541 1002 l 550 991 l 559 982 l 570 972 l 579 962 l 590 951 l 590 935 l 558 700 l 590 899 l 590 882 l 590 864 l 590 847 l 590 829 l 590 811 l 590 794 l 590 777 l 564 903 l 590 742 l 590 724 l 590 705 l 590 689 z m 431 14 l 431 0 l 414 0 l 399 3 l 379 0 l 364 11 l 346 0 l 330 22 l 311 0 l 294 0 l 271 28 l 262 14 l 244 0 l 227 0 l 197 3 l 189 104 l 176 0 l 160 0 l 160 14 l 160 28 l 160 41 l 160 54 l 160 68 l 160 82 l 160 96 l 160 110 l 160 123 l 160 138 l 160 151 l 160 164 l 160 178 l 160 192 l 160 205 l 160 220 l 176 220 l 193 220 l 210 197 l 227 220 l 244 220 l 262 197 l 278 220 l 294 220 l 314 183 l 330 205 l 346 220 l 361 205 l 379 220 l 390 144 l 399 220 l 431 220 l 431 205 l 431 192 l 412 25 l 431 164 l 431 151 l 431 138 l 431 123 l 431 110 l 431 96 l 431 82 l 431 68 l 431 54 l 418 150 l 431 28 l 431 14 z "},"A":{"ha":657,"x_min":-71,"x_max":640,"o":"m 58 623 l 58 623 q 48 605 56 615 q 40 593 41 595 l 40 593 q 26 566 35 585 l 26 566 l 28 562 q 43 590 39 579 l 43 590 q 50 600 44 595 q 57 607 56 605 l 57 607 q 58 623 58 611 z m 87 859 l 87 859 l 87 882 q 87 877 87 879 q 86 873 87 876 l 86 873 l 86 868 q 87 864 87 866 q 87 859 87 862 z m 79 778 l 79 790 q 83 801 80 791 q 87 815 86 810 l 87 815 l 87 843 q 61 721 61 791 l 61 721 l 61 696 l 61 682 l 64 679 q 73 731 67 687 q 79 778 79 776 l 79 778 z m 640 3 l 468 1111 q 427 1104 439 1111 l 427 1104 l 400 1111 l 387 1096 l 370 1105 l 343 1097 l 338 1109 l 262 1111 l 253 1086 l 236 1108 l 195 1111 q 168 1092 186 1101 q 135 1082 149 1083 l 135 1082 l 126 1111 l 103 1111 l 8 511 l 16 518 q 26 566 18 540 l 26 566 l 25 579 q 42 642 25 603 q 58 705 58 680 l 58 705 q 67 800 58 737 q 77 878 75 862 l 77 878 l 87 882 l 87 884 l 90 880 l 90 847 q 81 759 90 814 q 68 675 73 703 l 68 675 l 69 656 q 52 587 69 621 l 52 587 l 52 571 q 46 562 46 571 l 46 562 l 29 559 l 28 562 q 22 542 27 562 q 16 513 16 522 l 16 513 q 8 511 9 513 l 8 511 l -71 3 l -45 4 q -22 36 -30 28 l -22 36 l -11 17 l 7 25 l 9 5 l 41 3 l 57 9 q 67 5 62 8 q 74 3 72 3 l 74 3 l 90 3 l 109 22 l 121 8 l 139 16 l 147 0 q 186 3 160 3 l 186 3 l 211 222 l 229 222 l 239 233 q 256 239 252 233 l 256 239 l 267 222 l 281 222 l 285 237 l 294 222 l 302 222 l 313 235 l 319 232 l 330 241 l 340 232 l 342 222 l 358 222 l 383 3 l 404 5 l 418 18 l 431 3 l 446 12 l 464 3 l 484 8 l 494 22 l 503 1 l 528 3 l 545 28 l 561 24 l 568 9 l 591 3 l 611 14 l 625 3 l 640 3 z m 146 79 l 146 71 q 119 60 130 60 l 119 60 q 109 62 109 60 l 109 62 q 117 71 115 67 l 117 71 q 118 72 118 71 l 118 72 q 118 73 118 73 q 117 74 117 73 q 115 73 116 74 q 113 72 114 73 l 113 72 l 111 74 q 111 81 111 78 q 110 87 111 84 l 110 87 q 111 89 110 88 q 111 90 111 90 l 111 90 q 146 79 133 90 l 146 79 z m 184 1060 l 184 1060 q 185 1048 185 1054 q 186 1035 186 1043 l 186 1035 q 182 1036 184 1036 l 182 1036 q 176 1036 178 1036 q 171 1035 174 1036 l 171 1035 q 163 1043 163 1035 l 163 1043 q 165 1049 163 1043 q 167 1061 167 1056 l 167 1061 q 174 1070 167 1066 q 183 1080 182 1075 l 183 1080 l 189 1103 q 186 1072 189 1082 l 186 1072 q 184 1060 184 1068 z m 346 429 l 338 429 q 328 411 328 422 l 328 411 l 315 421 l 313 429 l 300 429 q 288 410 292 426 l 288 410 l 277 407 l 271 424 l 261 429 l 253 429 q 237 401 244 421 l 237 401 l 231 429 l 222 429 l 272 893 l 297 893 l 346 429 z m 329 1067 l 329 1067 l 329 1075 l 338 1075 l 338 1083 l 318 1086 l 334 1086 l 338 1086 q 351 1078 351 1086 l 351 1078 q 346 1069 351 1074 q 334 1065 340 1065 l 334 1065 q 329 1067 330 1065 z m 452 58 l 452 58 q 449 57 449 58 l 449 57 q 450 55 449 56 q 452 53 452 54 l 452 53 q 451 52 452 52 q 450 52 451 52 l 450 52 q 436 45 444 45 l 436 45 l 435 46 q 429 66 429 60 l 429 66 q 432 81 429 73 l 432 81 l 440 85 q 463 53 463 69 l 463 53 q 458 56 463 53 q 452 58 454 58 z m 583 184 l 583 172 q 573 255 583 201 q 562 329 562 309 l 562 329 q 558 357 562 342 q 545 396 554 373 q 533 431 536 419 q 529 453 530 444 l 529 453 q 526 482 528 471 q 523 504 525 493 q 518 532 521 514 l 518 532 q 514 582 514 557 l 514 582 q 515 609 515 597 q 515 642 515 622 l 515 642 q 514 673 515 663 l 514 673 q 508 694 513 682 q 503 717 503 707 l 503 717 l 504 746 q 510 717 510 743 l 510 717 q 514 646 510 705 q 522 551 518 587 q 526 511 525 514 l 526 511 q 568 349 553 429 q 583 184 583 269 l 583 184 z m 3 504 l 3 504 l 8 511 q 3 504 3 506 z "},"B":{"ha":671,"x_min":0,"x_max":639,"o":"m 639 340 l 639 452 l 616 443 l 614 454 l 600 463 l 599 482 l 575 479 l 566 488 l 570 504 l 549 519 l 533 517 l 529 534 l 498 557 l 481 543 l 479 572 l 513 597 l 514 619 l 529 610 l 530 631 l 546 636 l 562 663 l 564 633 l 597 659 l 590 673 l 599 682 l 615 689 l 615 725 l 607 733 l 607 751 l 615 779 l 615 817 l 607 836 l 615 852 l 615 945 l 599 946 l 606 971 l 587 990 l 574 985 l 570 1008 l 559 1018 l 549 1014 l 542 1036 l 532 977 l 522 1054 l 514 1064 l 501 1059 l 492 1068 l 486 1092 l 475 1084 l 453 1096 l 437 1109 l 387 1101 l 357 1079 l 350 1109 l 319 1099 l 292 1109 l 248 1111 l 221 1093 l 175 1109 l 146 1109 l 111 1099 l 87 1109 l 50 1090 l 29 1109 l 4 1104 l 0 1040 l 0 971 l 5 885 l 21 1050 l 8 831 l 21 608 l 5 779 l 0 693 l 0 486 l 1 444 l 12 389 l 21 228 l 7 298 l 0 139 l 9 68 l 0 0 l 58 0 l 106 24 l 117 8 l 149 12 l 175 0 l 204 0 l 232 5 l 264 18 l 292 0 l 351 1 l 366 14 l 400 25 l 408 0 l 437 0 l 456 8 l 478 9 l 492 46 l 500 29 l 511 33 l 521 49 l 543 69 l 550 98 l 566 94 l 582 102 l 574 180 l 591 122 l 607 127 l 618 138 l 618 150 l 633 144 l 639 176 l 639 212 l 627 225 l 639 249 l 639 304 l 632 321 l 639 340 z m 554 726 l 554 726 q 558 737 555 728 q 562 753 562 746 l 562 753 q 575 734 575 751 l 575 734 q 568 722 573 730 q 555 705 562 715 l 555 705 q 554 726 554 711 z m 45 43 l 45 43 l 43 49 q 38 53 40 49 q 36 57 37 56 l 36 57 q 39 36 39 46 l 39 36 l 32 36 l 32 68 q 47 58 43 68 l 47 58 q 52 50 52 54 l 52 50 q 45 43 52 47 z m 58 1042 l 58 1026 q 50 1034 55 1026 l 50 1034 l 50 1047 l 49 1057 q 52 1049 51 1055 q 58 1042 54 1043 l 58 1042 z m 382 268 l 374 311 l 370 283 l 370 222 l 366 215 l 363 208 l 355 208 l 345 157 l 340 197 l 326 186 l 322 208 l 315 208 l 309 199 l 300 203 l 294 208 l 277 191 l 281 208 l 260 208 l 260 375 l 257 393 l 250 306 l 245 479 l 257 393 l 260 421 l 260 452 l 267 452 l 283 465 l 281 452 l 292 473 l 302 464 l 301 452 l 309 452 l 319 458 l 322 452 l 334 461 l 336 473 l 345 472 l 358 486 l 359 464 l 363 452 l 370 452 l 370 329 l 374 311 l 379 355 l 382 268 z m 386 823 l 383 667 l 372 761 l 370 749 l 370 657 l 363 657 l 361 644 l 351 652 l 347 647 l 336 657 l 329 657 l 323 602 l 315 647 l 304 648 l 301 657 l 273 657 l 268 650 l 254 661 l 260 672 l 260 901 l 267 901 l 273 916 l 281 916 l 288 901 l 293 909 l 293 908 l 309 901 l 304 913 l 322 901 l 329 901 l 334 908 l 342 921 l 349 911 l 357 908 l 363 901 l 370 901 l 370 810 l 368 802 l 372 761 l 386 823 z m 8 831 l 5 885 l 0 832 l 5 779 l 8 831 z "},"C":{"ha":663,"x_min":0,"x_max":631,"o":"m 3 644 l 3 596 l 4 625 l 3 644 z m 256 431 l 258 397 l 262 429 l 258 464 l 256 431 z m 625 473 l 614 475 l 576 471 l 576 443 l 566 475 l 517 475 l 490 469 l 486 433 l 468 463 l 449 465 l 437 475 l 421 475 l 404 450 l 404 473 l 372 475 l 372 441 l 375 422 l 372 408 l 372 275 l 375 254 l 385 338 l 376 240 l 389 89 l 375 225 l 372 208 l 367 208 l 358 170 l 353 192 l 346 208 l 339 208 l 330 154 l 329 204 l 318 208 l 311 208 l 300 187 l 297 208 l 290 208 l 279 203 l 277 208 l 271 192 l 254 196 l 257 241 l 262 296 l 262 340 l 258 397 l 248 318 l 256 431 l 244 587 l 258 464 l 262 517 l 262 606 l 257 650 l 262 694 l 262 739 l 257 781 l 256 852 l 260 900 l 257 920 l 269 916 l 283 916 l 288 971 l 297 916 l 304 916 l 307 928 l 314 928 l 325 916 l 330 943 l 339 916 l 346 916 l 350 922 l 359 916 l 367 916 l 372 924 l 372 900 l 372 857 l 378 843 l 378 828 l 372 814 l 372 755 l 379 736 l 372 726 l 372 684 l 389 684 l 404 694 l 421 684 l 444 689 l 457 714 l 464 694 l 485 684 l 503 689 l 517 684 l 543 685 l 558 700 l 570 689 l 586 682 l 599 725 l 614 684 l 631 688 l 629 700 l 629 800 l 624 811 l 629 833 l 629 867 l 621 886 l 629 900 l 629 933 l 618 946 l 618 961 l 607 971 l 593 937 l 583 990 l 561 1010 l 545 1010 l 538 1031 l 526 1040 l 514 1042 l 494 1067 l 496 1019 l 481 1080 l 457 1100 l 433 1103 l 424 1111 l 397 1109 l 396 1076 l 379 1109 l 361 1109 l 338 1093 l 334 1104 l 302 1103 l 294 1109 l 261 1109 l 245 1078 l 235 1099 l 210 1109 l 176 1109 l 170 1088 l 155 1082 l 144 1071 l 134 1067 l 111 1046 l 102 1019 l 90 1023 l 69 999 l 65 922 l 57 991 l 36 970 l 28 896 l 22 956 l 3 937 l 3 743 l 8 675 l 20 860 l 9 648 l 49 357 l 7 597 l 3 498 l 3 353 l 11 300 l 3 256 l 0 172 l 11 170 l 14 147 l 26 138 l 37 171 l 41 132 l 61 109 l 72 98 l 85 167 l 96 79 l 103 92 l 118 58 l 161 22 l 172 89 l 176 9 l 187 0 l 224 0 l 241 26 l 262 7 l 277 0 l 311 0 l 329 16 l 347 0 l 364 0 l 393 7 l 406 25 l 422 17 l 435 0 l 453 0 l 465 11 l 481 11 l 510 43 l 524 122 l 533 89 l 519 62 l 550 85 l 559 96 l 567 117 l 579 117 l 600 139 l 612 228 l 614 155 l 621 182 l 629 189 l 629 265 l 625 283 l 625 306 l 629 322 l 629 361 l 624 379 l 629 399 l 629 457 l 625 473 z m 193 1034 l 193 1034 l 193 1019 l 187 1019 q 185 1027 187 1025 q 176 1036 183 1030 q 167 1044 168 1042 l 167 1044 q 175 1057 167 1057 l 175 1057 q 187 1046 180 1057 l 187 1046 q 194 1048 189 1046 q 203 1053 199 1051 l 203 1053 q 193 1034 203 1040 z m 231 107 l 231 107 q 226 109 229 107 q 224 111 224 111 l 224 111 q 224 256 224 196 q 227 371 225 315 q 235 497 229 427 l 235 497 q 234 400 235 432 q 233 319 234 368 q 232 214 233 271 q 231 107 231 157 z m 465 395 l 465 395 q 460 390 460 390 l 460 390 q 456 399 457 390 q 453 412 454 409 l 453 412 q 468 401 468 412 l 468 401 q 465 395 468 396 z m 376 240 l 375 254 l 372 241 l 375 225 l 376 240 z m 9 648 l 8 675 l 4 625 l 7 597 l 9 648 z "},"D":{"ha":671,"x_min":0,"x_max":639,"o":"m 16 714 l 14 750 l 7 686 l 9 636 l 16 714 z m 0 770 l 0 625 l 7 686 l 0 770 z m 383 591 l 380 607 l 378 570 l 380 555 l 383 591 z m 639 953 l 616 972 l 612 949 l 604 981 l 581 986 l 571 1011 l 558 1022 l 549 986 l 536 1025 l 525 1051 l 510 1046 l 501 1071 l 493 1065 l 478 1082 l 463 1082 l 449 1107 l 428 1111 l 375 1100 l 375 1047 l 364 1088 l 334 1107 l 296 1107 l 257 1111 l 236 1100 l 191 1093 l 186 1034 l 176 1107 l 126 1107 l 83 1063 l 100 1103 l 29 1111 l 28 1088 l 1 1076 l 0 972 l 14 750 l 26 867 l 16 714 l 24 572 l 24 443 l 9 636 l 0 488 l 0 210 l 5 92 l 14 204 l 9 12 l 5 92 l 0 1 l 31 7 l 66 0 l 110 12 l 110 58 l 149 9 l 175 1 l 216 1 l 265 16 l 273 106 l 292 1 l 321 1 l 350 16 l 379 1 l 410 7 l 437 1 l 467 1 l 478 12 l 485 43 l 500 33 l 521 54 l 530 113 l 543 102 l 542 81 l 564 97 l 572 114 l 591 127 l 595 155 l 607 140 l 618 150 l 611 207 l 633 186 l 639 221 l 639 367 l 635 428 l 623 340 l 632 461 l 623 575 l 635 497 l 639 562 l 639 660 l 632 705 l 639 757 l 632 800 l 639 854 l 639 953 z m 236 631 l 236 631 q 231 632 233 631 q 229 633 229 633 l 229 633 q 230 779 229 719 q 233 895 231 838 q 240 1021 235 951 l 240 1021 q 240 923 240 955 q 239 842 239 890 q 237 736 238 793 q 236 631 237 680 z m 400 450 l 380 555 l 370 395 l 375 340 l 370 307 l 372 257 l 370 221 l 355 221 l 350 207 l 343 211 l 334 191 l 335 211 l 322 221 l 314 134 l 311 215 l 310 204 l 294 221 l 288 221 l 288 207 l 273 221 l 260 221 l 260 307 l 253 357 l 260 395 l 260 525 l 254 561 l 260 612 l 260 699 l 253 770 l 260 786 l 260 829 l 257 903 l 243 929 l 264 926 l 273 917 l 294 917 l 310 985 l 313 945 l 315 933 l 322 917 l 342 917 l 340 930 l 350 939 l 363 917 l 370 917 l 370 873 l 372 817 l 370 786 l 370 699 l 380 607 l 392 733 l 383 591 l 400 450 z m 597 897 l 597 897 l 591 897 q 589 935 591 922 l 589 935 l 581 937 l 595 937 q 600 922 595 928 l 600 922 q 597 897 600 901 z m 632 461 l 635 428 l 639 464 l 635 497 l 632 461 z m 370 612 l 370 482 l 378 570 l 370 612 z "},"E":{"ha":501,"x_min":0,"x_max":478,"o":"m 18 407 l 17 396 l 18 359 l 20 372 l 18 407 z m 0 694 l 0 486 l 0 429 l 3 371 l 17 396 l 0 694 z m 478 1059 l 476 1069 l 476 1096 l 464 1100 l 447 1108 l 336 1111 l 346 1097 l 318 1103 l 298 1078 l 292 1097 l 239 1108 l 208 1108 l 178 1103 l 126 1109 l 118 1050 l 104 1109 l 60 1108 l 32 1103 l 0 1108 l 0 832 l 18 407 l 40 530 l 20 372 l 43 208 l 14 336 l 0 210 l 8 149 l 5 85 l 0 3 l 17 3 l 24 28 l 40 17 l 46 3 l 104 5 l 180 0 l 211 14 l 239 3 l 264 11 l 298 3 l 328 3 l 396 8 l 390 41 l 416 3 l 447 3 l 464 8 l 476 16 l 476 41 l 467 45 l 476 68 l 476 107 l 461 123 l 476 132 l 476 197 l 471 201 l 457 196 l 452 210 l 425 210 l 412 199 l 399 210 l 386 210 l 364 201 l 361 210 l 322 210 l 310 176 l 296 210 l 283 210 l 261 201 l 269 228 l 261 248 l 256 267 l 264 283 l 269 297 l 269 332 l 264 350 l 264 368 l 269 385 l 269 472 l 267 503 l 283 497 l 292 489 l 301 489 l 313 503 l 323 489 l 382 489 l 407 503 l 419 489 l 431 489 l 441 503 l 441 528 l 436 539 l 441 554 l 441 567 l 429 579 l 441 591 l 441 643 l 436 637 l 441 669 l 441 682 l 429 682 l 431 694 l 410 694 l 401 685 l 387 694 l 379 688 l 368 685 l 355 694 l 335 694 l 329 629 l 321 693 l 301 694 l 301 673 l 281 694 l 269 694 l 269 760 l 267 754 l 269 785 l 269 799 l 261 786 l 269 823 l 269 863 l 261 880 l 269 889 l 269 901 l 283 901 l 293 916 l 309 901 l 313 913 l 335 901 l 349 929 l 351 907 l 374 901 l 393 913 l 399 901 l 425 901 l 439 916 l 452 901 l 476 901 l 476 953 l 467 982 l 476 979 l 476 991 l 464 1003 l 476 1018 l 476 1044 l 478 1059 z m 60 946 l 60 946 q 57 929 57 934 l 57 929 l 57 734 q 52 746 52 740 l 52 746 l 52 844 q 57 929 52 890 l 57 929 l 57 1055 l 60 1047 q 66 1004 66 1025 l 66 1004 q 60 946 66 994 z m 432 951 l 432 951 q 425 950 429 951 q 418 949 421 949 l 418 949 l 418 940 l 412 940 q 407 962 407 946 l 407 962 q 427 968 410 968 l 427 968 q 429 974 429 968 l 429 974 l 436 974 q 432 951 436 951 z "},"F":{"ha":529,"x_min":0,"x_max":504,"o":"m 260 761 l 260 774 l 260 787 l 260 800 l 260 812 l 260 827 l 260 839 l 260 851 l 260 865 l 245 827 l 260 761 z m 260 149 l 260 178 l 260 208 l 260 237 l 245 269 l 260 149 z m 244 271 l 245 269 l 244 272 l 244 271 z m 0 832 l 4 749 l 0 693 l 0 624 l 11 733 l 0 832 z m 260 297 l 260 326 l 260 357 l 260 386 l 250 310 l 260 297 z m 241 832 l 243 821 l 245 827 l 243 838 l 241 832 z m 504 1082 l 504 1109 l 465 1104 l 427 1111 l 424 1088 l 404 1111 l 367 1111 l 330 1093 l 319 1079 l 293 1104 l 221 1109 l 189 1109 l 144 1111 l 96 1101 l 87 1053 l 62 1109 l 7 1111 l 0 971 l 16 775 l 29 913 l 18 745 l 37 490 l 14 700 l 0 486 l 7 414 l 0 347 l 0 278 l 12 203 l 0 139 l 0 69 l 1 28 l 17 0 l 37 20 l 49 0 l 81 0 l 90 14 l 111 3 l 134 11 l 146 0 l 167 11 l 178 0 l 195 0 l 212 39 l 229 11 l 243 0 l 260 0 l 260 29 l 245 60 l 260 89 l 243 257 l 221 85 l 241 275 l 240 279 l 192 386 l 236 328 l 224 453 l 239 325 l 245 315 l 260 446 l 260 475 l 272 475 l 282 488 l 296 475 l 321 475 l 345 493 l 351 564 l 355 490 l 370 475 l 395 475 l 400 488 l 419 475 l 443 475 l 443 488 l 456 489 l 456 501 l 446 521 l 456 528 l 446 541 l 446 553 l 456 567 l 456 631 l 440 639 l 456 657 l 449 676 l 432 684 l 412 682 l 410 660 l 380 682 l 321 684 l 309 600 l 306 676 l 285 684 l 272 684 l 245 676 l 260 696 l 260 734 l 243 821 l 207 721 l 241 832 l 218 954 l 243 838 l 260 890 l 275 890 l 293 901 l 306 890 l 336 890 l 350 913 l 367 890 l 383 901 l 404 916 l 412 890 l 443 890 l 468 901 l 473 949 l 489 890 l 504 890 l 504 972 l 493 978 l 504 1000 l 504 1055 l 488 989 l 504 1082 z m 65 69 l 65 52 l 60 52 q 52 200 52 102 l 52 200 q 65 69 52 144 l 65 69 l 65 113 l 68 57 q 67 63 67 60 q 65 69 66 65 l 65 69 z m 243 290 l 244 272 l 250 310 l 245 315 l 243 290 z m 241 278 l 243 290 l 239 325 l 236 328 l 240 279 l 241 278 z m 241 278 l 241 275 l 243 257 l 244 271 l 241 278 z m 18 745 l 16 775 l 11 733 l 14 700 l 18 745 z "},"G":{"ha":671,"x_min":0,"x_max":639,"o":"m 269 479 l 269 550 l 260 586 l 269 635 l 269 677 l 252 571 l 269 479 z m 639 893 l 639 939 l 615 961 l 603 936 l 591 982 l 570 1004 l 559 987 l 546 1025 l 522 1047 l 518 1023 l 501 1035 l 486 972 l 476 1090 l 453 1111 l 419 1111 l 403 1095 l 386 1111 l 335 1111 l 302 1105 l 297 1051 l 283 1095 l 268 1111 l 216 1111 l 210 1103 l 193 1103 l 172 1100 l 154 1078 l 151 1015 l 138 1068 l 103 1036 l 103 1021 l 81 1014 l 69 1004 l 53 982 l 45 911 l 35 971 l 0 939 l 0 842 l 8 778 l 29 865 l 12 743 l 24 660 l 8 713 l 0 646 l 4 603 l 0 549 l 0 500 l 9 443 l 7 375 l 0 353 l 0 304 l 9 257 l 0 207 l 0 157 l 11 147 l 20 160 l 32 127 l 43 118 l 58 96 l 66 272 l 75 89 l 107 60 l 132 41 l 138 68 l 149 158 l 150 20 l 172 0 l 204 0 l 220 41 l 222 11 l 249 0 l 288 0 l 306 11 l 326 0 l 346 33 l 355 4 l 385 7 l 403 0 l 479 0 l 498 62 l 498 20 l 549 69 l 550 94 l 559 104 l 579 98 l 599 118 l 619 178 l 618 138 l 639 157 l 639 210 l 628 225 l 639 261 l 639 366 l 608 240 l 639 418 l 639 469 l 628 504 l 639 521 l 639 574 l 618 574 l 603 567 l 579 468 l 571 536 l 557 522 l 557 570 l 478 574 l 453 561 l 439 574 l 418 574 l 399 564 l 378 574 l 359 555 l 346 528 l 332 575 l 318 561 l 318 366 l 342 366 l 340 395 l 349 366 l 353 366 l 357 440 l 361 366 l 380 366 l 380 307 l 393 310 l 393 286 l 380 277 l 380 257 l 390 244 l 380 237 l 380 208 l 367 208 l 361 155 l 353 208 l 339 208 l 336 189 l 325 208 l 318 208 l 313 186 l 304 208 l 283 208 l 289 195 l 264 189 l 269 250 l 261 296 l 269 336 l 269 422 l 249 550 l 210 315 l 244 575 l 210 786 l 248 595 l 269 764 l 269 807 l 258 846 l 269 892 l 304 892 l 306 936 l 318 892 l 325 892 l 329 922 l 339 892 l 347 1004 l 353 892 l 374 892 l 387 911 l 380 879 l 380 818 l 390 799 l 393 785 l 380 782 l 380 757 l 390 739 l 380 732 l 380 707 l 390 703 l 396 696 l 429 696 l 447 711 l 467 705 l 481 790 l 489 711 l 510 696 l 526 705 l 542 696 l 558 696 l 574 722 l 589 705 l 606 696 l 623 696 l 625 708 l 639 711 l 639 802 l 628 815 l 625 832 l 639 847 l 639 863 l 623 871 l 639 893 z m 510 153 l 510 170 q 532 180 524 170 l 532 180 q 546 175 543 180 l 546 175 q 542 154 546 169 q 538 129 538 139 l 538 129 l 529 129 l 529 155 q 519 154 526 155 q 510 153 513 153 l 510 153 z m 12 743 l 8 778 l 0 743 l 8 713 l 12 743 z m 244 575 l 249 550 l 252 571 l 248 595 l 244 575 z "},"H":{"ha":664,"x_min":0,"x_max":632,"o":"m 265 856 l 265 885 l 257 914 l 265 942 l 265 1026 l 252 908 l 265 856 z m 248 907 l 250 896 l 252 908 l 249 918 l 248 907 z m 578 676 l 632 1111 l 606 1107 l 597 1035 l 585 1095 l 568 1111 l 553 1104 l 536 1111 l 519 1111 l 496 1101 l 488 1111 l 475 1095 l 463 1060 l 453 1105 l 424 1111 l 400 1107 l 385 1107 l 375 1111 l 375 1083 l 385 968 l 375 1026 l 375 970 l 379 926 l 379 899 l 375 885 l 375 828 l 387 803 l 375 771 l 375 743 l 372 693 l 383 686 l 380 647 l 368 659 l 354 659 l 353 561 l 342 643 l 336 616 l 326 659 l 314 659 l 311 650 l 300 659 l 286 659 l 279 632 l 272 659 l 265 659 l 265 825 l 250 896 l 228 713 l 248 907 l 228 994 l 249 918 l 265 1083 l 265 1111 l 245 1105 l 232 1111 l 214 1097 l 201 1053 l 187 1105 l 165 1104 l 151 1111 l 135 1111 l 117 1096 l 103 1111 l 68 1104 l 64 1074 l 41 1092 l 37 1111 l 21 1111 l 21 1079 l 5 1042 l 5 903 l 17 696 l 17 627 l 5 694 l 5 625 l 26 361 l 49 602 l 28 342 l 36 228 l 26 326 l 0 1 l 21 0 l 37 21 l 52 5 l 81 9 l 86 0 l 113 5 l 127 45 l 136 7 l 154 11 l 171 7 l 183 0 l 216 0 l 229 32 l 237 5 l 265 0 l 265 85 l 258 109 l 258 138 l 265 170 l 265 254 l 250 245 l 254 292 l 265 339 l 265 452 l 272 452 l 277 463 l 282 469 l 293 452 l 300 452 l 304 536 l 313 463 l 319 452 l 326 452 l 334 463 l 340 452 l 347 452 l 361 482 l 368 452 l 375 452 l 375 282 l 415 621 l 375 227 l 375 170 l 379 146 l 379 118 l 382 71 l 375 57 l 375 28 l 397 12 l 379 1 l 407 0 l 419 28 l 429 11 l 450 9 l 456 1 l 488 0 l 519 0 l 546 17 l 551 0 l 571 9 l 583 0 l 600 57 l 600 1 l 632 8 l 632 69 l 627 129 l 627 199 l 632 278 l 632 416 l 606 139 l 632 555 l 624 532 l 627 679 l 627 818 l 632 833 l 632 972 l 578 676 z m 85 1029 l 85 1029 q 57 1007 73 1010 l 57 1007 q 49 1051 57 1031 l 49 1051 q 59 1054 53 1051 q 68 1057 64 1057 l 68 1057 q 85 1029 85 1046 z m 504 54 l 504 54 q 494 47 503 51 q 482 36 485 43 l 482 36 q 475 35 481 35 q 468 33 469 35 l 468 33 q 469 39 469 35 q 471 45 469 43 l 471 45 q 493 79 486 61 l 493 79 q 497 82 494 81 q 501 85 500 83 l 501 85 q 503 93 503 87 q 504 102 503 99 l 504 102 q 507 74 504 87 l 507 74 q 504 54 507 60 z m 11 476 l 5 416 l 14 342 l 5 278 l 5 139 l 25 345 l 11 476 z m 28 342 l 26 361 l 25 345 l 26 326 l 28 342 z "},"I":{"ha":279,"x_min":0,"x_max":265,"o":"m 252 528 l 215 355 l 257 647 l 254 686 l 265 693 l 262 743 l 262 771 l 250 803 l 262 828 l 262 885 l 258 899 l 258 926 l 262 970 l 262 1026 l 253 968 l 262 1083 l 262 1111 l 253 1107 l 237 1107 l 215 1063 l 192 1096 l 175 1034 l 164 1095 l 150 1111 l 142 1101 l 117 1093 l 102 1111 l 85 1104 l 69 1111 l 43 1096 l 35 1048 l 32 1107 l 0 1101 l 60 676 l 5 972 l 5 864 l 11 818 l 11 679 l 14 532 l 5 555 l 32 139 l 5 416 l 5 278 l 11 199 l 11 129 l 5 69 l 5 0 l 33 9 l 37 57 l 54 0 l 66 9 l 94 4 l 106 40 l 118 0 l 150 0 l 176 9 l 197 47 l 205 7 l 218 28 l 231 0 l 258 1 l 254 12 l 262 28 l 262 57 l 256 71 l 258 118 l 258 146 l 262 170 l 262 227 l 235 648 l 262 282 l 262 452 l 252 528 z m 33 633 l 33 681 q 35 672 35 678 q 36 664 35 667 l 36 664 q 41 661 37 663 q 45 659 44 659 l 45 659 q 68 624 54 640 l 68 624 q 69 618 69 623 q 71 612 69 614 l 71 612 q 64 614 69 614 q 57 615 58 614 l 57 615 q 44 625 54 621 q 33 633 35 629 l 33 633 z "},"J":{"ha":618,"x_min":0,"x_max":589,"o":"m 233 288 l 233 342 l 225 318 l 233 288 z m 332 777 l 330 710 l 332 664 l 339 606 l 332 553 l 332 497 l 351 596 l 332 777 z m 589 396 l 587 473 l 589 514 l 581 570 l 589 633 l 589 812 l 570 529 l 589 396 z m 357 593 l 355 615 l 351 596 l 354 570 l 357 593 z m 564 505 l 567 488 l 570 529 l 567 546 l 564 505 z m 221 321 l 222 311 l 225 318 l 222 326 l 221 321 z m 589 1050 l 589 1109 l 574 1109 l 567 1076 l 542 1093 l 525 1084 l 519 1111 l 494 1104 l 476 1109 l 461 1109 l 452 1093 l 440 1104 l 412 1109 l 380 1109 l 364 1099 l 349 1109 l 332 1109 l 332 999 l 342 937 l 332 888 l 355 615 l 367 676 l 357 593 l 378 340 l 354 570 l 332 386 l 332 220 l 314 220 l 309 167 l 301 220 l 289 220 l 286 200 l 277 220 l 272 158 l 264 220 l 245 220 l 237 208 l 212 203 l 212 228 l 233 245 l 233 260 l 222 311 l 207 268 l 221 321 l 210 372 l 222 326 l 233 370 l 233 425 l 237 431 l 224 431 l 204 437 l 196 411 l 184 431 l 161 437 l 146 437 l 131 400 l 117 437 l 87 437 l 71 416 l 62 386 l 45 437 l 32 428 l 18 428 l 0 437 l 0 334 l 12 321 l 7 309 l 7 290 l 0 262 l 0 210 l 7 195 l 0 175 l 0 157 l 21 138 l 37 184 l 40 143 l 54 109 l 97 69 l 106 92 l 118 49 l 129 39 l 147 45 l 158 25 l 161 9 l 172 0 l 187 0 l 195 8 l 210 8 l 233 0 l 258 17 l 268 8 l 281 0 l 326 0 l 355 22 l 364 45 l 372 36 l 387 0 l 418 0 l 450 29 l 457 87 l 472 49 l 504 79 l 519 157 l 528 126 l 536 109 l 557 127 l 567 164 l 578 147 l 589 157 l 589 277 l 567 488 l 547 220 l 564 505 l 542 713 l 567 546 l 589 930 l 581 981 l 589 1050 z m 542 1028 l 542 1028 q 530 1011 538 1020 q 517 1003 522 1003 l 517 1003 q 509 1044 517 1036 l 509 1044 q 517 1041 511 1044 q 525 1034 523 1037 l 525 1034 q 524 1040 525 1036 q 522 1048 523 1044 q 521 1055 521 1053 l 521 1055 q 528 1065 521 1065 l 528 1065 q 539 1057 534 1063 q 546 1042 545 1050 l 546 1042 q 542 1028 546 1034 z "},"K":{"ha":775,"x_min":0,"x_max":739,"o":"m 0 901 l 0 832 l 0 762 l 0 693 l 0 624 l 0 555 l 9 654 l 0 901 z m 12 590 l 0 416 l 0 347 l 18 469 l 12 590 z m 16 615 l 12 676 l 9 654 l 12 590 l 16 615 z m 239 244 l 241 225 l 243 235 l 240 254 l 239 244 z m 21 419 l 20 479 l 18 469 l 21 408 l 21 419 z m 739 0 l 705 74 l 689 74 l 673 146 l 657 183 l 632 208 l 625 256 l 576 367 l 576 298 l 543 439 l 528 476 l 509 479 l 494 549 l 479 586 l 505 652 l 533 770 l 533 717 l 575 815 l 590 863 l 587 890 l 616 914 l 643 991 l 635 1034 l 656 1022 l 672 1044 l 699 1109 l 665 1109 l 661 1093 l 632 1109 l 615 1109 l 599 1101 l 574 1090 l 566 1109 l 542 1111 l 522 1099 l 497 1109 l 475 1071 l 461 1104 l 431 1109 l 419 1080 l 401 946 l 399 1022 l 367 936 l 366 890 l 345 878 l 323 819 l 314 701 l 302 761 l 260 646 l 260 790 l 244 803 l 244 840 l 258 873 l 244 899 l 258 932 l 260 965 l 260 1080 l 253 1099 l 235 1093 l 228 1109 l 195 1109 l 184 1088 l 171 1068 l 146 1109 l 129 1109 l 117 1093 l 97 1109 l 81 1101 l 65 1109 l 37 1096 l 35 1063 l 17 1109 l 0 1109 l 0 1040 l 12 676 l 35 899 l 16 615 l 20 479 l 47 668 l 21 419 l 29 178 l 21 408 l 0 208 l 0 139 l 9 74 l 0 0 l 29 14 l 32 0 l 49 0 l 64 28 l 72 5 l 100 11 l 114 0 l 129 0 l 151 8 l 163 0 l 182 8 l 195 0 l 215 25 l 218 8 l 243 0 l 260 0 l 260 57 l 241 225 l 218 121 l 239 244 l 224 380 l 240 254 l 260 367 l 260 452 l 294 367 l 302 372 l 317 310 l 363 197 l 366 262 l 386 140 l 443 0 l 461 0 l 475 36 l 492 17 l 517 0 l 534 0 l 568 14 l 574 31 l 590 0 l 627 0 l 627 52 l 646 0 l 664 0 l 686 11 l 701 0 l 739 0 z m 69 1019 l 69 1019 q 71 1035 69 1032 l 71 1035 q 64 1053 64 1042 l 64 1053 l 56 1042 q 50 1044 50 1042 l 50 1044 l 50 1065 l 66 1065 l 66 1059 l 72 1059 q 75 1039 75 1053 l 75 1039 q 71 1035 73 1039 l 71 1035 q 74 1032 73 1034 q 78 1028 76 1030 l 78 1028 q 74 1024 78 1026 q 69 1019 69 1022 z m 292 529 l 292 504 q 285 511 288 507 q 281 518 283 515 l 281 518 q 278 547 278 526 l 278 547 q 253 589 258 571 l 253 589 q 248 617 250 599 q 241 644 245 635 l 241 644 q 237 663 237 655 l 237 663 q 220 728 232 681 l 220 728 q 210 743 216 733 l 210 743 l 218 732 q 220 728 220 730 l 220 728 q 223 723 222 725 q 227 718 225 721 l 227 718 q 237 663 235 706 l 237 663 q 275 558 261 591 l 275 558 q 276 555 276 557 q 277 551 277 553 q 278 547 277 549 l 278 547 q 286 538 281 543 q 292 529 290 534 l 292 529 z m 481 87 l 481 87 q 461 74 477 79 l 461 74 l 461 68 q 475 62 472 68 l 475 62 q 473 58 475 61 q 472 54 472 56 l 472 54 l 453 54 q 449 73 453 60 q 444 96 444 85 l 444 96 q 453 98 447 98 l 453 98 l 453 93 l 467 93 l 467 115 q 475 101 467 107 q 484 92 484 94 l 484 92 q 481 87 484 90 z m 260 113 l 260 140 l 260 170 l 260 197 l 253 233 l 260 254 l 260 282 l 260 310 l 243 235 l 260 113 z "},"L":{"ha":517,"x_min":0,"x_max":492,"o":"m 0 903 l 0 833 l 5 876 l 0 903 z m 260 603 l 260 829 l 250 675 l 260 603 z m 243 558 l 260 433 l 260 490 l 248 631 l 243 558 z m 482 85 l 492 117 l 492 143 l 475 111 l 482 85 z m 481 78 l 482 68 l 485 75 l 482 85 l 481 78 z m 492 52 l 492 90 l 485 75 l 492 52 z m 0 416 l 0 347 l 3 403 l 0 416 z m 240 574 l 237 519 l 239 505 l 243 558 l 240 574 z m 471 118 l 472 109 l 475 111 l 471 121 l 471 118 z m 244 657 l 248 631 l 250 675 l 248 697 l 244 657 z m 14 914 l 11 937 l 5 876 l 9 848 l 14 914 z m 492 170 l 492 208 l 473 189 l 463 208 l 435 208 l 419 178 l 406 208 l 361 208 l 347 197 l 332 197 l 318 208 l 288 203 l 277 150 l 275 208 l 253 200 l 260 321 l 239 505 l 225 282 l 237 519 l 195 911 l 240 574 l 244 657 l 231 815 l 248 697 l 260 942 l 250 990 l 260 1054 l 260 1111 l 244 1103 l 228 1111 l 222 1089 l 205 1089 l 179 1111 l 146 1111 l 129 1095 l 114 1111 l 97 1111 l 83 1075 l 65 1111 l 49 1111 l 36 1100 l 17 1111 l 0 1111 l 0 1042 l 11 937 l 22 1032 l 14 914 l 39 693 l 9 848 l 0 694 l 0 625 l 5 564 l 7 536 l 11 635 l 11 479 l 28 225 l 11 342 l 11 203 l 0 139 l 0 0 l 31 0 l 45 60 l 58 25 l 71 33 l 79 5 l 138 14 l 195 3 l 233 17 l 277 0 l 301 11 l 378 5 l 378 98 l 400 0 l 431 17 l 461 0 l 492 0 l 492 26 l 482 68 l 465 28 l 481 78 l 472 109 l 443 54 l 471 118 l 463 153 l 471 121 l 492 170 z m 225 132 l 225 132 l 225 131 l 225 96 q 221 114 221 104 l 221 114 q 225 131 221 121 l 225 131 q 225 167 225 153 q 224 197 224 181 l 224 197 q 228 262 224 229 l 228 262 q 233 318 233 296 l 233 318 q 235 269 233 302 q 236 218 236 236 l 236 218 q 225 132 236 164 z m 11 479 l 7 536 l 3 403 l 11 342 l 11 479 z "},"M":{"ha":857,"x_min":0,"x_max":815,"o":"m 5 835 l 5 696 l 11 619 l 5 557 l 5 488 l 0 403 l 22 618 l 5 835 z m 571 453 l 571 363 l 576 310 l 571 272 l 571 138 l 585 322 l 571 453 z m 812 705 l 815 835 l 815 903 l 802 781 l 812 705 z m 799 804 l 798 786 l 800 762 l 802 781 l 799 804 z m 29 611 l 26 653 l 22 618 l 26 572 l 29 611 z m 787 653 l 798 786 l 782 917 l 799 804 l 815 1042 l 815 1111 l 778 1111 l 768 1100 l 734 1103 l 720 1111 l 703 1105 l 685 1105 l 663 1111 l 656 1061 l 642 1097 l 619 1080 l 610 1105 l 574 1105 l 547 1111 l 510 1111 l 504 1078 l 507 889 l 493 1011 l 424 575 l 422 575 l 421 575 l 418 575 l 416 575 l 415 575 l 414 575 l 416 518 l 411 575 l 406 456 l 407 575 l 406 575 l 404 575 l 403 575 l 401 575 l 399 575 l 397 575 l 355 843 l 346 732 l 345 909 l 314 1111 l 285 1100 l 275 1111 l 256 1111 l 231 1100 l 220 1080 l 197 1111 l 180 1103 l 149 1100 l 140 1111 l 102 1111 l 82 1092 l 62 1103 l 39 1057 l 25 1111 l 5 1111 l 5 972 l 26 653 l 45 827 l 29 611 l 57 205 l 26 572 l 5 281 l 5 3 l 21 3 l 25 57 l 45 8 l 66 3 l 83 11 l 98 11 l 113 3 l 129 3 l 154 0 l 160 47 l 175 3 l 191 3 l 200 5 l 216 20 l 236 3 l 252 3 l 252 135 l 228 406 l 252 224 l 252 710 l 294 400 l 304 441 l 315 329 l 314 268 l 350 3 l 371 3 l 379 41 l 385 3 l 406 3 l 410 25 l 419 3 l 440 3 l 446 71 l 454 3 l 461 3 l 475 93 l 481 231 l 489 183 l 489 256 l 501 272 l 515 363 l 521 633 l 529 453 l 571 722 l 571 543 l 587 347 l 604 582 l 589 326 l 602 163 l 587 302 l 571 47 l 571 3 l 602 3 l 618 41 l 632 3 l 663 3 l 681 14 l 693 3 l 708 3 l 722 41 l 741 14 l 760 98 l 770 3 l 781 17 l 796 17 l 815 3 l 815 211 l 799 264 l 807 346 l 815 418 l 815 627 l 800 762 l 787 653 z m 235 1039 l 235 1039 q 228 1038 233 1038 l 228 1038 q 223 1023 228 1031 q 218 1010 219 1015 l 218 1010 q 228 1003 228 1010 l 228 1003 q 226 989 228 998 q 224 978 224 980 l 224 978 l 216 971 q 210 975 210 971 l 210 975 q 212 981 210 975 q 214 993 214 987 l 214 993 q 209 1004 213 996 q 205 1021 205 1012 l 205 1021 q 222 1053 210 1050 l 222 1053 q 229 1052 224 1052 q 236 1050 234 1052 l 236 1050 q 236 1044 236 1046 q 235 1039 235 1042 z m 589 326 l 587 347 l 585 322 l 587 302 l 589 326 z "},"N":{"ha":668,"x_min":0,"x_max":636,"o":"m 0 488 l 0 418 l 4 464 l 0 488 z m 12 496 l 9 519 l 4 464 l 8 439 l 12 496 z m 627 568 l 636 1042 l 627 1083 l 621 1111 l 575 1111 l 553 1100 l 539 1061 l 529 1111 l 498 1111 l 493 1105 l 478 1105 l 453 1111 l 392 1111 l 392 947 l 399 900 l 392 882 l 392 587 l 313 850 l 309 812 l 293 916 l 233 1111 l 189 1111 l 179 1026 l 170 1108 l 146 1111 l 131 1105 l 117 1111 l 100 1097 l 87 1111 l 72 1111 l 43 1108 l 49 1048 l 29 1111 l 0 1111 l 1 794 l 20 974 l 17 779 l 40 879 l 5 667 l 28 734 l 0 627 l 9 519 l 18 604 l 12 496 l 26 340 l 8 439 l 0 281 l 0 72 l 4 22 l 16 3 l 31 3 l 43 11 l 64 20 l 64 0 l 92 3 l 109 14 l 122 3 l 168 3 l 191 39 l 199 14 l 207 68 l 215 5 l 244 3 l 244 199 l 237 225 l 244 264 l 244 297 l 237 335 l 244 363 l 244 526 l 310 330 l 294 464 l 330 264 l 374 134 l 392 118 l 395 68 l 406 36 l 392 12 l 443 5 l 432 39 l 452 22 l 471 14 l 485 3 l 498 3 l 511 11 l 526 3 l 539 14 l 554 3 l 575 7 l 575 24 l 591 53 l 597 3 l 624 3 l 636 72 l 636 211 l 629 298 l 636 349 l 636 903 l 627 568 z m 490 1032 l 490 1032 q 479 1026 488 1026 l 479 1026 q 461 1032 467 1026 l 461 1032 q 459 1038 459 1035 q 457 1043 459 1042 l 457 1043 q 463 1049 457 1044 q 469 1057 469 1055 l 469 1057 l 452 1051 l 452 1040 l 446 1040 l 432 1035 q 435 1069 432 1067 l 435 1069 q 446 1072 439 1072 l 446 1072 q 472 1065 454 1072 l 472 1065 q 494 1048 494 1065 l 494 1048 q 490 1032 494 1036 z "},"O":{"ha":671,"x_min":0,"x_max":639,"o":"m 627 541 l 628 511 l 629 532 l 628 562 l 627 541 z m 639 363 l 639 652 l 629 532 l 639 363 z m 14 436 l 11 468 l 9 452 l 12 418 l 14 436 z m 635 832 l 639 890 l 639 939 l 596 982 l 591 897 l 575 1004 l 543 1036 l 528 1026 l 517 1021 l 511 1068 l 468 1111 l 450 1111 l 429 1092 l 412 1111 l 395 1111 l 358 1108 l 358 1048 l 339 1111 l 311 1100 l 301 1111 l 283 1111 l 257 1100 l 245 1111 l 172 1111 l 161 1100 l 153 1000 l 150 1078 l 129 1068 l 97 1036 l 93 994 l 82 1010 l 64 1004 l 32 971 l 20 895 l 11 950 l 0 939 l 0 775 l 11 721 l 0 699 l 11 468 l 26 595 l 14 436 l 22 249 l 12 418 l 0 267 l 0 171 l 9 160 l 26 155 l 31 139 l 50 117 l 60 167 l 71 96 l 81 85 l 110 77 l 100 64 l 111 53 l 126 52 l 134 85 l 140 21 l 161 0 l 180 0 l 203 22 l 218 0 l 237 0 l 268 11 l 282 39 l 294 0 l 314 0 l 347 3 l 358 14 l 372 0 l 392 0 l 410 20 l 437 3 l 449 14 l 468 0 l 489 21 l 503 65 l 503 49 l 521 53 l 564 96 l 579 161 l 585 117 l 628 160 l 639 218 l 639 267 l 628 511 l 615 347 l 627 541 l 615 799 l 628 562 l 639 747 l 635 783 l 635 832 z m 399 364 l 383 558 l 379 468 l 389 288 l 378 443 l 368 293 l 368 208 l 350 208 l 345 144 l 340 201 l 339 186 l 326 208 l 319 208 l 317 180 l 309 208 l 302 161 l 296 208 l 271 208 l 261 326 l 249 257 l 249 300 l 257 378 l 254 411 l 258 386 l 271 507 l 260 624 l 271 593 l 271 635 l 262 659 l 262 701 l 271 764 l 271 892 l 283 892 l 288 925 l 296 892 l 314 892 l 321 964 l 326 892 l 332 892 l 345 908 l 345 892 l 350 892 l 353 900 l 370 908 l 380 892 l 358 840 l 385 593 l 392 708 l 385 579 l 399 364 z m 509 175 l 509 175 q 503 161 509 164 l 503 161 l 503 150 q 497 147 497 150 l 497 147 q 511 378 511 254 l 511 378 q 507 452 509 404 q 503 525 506 500 l 503 525 q 496 608 496 595 l 496 608 q 503 671 496 635 l 503 671 q 508 705 506 687 q 510 739 509 724 q 510 774 510 753 q 511 812 511 795 l 511 812 l 517 812 q 514 707 515 755 q 514 591 514 659 q 513 457 514 524 q 511 351 513 391 l 511 351 q 513 343 513 346 q 514 336 513 340 l 514 336 q 516 328 515 334 q 519 321 518 322 l 519 321 q 509 175 519 222 z m 271 293 l 271 379 l 264 342 l 271 293 z m 385 579 l 385 593 l 383 574 l 383 558 l 385 579 z m 264 342 l 258 386 l 257 378 l 261 326 l 264 342 z m 368 764 l 368 635 l 378 496 l 383 574 l 368 764 z m 0 603 l 0 363 l 9 452 l 0 603 z m 378 496 l 375 468 l 378 443 l 379 468 l 378 496 z m 368 550 l 368 379 l 375 468 l 368 550 z "},"P":{"ha":625,"x_min":0,"x_max":624,"o":"m 9 1003 l 8 1018 l 3 949 l 7 932 l 9 1003 z m 0 623 l 0 0 l 9 411 l 0 623 z m 0 966 l 0 899 l 3 949 l 0 966 z m 16 372 l 11 463 l 9 411 l 16 322 l 16 372 z m 264 742 l 262 757 l 261 749 l 262 734 l 264 742 z m 382 730 l 378 755 l 376 758 l 375 743 l 376 732 l 382 730 z m 269 673 l 269 774 l 264 742 l 269 673 z m 375 743 l 374 750 l 372 733 l 374 732 l 375 743 z m 624 947 l 590 977 l 582 960 l 582 975 l 559 979 l 545 1017 l 534 1015 l 521 1036 l 498 1055 l 489 1053 l 475 1076 l 441 1105 l 414 1105 l 401 1083 l 376 1092 l 359 1111 l 285 1105 l 277 1089 l 249 1089 l 254 1105 l 193 1105 l 139 1103 l 134 1067 l 122 1064 l 122 1103 l 54 1100 l 28 1105 l 0 1105 l 8 1018 l 12 1086 l 9 1003 l 24 835 l 7 932 l 0 760 l 11 463 l 18 710 l 16 372 l 26 87 l 16 322 l 12 3 l 50 0 l 118 0 l 136 11 l 151 0 l 168 0 l 195 3 l 220 0 l 225 77 l 236 0 l 269 0 l 269 97 l 262 123 l 269 146 l 269 243 l 262 267 l 269 290 l 269 364 l 257 387 l 277 401 l 293 387 l 339 387 l 349 396 l 363 387 l 385 387 l 411 390 l 419 429 l 422 393 l 431 387 l 454 387 l 528 457 l 546 517 l 550 476 l 582 507 l 590 528 l 603 526 l 624 546 l 624 621 l 610 648 l 618 673 l 624 697 l 624 772 l 618 800 l 624 822 l 624 947 z m 397 637 l 376 732 l 374 732 l 368 654 l 368 615 l 376 591 l 363 595 l 345 595 l 338 509 l 332 595 l 313 595 l 307 575 l 301 595 l 282 595 l 282 578 l 269 595 l 269 635 l 262 734 l 254 690 l 261 749 l 254 852 l 262 757 l 269 812 l 269 892 l 253 913 l 269 921 l 282 911 l 313 911 l 318 943 l 325 911 l 338 911 l 338 932 l 350 911 l 368 911 l 368 812 l 375 772 l 385 895 l 376 764 l 378 755 l 390 729 l 382 730 l 397 637 z m 374 762 l 368 774 l 374 750 l 374 762 z m 368 733 l 368 694 l 372 733 l 368 733 z m 374 762 l 376 758 l 376 764 l 375 772 l 374 762 z "},"Q":{"ha":671,"x_min":0,"x_max":639,"o":"m 460 1111 l 479 1111 l 489 1101 l 501 1015 l 513 1054 l 519 1071 l 539 1051 l 543 1028 l 558 1032 l 570 1022 l 578 961 l 589 1002 l 599 991 l 608 977 l 614 832 l 628 962 l 639 951 l 632 899 l 632 856 l 639 819 l 639 775 l 629 708 l 639 686 l 639 597 l 632 510 l 639 510 l 639 465 l 632 414 l 619 385 l 639 332 l 639 243 l 618 224 l 604 292 l 604 210 l 597 203 l 585 207 l 583 189 l 576 182 l 568 204 l 562 170 l 528 135 l 570 135 l 579 79 l 583 135 l 604 135 l 610 110 l 618 135 l 632 135 l 628 123 l 639 126 l 639 93 l 632 82 l 639 77 l 639 68 l 627 54 l 627 46 l 639 41 l 639 0 l 611 22 l 597 5 l 551 0 l 522 0 l 496 41 l 488 3 l 437 28 l 406 0 l 376 0 l 345 20 l 307 0 l 288 41 l 260 0 l 172 0 l 161 11 l 155 82 l 140 32 l 118 53 l 118 87 l 96 87 l 96 110 l 75 96 l 43 127 l 33 228 l 21 149 l 0 171 l 0 218 l 31 815 l 0 315 l 0 507 l 11 471 l 0 603 l 0 747 l 33 245 l 0 843 l 0 939 l 11 950 l 25 950 l 32 971 l 54 993 l 71 970 l 79 996 l 86 1025 l 97 1036 l 110 1038 l 118 1057 l 140 1079 l 149 1051 l 161 1100 l 172 1111 l 211 1111 l 244 1103 l 252 1072 l 268 1111 l 307 1111 l 326 1089 l 345 1105 l 364 1111 l 378 1103 l 403 1111 l 431 1103 l 440 1075 l 460 1111 z m 375 208 l 382 208 l 382 252 l 410 85 l 380 307 l 386 364 l 386 407 l 382 468 l 382 513 l 395 810 l 382 599 l 382 729 l 408 564 l 382 817 l 382 860 l 386 892 l 375 903 l 361 903 l 351 953 l 340 903 l 334 903 l 322 917 l 313 908 l 306 940 l 298 903 l 271 903 l 244 414 l 271 817 l 271 686 l 264 646 l 271 599 l 271 555 l 249 810 l 271 468 l 271 382 l 265 330 l 271 294 l 271 252 l 262 216 l 257 199 l 275 211 l 292 208 l 298 208 l 302 138 l 313 208 l 321 186 l 326 208 l 334 208 l 345 180 l 349 201 l 354 208 l 361 208 l 364 183 l 375 208 z "},"R":{"ha":659,"x_min":0,"x_max":627,"o":"m 627 951 l 615 962 l 602 905 l 595 921 l 593 972 l 574 994 l 568 956 l 562 1003 l 534 1032 l 524 1042 l 501 1059 l 503 1017 l 489 1071 l 478 1082 l 467 1092 l 464 1082 l 443 1111 l 415 1111 l 387 1111 l 357 1105 l 332 1111 l 306 1111 l 278 1111 l 250 1111 l 204 1103 l 195 1111 l 167 1111 l 139 1111 l 119 1105 l 83 1111 l 56 1111 l 37 1108 l 0 1111 l 0 1042 l 12 624 l 37 1080 l 14 564 l 26 96 l 12 534 l 0 278 l 0 208 l 0 139 l 0 69 l 0 0 l 17 0 l 35 14 l 49 0 l 65 0 l 81 0 l 97 0 l 114 5 l 119 25 l 146 0 l 163 0 l 179 0 l 195 0 l 224 0 l 233 28 l 243 0 l 260 0 l 260 28 l 260 57 l 260 85 l 253 107 l 260 142 l 260 170 l 260 197 l 250 225 l 260 254 l 260 282 l 260 311 l 253 339 l 260 367 l 260 396 l 260 424 l 260 452 l 267 452 l 273 452 l 281 452 l 288 452 l 307 482 l 315 452 l 309 452 l 315 452 l 322 452 l 332 468 l 330 522 l 343 452 l 350 452 l 357 452 l 379 457 l 371 452 l 371 424 l 371 396 l 376 364 l 371 339 l 371 311 l 371 282 l 371 254 l 371 227 l 371 197 l 382 228 l 371 142 l 371 113 l 371 85 l 371 57 l 371 28 l 371 0 l 386 0 l 404 93 l 401 3 l 425 17 l 433 5 l 458 5 l 478 17 l 494 8 l 515 0 l 518 8 l 538 25 l 562 0 l 579 0 l 595 0 l 611 14 l 627 0 l 627 28 l 627 57 l 619 82 l 627 113 l 627 142 l 627 170 l 627 197 l 614 225 l 616 249 l 627 282 l 627 311 l 627 339 l 627 367 l 627 396 l 627 424 l 627 452 l 618 458 l 610 465 l 602 472 l 599 436 l 599 467 l 576 493 l 568 498 l 559 505 l 551 513 l 543 519 l 546 481 l 532 498 l 518 541 l 510 547 l 500 554 l 492 561 l 500 567 l 510 572 l 518 579 l 526 585 l 534 590 l 543 597 l 551 603 l 551 627 l 568 615 l 559 643 l 568 648 l 593 633 l 602 640 l 610 646 l 618 652 l 627 659 l 627 676 l 627 694 l 627 713 l 627 732 l 627 750 l 616 766 l 627 786 l 627 806 l 627 823 l 616 835 l 627 860 l 627 878 l 627 897 l 627 916 l 627 933 l 627 951 z m 390 895 l 371 827 l 371 811 l 379 761 l 371 781 l 371 765 l 371 750 l 371 734 l 371 720 l 371 704 l 371 689 l 371 673 l 387 648 l 363 646 l 357 659 l 350 659 l 343 659 l 334 648 l 329 659 l 329 632 l 315 659 l 309 659 l 301 659 l 292 603 l 281 643 l 273 659 l 267 659 l 260 659 l 260 673 l 260 689 l 260 704 l 248 684 l 260 734 l 260 750 l 260 765 l 244 821 l 260 796 l 260 811 l 260 827 l 260 842 l 241 876 l 260 872 l 260 888 l 260 903 l 267 903 l 285 917 l 281 903 l 288 903 l 294 903 l 301 903 l 301 920 l 315 903 l 322 903 l 329 903 l 335 945 l 346 917 l 350 903 l 357 903 l 364 903 l 371 903 l 371 888 l 371 872 l 371 857 l 390 895 z m 0 903 l 0 833 l 0 764 l 0 694 l 0 625 l 0 555 l 0 486 l 0 416 l 9 595 l 0 903 z m 14 564 l 12 624 l 9 595 l 12 534 l 14 564 z "},"S":{"ha":664,"x_min":0,"x_max":632,"o":"m 611 772 l 603 781 l 603 765 l 572 765 l 557 781 l 549 821 l 541 772 l 511 765 l 481 765 l 475 778 l 450 765 l 443 786 l 406 766 l 400 848 l 387 765 l 372 765 l 372 821 l 380 828 l 380 875 l 372 885 l 372 913 l 364 924 l 359 913 l 347 913 l 340 926 l 334 926 l 321 920 l 315 926 l 302 926 l 297 913 l 272 913 l 272 899 l 245 778 l 272 869 l 272 854 l 250 754 l 250 681 l 273 811 l 273 724 l 245 872 l 273 694 l 273 679 l 285 679 l 292 583 l 307 679 l 350 679 l 368 667 l 371 679 l 403 677 l 418 669 l 425 677 l 446 677 l 458 667 l 468 610 l 481 646 l 504 624 l 511 604 l 528 603 l 539 591 l 554 485 l 562 570 l 586 549 l 597 538 l 608 490 l 611 515 l 632 505 l 632 484 l 612 229 l 632 440 l 632 224 l 615 488 l 632 180 l 632 160 l 623 149 l 608 165 l 602 129 l 591 119 l 581 117 l 571 107 l 561 89 l 551 79 l 538 79 l 532 83 l 530 109 l 521 58 l 501 29 l 484 40 l 481 9 l 471 0 l 436 1 l 437 17 l 415 0 l 397 0 l 357 4 l 350 40 l 342 0 l 322 0 l 304 14 l 293 5 l 267 0 l 229 0 l 214 5 l 195 5 l 174 0 l 153 22 l 143 82 l 138 37 l 119 54 l 97 75 l 87 176 l 86 92 l 65 109 l 61 125 l 50 136 l 32 140 l 21 197 l 18 158 l 0 172 l 0 210 l 8 210 l 8 221 l 7 225 l 7 262 l 8 258 l 8 296 l 0 319 l 0 370 l 17 370 l 33 363 l 52 370 l 69 347 l 85 370 l 119 370 l 151 368 l 158 329 l 171 370 l 187 370 l 201 358 l 225 366 l 237 347 l 256 370 l 272 370 l 272 359 l 264 309 l 272 322 l 272 286 l 224 77 l 271 248 l 272 222 l 292 222 l 298 146 l 304 222 l 322 222 l 330 196 l 335 222 l 347 222 l 351 171 l 359 222 l 372 222 l 372 235 l 380 387 l 372 262 l 372 376 l 403 241 l 372 429 l 372 443 l 357 449 l 346 486 l 340 450 l 326 443 l 304 443 l 293 452 l 277 446 l 264 458 l 258 443 l 211 443 l 201 456 l 189 443 l 176 454 l 171 509 l 163 469 l 129 501 l 132 518 l 114 521 l 97 574 l 87 543 l 58 572 l 49 604 l 35 595 l 0 631 l 0 690 l 3 694 l 3 714 l 0 750 l 0 869 l 21 693 l 0 908 l 0 949 l 9 958 l 28 960 l 31 979 l 50 999 l 61 1000 l 72 914 l 81 1029 l 121 1069 l 129 1019 l 140 1089 l 161 1109 l 179 1109 l 192 1103 l 216 1109 l 235 1109 l 256 1103 l 275 1022 l 269 1103 l 310 1109 l 328 1109 l 349 1097 l 366 1109 l 386 1111 l 408 1082 l 418 1060 l 439 1109 l 458 1109 l 468 1100 l 479 1000 l 486 1060 l 509 1064 l 528 1044 l 542 982 l 549 1026 l 589 989 l 593 946 l 608 971 l 618 961 l 618 937 l 606 825 l 618 913 l 618 839 l 603 924 l 618 814 l 618 789 l 611 772 z "},"T":{"ha":576,"x_min":0,"x_max":550,"o":"m 0 1023 l 0 1010 l 0 996 l 0 983 l 0 970 l 8 985 l 0 1023 z m 550 1105 l 515 1105 l 481 1105 l 476 1061 l 452 1075 l 440 1075 l 427 1108 l 359 1105 l 293 1109 l 282 1057 l 277 1107 l 172 1105 l 107 1108 l 96 1089 l 75 1078 l 61 1111 l 0 1105 l 0 1092 l 0 1078 l 0 1065 l 0 1051 l 11 990 l 11 991 l 24 1060 l 14 997 l 33 1036 l 12 978 l 25 907 l 11 972 l 11 971 l 0 901 l 0 888 l 9 888 l 18 888 l 26 884 l 36 888 l 46 888 l 54 888 l 64 895 l 72 888 l 82 888 l 90 888 l 92 897 l 107 893 l 118 888 l 127 888 l 136 888 l 146 888 l 146 832 l 146 777 l 149 718 l 146 665 l 146 610 l 165 354 l 180 542 l 167 334 l 178 195 l 165 310 l 160 225 l 168 136 l 158 197 l 146 0 l 176 1 l 174 37 l 195 0 l 210 0 l 227 0 l 243 0 l 260 8 l 277 17 l 282 4 l 307 0 l 323 0 l 355 1 l 372 32 l 378 8 l 387 0 l 404 0 l 404 56 l 401 117 l 404 167 l 404 222 l 393 403 l 387 241 l 392 414 l 380 606 l 393 456 l 395 509 l 386 628 l 396 554 l 404 832 l 400 892 l 412 888 l 422 888 l 440 888 l 444 896 l 456 899 l 460 925 l 468 888 l 476 888 l 486 888 l 494 888 l 504 888 l 513 895 l 522 888 l 532 888 l 541 888 l 542 899 l 550 901 l 550 916 l 550 928 l 550 942 l 545 958 l 542 945 l 543 961 l 539 977 l 545 972 l 550 1010 l 550 1023 l 550 1038 l 550 1051 l 545 1067 l 550 1078 l 550 1092 l 550 1105 z m 351 193 l 351 193 q 349 205 351 198 q 345 212 348 212 l 345 212 l 345 144 q 346 140 345 144 q 347 135 347 137 l 347 135 q 345 87 347 104 l 345 87 q 343 76 344 81 q 342 64 343 71 l 342 64 q 343 57 343 61 l 343 57 l 343 29 l 342 36 l 342 64 q 334 129 334 109 l 334 129 q 345 163 334 134 l 345 163 q 343 169 344 165 q 343 176 343 172 q 342 182 342 180 l 342 182 q 340 286 340 218 l 340 286 q 345 290 340 286 l 345 290 l 345 267 q 351 193 351 235 z m 395 444 l 404 334 l 404 389 l 396 493 l 395 444 z m 0 942 l 0 928 l 5 956 l 0 942 z m 146 278 l 146 222 l 146 167 l 146 94 l 154 221 l 146 278 z m 164 330 l 146 498 l 147 427 l 146 389 l 157 256 l 164 330 z m 11 974 l 11 972 l 12 978 l 12 982 l 14 997 l 11 991 l 11 989 l 11 990 l 8 985 l 9 981 l 5 956 l 11 971 l 11 974 z m 160 225 l 157 256 l 154 221 l 158 197 l 160 225 z m 165 310 l 167 334 l 165 354 l 164 330 l 165 310 z m 550 970 l 550 983 l 547 971 l 550 970 z m 395 509 l 396 493 l 397 543 l 396 554 l 395 509 z m 393 456 l 392 414 l 393 403 l 395 444 l 393 456 z m 543 961 l 545 958 l 547 971 l 545 972 l 543 961 z m 404 498 l 404 554 l 404 610 l 404 665 l 404 721 l 397 543 l 404 498 z "},"U":{"ha":682,"x_min":0,"x_max":650,"o":"m 650 524 l 650 582 l 647 640 l 650 700 l 650 817 l 639 633 l 650 524 z m 380 942 l 380 885 l 385 812 l 380 772 l 380 715 l 389 829 l 380 942 z m 269 490 l 269 603 l 265 673 l 269 715 l 269 885 l 256 675 l 269 490 z m 0 876 l 0 640 l 11 720 l 0 876 z m 392 839 l 390 861 l 389 829 l 390 806 l 392 839 z m 16 711 l 14 739 l 11 720 l 14 686 l 16 711 z m 636 618 l 637 596 l 639 633 l 637 656 l 636 618 z m 633 1111 l 618 1100 l 599 1111 l 583 1060 l 572 1092 l 549 1111 l 515 1111 l 498 1100 l 481 1111 l 464 1111 l 449 1100 l 432 1100 l 414 1111 l 380 1111 l 380 1054 l 390 861 l 397 958 l 392 839 l 403 627 l 390 806 l 380 603 l 380 433 l 386 395 l 389 310 l 380 264 l 380 208 l 374 208 l 367 158 l 355 180 l 343 195 l 330 195 l 318 208 l 290 208 l 286 180 l 277 208 l 269 208 l 269 264 l 235 28 l 269 378 l 253 643 l 225 249 l 252 676 l 235 942 l 253 707 l 269 999 l 271 1089 l 260 1100 l 253 1111 l 236 1111 l 220 1095 l 203 1111 l 184 1111 l 167 1097 l 147 1080 l 147 1111 l 102 1111 l 87 1103 l 71 1103 l 50 1111 l 39 1108 l 22 1108 l 0 1111 l 0 993 l 14 739 l 22 802 l 16 711 l 28 473 l 14 686 l 0 524 l 0 406 l 8 325 l 8 265 l 0 229 l 0 171 l 24 149 l 41 150 l 46 127 l 53 132 l 69 107 l 92 85 l 98 107 l 113 77 l 126 53 l 138 43 l 161 25 l 164 115 l 172 11 l 183 0 l 277 0 l 282 22 l 298 0 l 338 0 l 358 11 l 375 0 l 406 3 l 414 39 l 433 0 l 490 0 l 500 11 l 510 150 l 521 32 l 550 64 l 558 87 l 570 98 l 570 121 l 590 107 l 610 127 l 621 252 l 631 149 l 650 171 l 650 406 l 637 596 l 627 397 l 636 618 l 624 807 l 637 656 l 650 935 l 646 985 l 650 1053 l 650 1111 l 633 1111 z m 147 1013 l 147 1013 q 143 1012 144 1013 q 140 1010 142 1011 q 134 1008 138 1010 l 134 1008 q 126 1013 130 1008 l 126 1013 l 132 1013 l 132 1040 q 136 1042 134 1040 q 140 1043 139 1043 l 140 1043 l 140 1051 q 146 1050 143 1051 q 153 1048 150 1048 l 153 1048 q 147 1013 153 1015 z m 252 676 l 253 643 l 256 675 l 253 707 l 252 676 z "},"V":{"ha":724,"x_min":0,"x_max":689,"o":"m 689 1111 l 639 1111 l 621 1065 l 618 1108 l 587 1111 l 575 1100 l 558 1100 l 538 1111 l 521 1111 l 498 1089 l 486 1111 l 471 1092 l 452 1080 l 436 1111 l 419 1111 l 411 1006 l 406 621 l 403 900 l 355 268 l 354 268 l 353 268 l 351 268 l 350 268 l 349 268 l 347 268 l 346 268 l 345 268 l 343 268 l 342 268 l 340 268 l 339 268 l 338 268 l 336 268 l 335 268 l 334 268 l 310 585 l 301 313 l 301 689 l 269 1111 l 253 1111 l 235 1103 l 220 1111 l 203 1111 l 189 1040 l 183 1103 l 151 1111 l 118 1111 l 98 1100 l 85 1111 l 68 1111 l 49 1075 l 33 1111 l 0 1111 l 9 1042 l 31 958 l 40 889 l 37 833 l 121 208 l 102 624 l 140 69 l 150 0 l 178 14 l 199 0 l 254 3 l 254 68 l 271 20 l 286 0 l 330 8 l 346 0 l 397 8 l 411 52 l 418 0 l 457 3 l 496 3 l 496 113 l 517 0 l 541 0 l 568 208 l 612 857 l 587 347 l 689 1111 z "},"W":{"ha":942,"x_min":0,"x_max":897,"o":"m 46 833 l 81 625 l 94 553 l 103 486 l 126 347 l 100 572 l 46 833 z m 533 742 l 514 909 l 514 818 l 533 742 z m 489 227 l 486 241 l 486 225 l 490 210 l 489 227 z m 510 814 l 514 796 l 514 818 l 510 835 l 510 814 z m 821 775 l 815 749 l 810 701 l 817 730 l 821 775 z m 718 339 l 815 749 l 836 920 l 821 775 l 885 1042 l 897 1111 l 864 1111 l 850 1095 l 832 1111 l 815 1111 l 804 1103 l 787 1086 l 768 1111 l 751 1111 l 736 1097 l 721 1097 l 703 1111 l 688 1111 l 675 1057 l 659 1105 l 639 1111 l 629 1044 l 625 758 l 619 977 l 564 574 l 562 574 l 561 574 l 559 574 l 558 574 l 557 574 l 555 574 l 554 574 l 553 574 l 541 673 l 514 796 l 515 635 l 510 814 l 478 961 l 510 835 l 505 977 l 490 1111 l 467 1111 l 464 1078 l 454 1111 l 449 1111 l 447 1092 l 436 1111 l 424 1111 l 416 956 l 411 1111 l 393 1111 l 378 977 l 383 932 l 379 899 l 367 876 l 332 574 l 330 574 l 329 574 l 328 574 l 326 574 l 325 574 l 323 574 l 322 574 l 321 574 l 319 574 l 318 574 l 278 876 l 281 714 l 277 747 l 264 977 l 250 1078 l 249 1097 l 233 1097 l 221 1054 l 203 1097 l 183 1111 l 168 1111 l 167 1103 l 138 1111 l 122 1111 l 111 1092 l 94 1065 l 97 1108 l 61 1111 l 46 1111 l 41 1100 l 26 1100 l 0 1111 l 24 972 l 96 607 l 69 827 l 102 574 l 184 155 l 107 536 l 149 208 l 183 0 l 203 22 l 208 0 l 244 0 l 254 20 l 267 20 l 282 0 l 318 0 l 335 17 l 346 60 l 355 0 l 380 0 l 393 115 l 393 191 l 385 271 l 403 203 l 411 289 l 404 454 l 418 347 l 431 463 l 432 463 l 433 463 l 435 463 l 436 463 l 437 463 l 440 463 l 441 463 l 443 463 l 444 463 l 446 463 l 447 463 l 449 463 l 450 463 l 452 463 l 453 463 l 454 463 l 467 347 l 486 241 l 484 375 l 489 227 l 509 118 l 490 210 l 494 87 l 504 0 l 515 0 l 529 85 l 541 0 l 566 0 l 585 14 l 602 0 l 614 0 l 625 14 l 642 31 l 652 0 l 664 0 l 669 22 l 688 0 l 700 0 l 713 69 l 718 158 l 737 208 l 774 416 l 810 701 l 718 339 z m 606 484 l 606 484 q 608 323 606 378 l 608 323 q 614 271 608 288 l 614 271 q 602 296 606 284 l 602 296 q 599 347 599 330 l 599 347 q 602 411 599 371 q 606 484 605 450 l 606 484 q 608 635 608 533 l 608 635 l 616 652 q 612 569 616 624 q 606 484 607 513 z m 799 555 l 823 694 l 828 734 l 847 833 l 860 903 l 817 730 l 799 555 z m 473 289 l 489 144 l 486 225 l 473 289 z m 102 574 l 96 607 l 100 572 l 107 536 l 102 574 z "},"X":{"ha":775,"x_min":0,"x_max":737,"o":"m 737 0 l 654 215 l 648 158 l 627 286 l 612 322 l 600 318 l 585 395 l 571 431 l 558 446 l 553 363 l 529 538 l 515 574 l 593 775 l 619 933 l 619 842 l 725 1111 l 690 1111 l 657 1108 l 646 1054 l 640 1111 l 607 1111 l 589 1095 l 561 1105 l 555 1069 l 539 1111 l 510 1108 l 501 1057 l 489 1111 l 454 1111 l 444 1074 l 439 947 l 433 1035 l 383 863 l 349 465 l 372 825 l 367 806 l 366 806 l 364 806 l 363 806 l 361 806 l 359 806 l 358 806 l 357 806 l 355 806 l 318 958 l 313 851 l 310 997 l 281 1111 l 264 1111 l 253 1040 l 241 1108 l 214 1111 l 200 1097 l 189 1072 l 163 1111 l 129 1111 l 118 1100 l 102 1092 l 79 1111 l 11 1111 l 77 943 l 92 929 l 96 982 l 117 842 l 168 708 l 192 665 l 186 799 l 208 607 l 221 574 l 193 501 l 151 245 l 165 431 l 0 0 l 33 0 l 58 14 l 68 0 l 104 8 l 110 31 l 132 3 l 149 3 l 160 85 l 168 0 l 203 0 l 233 3 l 239 31 l 253 0 l 269 0 l 281 36 l 290 155 l 292 74 l 323 183 l 326 347 l 335 220 l 355 293 l 357 293 l 358 293 l 359 293 l 361 293 l 363 293 l 364 293 l 366 293 l 367 293 l 435 92 l 425 228 l 447 54 l 467 0 l 500 0 l 510 20 l 529 3 l 551 0 l 570 14 l 585 0 l 602 0 l 614 25 l 636 0 l 668 3 l 663 74 l 686 0 l 737 0 z "},"Y":{"ha":749,"x_min":0,"x_max":713,"o":"m 492 119 l 492 386 l 482 229 l 492 119 z m 235 321 l 235 325 l 233 297 l 233 292 l 235 321 z m 222 386 l 222 119 l 233 297 l 222 386 z m 481 222 l 481 211 l 482 229 l 482 240 l 481 222 z m 713 1111 l 696 1111 l 684 1097 l 663 1111 l 646 1111 l 631 1100 l 612 1078 l 612 1105 l 578 1111 l 511 1111 l 517 1092 l 503 1069 l 484 1092 l 467 1092 l 463 1067 l 436 1063 l 424 989 l 421 770 l 416 940 l 382 721 l 380 721 l 379 721 l 378 721 l 376 721 l 375 721 l 374 721 l 372 721 l 371 721 l 370 721 l 368 721 l 300 989 l 309 799 l 289 1038 l 269 1111 l 253 1111 l 232 1103 l 218 1083 l 203 1111 l 168 1111 l 142 1108 l 136 972 l 118 1111 l 68 1111 l 56 1078 l 40 1100 l 17 1111 l 0 1111 l 69 913 l 100 848 l 114 810 l 111 793 l 153 675 l 136 917 l 165 646 l 195 555 l 222 476 l 222 446 l 235 325 l 237 389 l 235 321 l 261 54 l 233 292 l 222 60 l 222 0 l 239 0 l 254 22 l 273 0 l 307 0 l 328 20 l 339 8 l 357 0 l 392 0 l 421 28 l 427 52 l 437 17 l 458 0 l 492 0 l 492 60 l 481 211 l 472 62 l 481 222 l 469 378 l 482 240 l 492 446 l 492 476 l 547 635 l 576 928 l 566 693 l 589 754 l 603 793 l 611 839 l 625 879 l 644 913 l 659 953 l 677 1069 l 686 1032 l 713 1111 z m 363 443 l 363 443 q 354 564 363 500 l 354 564 q 351 653 351 593 l 351 653 q 347 766 347 709 l 347 766 l 357 755 q 355 711 355 741 q 354 665 355 681 l 354 665 q 353 660 353 663 q 351 653 353 657 l 351 653 q 363 443 363 502 z "},"Z":{"ha":708,"x_min":0,"x_max":673,"o":"m 97 1099 l 97 1111 l 176 1111 l 215 1105 l 224 958 l 227 1111 l 411 1111 l 457 1103 l 471 1035 l 489 1111 l 515 1111 l 545 1075 l 547 1038 l 566 1050 l 595 1014 l 610 970 l 619 935 l 625 978 l 644 953 l 660 909 l 664 928 l 673 917 l 652 872 l 610 822 l 587 778 l 582 739 l 559 694 l 509 607 l 514 663 l 468 559 l 468 518 l 399 385 l 350 296 l 353 361 l 330 253 l 307 208 l 326 208 l 347 96 l 347 200 l 383 208 l 441 208 l 460 195 l 481 164 l 481 200 l 518 208 l 555 200 l 564 164 l 575 208 l 614 208 l 614 182 l 590 25 l 614 155 l 614 52 l 596 172 l 614 26 l 614 0 l 555 0 l 492 5 l 484 68 l 468 0 l 410 0 l 378 20 l 358 5 l 322 0 l 264 0 l 207 5 l 201 39 l 176 0 l 147 0 l 119 36 l 117 200 l 102 61 l 65 110 l 60 186 l 46 134 l 0 195 l 138 461 l 139 406 l 183 549 l 275 726 l 322 783 l 330 720 l 345 859 l 367 903 l 199 903 l 170 930 l 167 1060 l 149 903 l 97 903 l 97 929 l 111 1086 l 97 956 l 97 1034 l 125 939 l 97 1060 l 97 1072 l 111 928 l 97 1099 z "},"`":{"ha":211,"x_min":14,"x_max":176,"o":"m 14 943 l 14 933 l 20 922 l 25 909 l 31 897 l 36 885 l 39 936 l 47 861 l 53 848 l 60 846 l 65 833 l 69 811 l 75 800 l 81 787 l 86 831 l 92 762 l 97 750 l 103 739 l 107 742 l 111 746 l 115 750 l 119 754 l 123 758 l 127 762 l 132 766 l 136 770 l 140 774 l 143 778 l 147 782 l 151 786 l 155 790 l 160 794 l 164 799 l 168 802 l 165 808 l 161 814 l 157 821 l 154 827 l 149 812 l 147 839 l 143 846 l 140 851 l 136 859 l 134 864 l 131 818 l 125 876 l 122 882 l 118 889 l 115 895 l 111 901 l 115 901 l 119 901 l 123 901 l 131 933 l 132 901 l 136 901 l 140 901 l 144 901 l 149 901 l 153 901 l 157 901 l 160 983 l 164 901 l 168 901 l 172 901 l 176 901 l 176 913 l 176 924 l 176 935 l 176 947 l 176 958 l 176 970 l 176 981 l 176 991 l 176 1031 l 171 990 l 171 1044 l 171 1055 l 176 1076 l 176 1088 l 176 1099 l 176 1109 l 167 1109 l 153 1104 l 146 1032 l 146 1105 l 126 1109 l 115 1109 l 111 1105 l 100 1105 l 85 1109 l 75 1109 l 61 1097 l 47 1105 l 45 1109 l 33 1103 l 24 1109 l 14 1109 l 14 1101 l 14 1092 l 14 1082 l 28 942 l 14 1064 l 14 1054 l 14 1046 l 14 1036 l 14 999 l 14 990 l 14 981 l 25 1075 l 14 961 l 14 953 l 14 943 z "},"a":{"ha":488,"x_min":4,"x_max":467,"o":"m 89 786 l 89 786 q 77 768 87 783 l 77 768 q 72 759 74 762 q 68 749 71 755 l 68 749 l 68 747 q 78 765 77 758 l 78 765 q 82 771 79 769 q 87 777 85 774 l 87 777 q 89 786 89 779 z m 107 946 l 107 939 l 107 954 l 107 950 l 107 946 z m 102 896 l 102 896 q 104 903 102 896 q 107 913 107 910 l 107 913 l 107 929 q 90 850 90 895 l 90 850 l 90 833 l 90 825 l 92 823 q 98 855 95 831 q 103 888 100 880 l 103 888 q 103 892 103 890 q 102 896 102 894 z m 467 383 l 355 1104 q 328 1099 335 1104 l 328 1099 l 311 1104 l 302 1093 l 290 1100 l 273 1095 l 271 1103 l 221 1104 l 214 1088 l 203 1101 l 176 1104 q 138 1084 167 1089 l 138 1084 l 132 1104 l 117 1104 l 56 714 l 60 718 q 68 749 62 735 l 68 749 l 66 758 q 77 798 66 771 q 87 840 87 825 l 87 840 q 93 895 87 857 q 100 951 98 932 l 100 951 l 107 954 l 107 956 l 110 954 l 109 932 q 104 878 109 907 q 94 821 99 848 l 94 821 l 96 807 q 83 764 96 783 l 83 764 l 83 753 q 81 747 81 753 l 81 747 l 69 746 l 68 747 q 60 714 64 747 l 60 714 l 56 714 l 4 383 l 22 385 q 36 406 25 392 l 36 406 l 43 393 l 56 399 l 57 385 l 78 383 l 87 387 q 94 385 90 387 q 98 383 99 383 l 98 383 l 110 383 l 121 396 l 129 387 l 140 392 l 146 382 q 172 383 154 383 l 172 383 l 187 525 l 200 525 l 205 533 q 216 538 214 533 l 216 538 l 224 525 l 233 525 l 236 536 l 241 525 l 248 525 l 254 534 l 258 532 l 265 539 l 271 532 l 273 525 l 283 525 l 298 383 l 313 385 l 322 393 l 330 383 l 340 390 l 351 383 l 364 387 l 372 396 l 378 382 l 393 383 l 404 400 l 415 397 l 419 387 l 435 383 l 447 390 l 457 383 l 467 383 z m 144 433 l 144 428 q 127 421 138 421 l 127 421 q 121 422 121 421 l 121 422 q 126 428 124 425 l 126 428 l 126 429 l 123 429 q 123 434 123 432 q 122 437 123 435 l 122 437 q 123 440 122 440 l 123 440 q 144 433 138 440 l 144 433 z m 171 1078 l 171 1071 l 171 1054 l 170 1054 l 161 1054 q 157 1060 157 1054 l 157 1060 q 158 1065 157 1063 q 158 1071 158 1067 l 158 1071 q 163 1077 158 1075 q 170 1083 169 1079 l 170 1083 l 174 1099 q 171 1078 174 1084 l 171 1078 z m 275 661 l 269 661 q 264 648 264 656 l 264 648 l 256 656 l 254 661 l 244 661 q 237 647 237 654 l 237 647 l 231 646 l 227 657 l 220 661 l 215 661 q 205 642 208 654 l 205 642 l 200 661 l 195 661 l 228 961 l 243 961 l 275 661 z m 265 1075 l 265 1075 l 265 1080 l 271 1080 l 271 1086 l 257 1088 l 267 1088 l 269 1088 q 279 1082 279 1088 l 279 1082 q 274 1076 279 1079 q 267 1074 269 1074 l 267 1074 q 266 1075 267 1074 q 265 1075 266 1075 z m 343 419 l 343 419 l 342 419 q 343 417 342 418 q 343 415 343 416 l 343 415 q 334 411 339 411 l 334 411 q 329 425 329 416 l 329 425 q 332 435 329 429 l 332 435 l 336 436 q 351 416 351 429 l 351 416 l 350 416 q 347 418 349 417 q 343 419 345 419 z m 429 501 l 429 493 q 423 547 429 511 q 416 596 416 583 l 416 596 q 406 637 416 611 q 395 676 395 664 l 395 676 q 387 728 394 682 l 387 728 q 385 774 385 743 q 383 819 385 804 l 383 819 q 380 833 383 824 q 378 847 378 843 l 378 847 l 378 867 q 382 847 382 863 l 382 847 q 387 778 382 839 q 392 714 391 718 l 392 714 q 429 501 429 599 l 429 501 z m 53 708 l 53 708 l 56 714 q 53 708 53 711 z "},"b":{"ha":435,"x_min":4,"x_max":419,"o":"m 419 611 l 419 682 l 406 677 l 404 685 l 395 690 l 393 703 l 378 701 l 371 705 l 374 717 l 361 726 l 350 725 l 349 737 l 328 751 l 317 743 l 315 761 l 338 778 l 339 791 l 349 785 l 350 799 l 358 803 l 370 819 l 371 802 l 393 817 l 387 827 l 393 832 l 404 836 l 404 861 l 399 867 l 399 878 l 404 896 l 404 920 l 399 933 l 404 943 l 404 1003 l 393 1004 l 397 1021 l 386 1034 l 378 1029 l 374 1044 l 368 1051 l 359 1048 l 355 1063 l 350 1023 l 345 1075 l 338 1080 l 329 1078 l 323 1083 l 319 1099 l 313 1095 l 298 1101 l 289 1111 l 256 1105 l 236 1090 l 232 1111 l 212 1103 l 195 1111 l 164 1111 l 149 1100 l 118 1111 l 98 1111 l 77 1103 l 61 1111 l 36 1097 l 24 1111 l 7 1107 l 4 1065 l 4 1021 l 7 964 l 18 1072 l 9 929 l 18 785 l 7 896 l 4 840 l 4 705 l 5 679 l 12 642 l 18 538 l 8 583 l 4 479 l 11 433 l 4 389 l 41 389 l 74 406 l 81 395 l 100 397 l 118 389 l 138 389 l 155 393 l 175 401 l 195 389 l 232 390 l 241 399 l 264 406 l 269 389 l 289 389 l 300 395 l 315 396 l 323 419 l 329 408 l 336 411 l 343 421 l 357 435 l 361 453 l 371 452 l 382 456 l 376 507 l 389 469 l 399 472 l 406 479 l 406 488 l 416 484 l 419 504 l 419 528 l 411 536 l 419 551 l 419 587 l 415 599 l 419 611 z m 364 861 l 364 861 q 368 869 365 864 q 371 879 371 873 l 371 879 q 378 867 378 878 l 378 867 q 366 848 372 857 l 366 848 q 364 861 364 851 z m 33 418 l 33 418 l 32 421 q 30 422 31 421 q 29 425 29 423 q 28 427 28 426 l 28 427 q 29 420 28 423 q 29 412 29 417 l 29 412 l 25 412 l 25 433 q 35 428 32 433 q 37 422 37 422 l 37 422 q 33 418 37 420 z m 41 1067 l 41 1057 q 37 1061 39 1057 l 37 1061 l 37 1071 l 36 1076 q 39 1070 38 1074 q 41 1067 39 1067 l 41 1067 z m 253 564 l 248 591 l 244 574 l 244 534 l 241 529 l 240 525 l 236 525 l 228 490 l 225 518 l 216 510 l 214 525 l 208 525 l 204 518 l 200 521 l 196 525 l 183 513 l 186 525 l 174 525 l 174 633 l 171 644 l 167 587 l 164 700 l 171 644 l 174 663 l 174 682 l 178 682 l 189 692 l 186 682 l 195 697 l 201 690 l 200 682 l 204 682 l 212 688 l 214 682 l 221 689 l 224 697 l 229 696 l 237 705 l 237 690 l 240 682 l 244 682 l 244 603 l 248 591 l 250 619 l 253 564 z m 256 925 l 253 822 l 245 884 l 244 876 l 244 817 l 240 817 l 239 808 l 232 812 l 229 811 l 222 817 l 218 817 l 215 781 l 210 811 l 201 811 l 200 817 l 182 817 l 178 812 l 170 819 l 174 827 l 174 977 l 178 977 l 182 985 l 186 985 l 191 977 l 195 981 l 195 979 l 204 977 l 201 982 l 214 977 l 218 977 l 221 979 l 227 987 l 231 982 l 236 979 l 240 977 l 244 977 l 244 917 l 243 909 l 245 884 l 256 925 z m 9 929 l 7 964 l 4 930 l 7 896 l 9 929 z "},"c":{"ha":427,"x_min":3,"x_max":412,"o":"m 4 808 l 4 777 l 5 796 l 4 808 z m 168 668 l 170 647 l 172 667 l 171 690 l 168 668 z m 408 696 l 401 697 l 376 694 l 376 676 l 370 697 l 339 697 l 321 693 l 318 671 l 306 689 l 294 692 l 286 697 l 277 697 l 264 682 l 264 696 l 244 697 l 244 676 l 245 663 l 244 654 l 244 567 l 245 554 l 253 608 l 245 545 l 254 446 l 245 534 l 244 524 l 240 524 l 235 498 l 232 513 l 227 524 l 222 524 l 216 489 l 215 521 l 208 524 l 204 524 l 197 511 l 196 524 l 191 524 l 183 521 l 182 524 l 178 513 l 167 515 l 170 546 l 172 581 l 172 610 l 170 647 l 163 595 l 168 668 l 161 771 l 171 690 l 172 725 l 172 782 l 170 811 l 172 839 l 172 868 l 170 896 l 168 943 l 171 974 l 170 986 l 178 983 l 186 983 l 189 1019 l 196 983 l 200 983 l 201 991 l 205 991 l 212 983 l 216 1002 l 222 983 l 227 983 l 229 987 l 236 983 l 240 983 l 244 989 l 244 974 l 244 946 l 248 936 l 248 926 l 244 917 l 244 879 l 249 867 l 244 861 l 244 832 l 256 832 l 264 840 l 277 832 l 292 836 l 298 852 l 304 840 l 318 832 l 329 836 l 339 832 l 355 833 l 366 843 l 372 836 l 383 832 l 392 860 l 401 832 l 412 835 l 411 843 l 411 908 l 407 916 l 411 930 l 411 953 l 406 964 l 411 974 l 411 996 l 404 1004 l 404 1013 l 396 1019 l 387 997 l 382 1032 l 367 1046 l 355 1044 l 351 1059 l 345 1065 l 336 1065 l 323 1082 l 325 1051 l 314 1090 l 300 1103 l 285 1105 l 278 1111 l 261 1109 l 260 1088 l 249 1109 l 237 1109 l 222 1099 l 220 1105 l 199 1105 l 193 1109 l 172 1109 l 163 1089 l 154 1103 l 139 1109 l 117 1109 l 113 1096 l 103 1092 l 96 1084 l 89 1082 l 75 1068 l 68 1051 l 61 1054 l 47 1038 l 45 987 l 39 1034 l 25 1019 l 21 971 l 17 1010 l 4 999 l 4 871 l 7 828 l 14 947 l 8 810 l 33 621 l 7 777 l 4 713 l 4 618 l 9 583 l 4 554 l 3 501 l 9 498 l 11 485 l 20 478 l 26 500 l 29 473 l 41 458 l 49 453 l 57 497 l 64 440 l 69 449 l 79 427 l 107 403 l 114 446 l 117 395 l 125 389 l 147 389 l 160 406 l 174 393 l 182 389 l 204 389 l 215 399 l 228 389 l 239 389 l 257 393 l 265 404 l 277 400 l 285 389 l 296 389 l 304 396 l 314 396 l 334 416 l 343 468 l 349 446 l 340 429 l 359 444 l 366 452 l 371 464 l 379 465 l 392 478 l 400 536 l 401 490 l 406 507 l 411 511 l 411 561 l 408 572 l 408 587 l 411 599 l 411 624 l 407 635 l 411 647 l 411 685 l 408 696 z m 127 1060 l 127 1060 l 127 1051 l 123 1051 q 121 1058 123 1055 q 117 1062 119 1060 q 111 1067 114 1064 l 111 1067 q 115 1076 111 1076 l 115 1076 q 123 1068 119 1076 l 123 1068 q 134 1074 128 1068 l 134 1074 q 127 1060 134 1064 z m 151 458 l 151 458 q 148 459 149 458 q 147 461 147 460 l 147 461 q 154 713 147 629 l 154 713 q 154 638 154 670 q 153 580 153 606 q 152 527 152 553 q 151 458 151 501 z m 304 644 l 304 644 q 298 650 300 644 q 296 657 296 655 l 296 657 q 307 648 307 654 l 307 648 q 304 644 307 647 z m 245 545 l 245 554 l 244 546 l 245 534 l 245 545 z m 8 810 l 7 828 l 5 796 l 7 777 l 8 810 z "},"d":{"ha":435,"x_min":1,"x_max":416,"o":"m 11 854 l 9 876 l 5 836 l 8 803 l 11 854 z m 1 890 l 1 796 l 5 836 l 1 890 z m 250 774 l 249 783 l 248 760 l 249 750 l 250 774 z m 416 1008 l 401 1021 l 400 1006 l 395 1026 l 379 1031 l 372 1047 l 366 1054 l 358 1031 l 350 1055 l 343 1074 l 334 1069 l 328 1086 l 322 1082 l 313 1093 l 302 1093 l 293 1109 l 279 1111 l 244 1104 l 244 1071 l 237 1096 l 218 1109 l 193 1109 l 168 1111 l 154 1104 l 125 1100 l 122 1061 l 117 1109 l 83 1109 l 56 1080 l 66 1105 l 20 1111 l 20 1096 l 1 1089 l 1 1022 l 9 876 l 18 953 l 11 854 l 17 761 l 17 677 l 8 803 l 1 705 l 1 526 l 5 449 l 11 522 l 8 399 l 5 449 l 1 390 l 22 395 l 45 390 l 72 399 l 72 428 l 98 396 l 115 390 l 143 390 l 174 400 l 179 458 l 192 390 l 210 390 l 229 400 l 249 390 l 268 395 l 286 390 l 306 390 l 313 397 l 317 418 l 326 411 l 340 425 l 346 463 l 354 456 l 354 441 l 368 453 l 374 464 l 386 472 l 387 490 l 396 481 l 403 488 l 399 524 l 414 510 l 416 533 l 416 628 l 414 668 l 406 611 l 412 689 l 406 762 l 414 713 l 416 754 l 416 818 l 412 848 l 416 882 l 412 909 l 416 945 l 416 1008 z m 155 799 l 155 799 q 151 800 152 799 q 150 802 150 801 l 150 802 q 157 1053 150 970 l 157 1053 q 156 916 157 968 q 155 799 156 863 z m 261 682 l 249 750 l 241 646 l 244 611 l 241 589 l 243 557 l 241 533 l 233 533 l 229 524 l 225 528 l 218 513 l 220 528 l 211 533 l 205 476 l 203 530 l 203 522 l 193 533 l 187 533 l 187 524 l 179 533 l 171 533 l 171 589 l 165 621 l 171 646 l 171 730 l 167 754 l 171 787 l 171 844 l 165 890 l 171 900 l 171 929 l 168 977 l 160 993 l 174 991 l 179 985 l 193 985 l 203 1029 l 204 1004 l 207 996 l 211 985 l 224 985 l 224 994 l 229 1000 l 237 985 l 241 985 l 241 957 l 243 921 l 241 900 l 241 844 l 249 783 l 256 867 l 250 774 l 261 682 z m 389 974 l 389 974 l 386 974 q 385 997 386 989 l 385 997 l 379 999 l 387 999 q 392 989 387 993 l 392 989 q 389 974 392 978 z m 412 689 l 414 668 l 416 692 l 414 713 l 412 689 z m 241 787 l 241 703 l 248 760 l 241 787 z "},"e":{"ha":322,"x_min":0,"x_max":311,"o":"m 12 650 l 11 643 l 12 619 l 12 628 l 12 650 z m 0 836 l 0 701 l 0 664 l 3 627 l 11 643 l 0 836 z m 311 1072 l 310 1080 l 310 1097 l 301 1100 l 290 1105 l 218 1107 l 225 1099 l 207 1101 l 193 1086 l 191 1099 l 155 1105 l 136 1105 l 115 1101 l 82 1107 l 77 1067 l 68 1107 l 39 1105 l 21 1101 l 0 1105 l 0 926 l 12 650 l 26 730 l 12 628 l 28 521 l 9 604 l 0 522 l 5 482 l 4 440 l 0 387 l 11 387 l 16 403 l 26 396 l 29 387 l 68 389 l 117 385 l 138 395 l 155 387 l 172 393 l 195 387 l 212 387 l 257 390 l 254 412 l 271 387 l 290 387 l 301 390 l 310 396 l 310 412 l 302 414 l 310 429 l 310 454 l 300 465 l 310 471 l 310 513 l 306 517 l 297 513 l 293 522 l 277 522 l 268 515 l 260 522 l 252 522 l 236 517 l 235 522 l 210 522 l 201 500 l 192 522 l 183 522 l 170 517 l 175 533 l 170 546 l 167 558 l 172 570 l 175 578 l 175 602 l 172 612 l 172 624 l 175 635 l 175 692 l 174 711 l 184 708 l 189 703 l 196 703 l 203 711 l 210 703 l 249 703 l 265 711 l 273 703 l 281 703 l 288 711 l 288 728 l 283 734 l 288 745 l 288 753 l 279 761 l 288 770 l 288 803 l 283 800 l 288 819 l 288 828 l 279 828 l 281 836 l 267 836 l 261 831 l 252 836 l 248 832 l 239 831 l 231 836 l 216 836 l 214 794 l 208 836 l 196 836 l 196 823 l 182 836 l 175 836 l 175 879 l 174 875 l 175 896 l 175 904 l 170 897 l 175 921 l 175 946 l 170 957 l 175 962 l 175 971 l 183 971 l 191 979 l 201 971 l 204 978 l 218 971 l 227 989 l 228 975 l 243 971 l 256 978 l 260 971 l 277 971 l 285 979 l 293 971 l 310 971 l 310 1004 l 302 1023 l 310 1022 l 310 1031 l 301 1038 l 310 1047 l 310 1064 l 311 1072 z m 39 1000 l 39 1000 q 37 989 37 996 l 37 989 l 37 863 q 33 871 33 867 l 33 871 q 34 907 34 884 q 35 952 34 929 q 37 989 36 976 l 37 989 l 37 1071 l 39 1065 q 43 1038 43 1050 l 43 1038 q 39 1000 43 1019 z m 282 1004 l 282 1004 q 277 1003 280 1004 q 272 1002 275 1002 l 272 1002 l 272 996 l 268 996 q 265 1011 265 1000 l 265 1011 q 278 1014 267 1014 l 278 1014 q 279 1018 279 1014 l 279 1018 l 283 1018 q 282 1004 283 1004 z "},"f":{"ha":347,"x_min":4,"x_max":332,"o":"m 172 885 l 172 893 l 172 901 l 172 909 l 172 918 l 172 926 l 172 936 l 172 945 l 172 953 l 163 928 l 172 885 z m 172 486 l 172 505 l 172 525 l 172 545 l 163 566 l 172 486 z m 163 567 l 163 566 l 163 567 z m 4 930 l 5 878 l 4 842 l 4 796 l 11 867 l 4 930 z m 172 583 l 172 603 l 172 623 l 172 642 l 165 591 l 172 583 z m 160 930 l 161 924 l 163 928 l 161 935 l 160 930 z m 332 1095 l 332 1111 l 306 1108 l 281 1112 l 279 1097 l 265 1112 l 241 1112 l 218 1100 l 211 1092 l 195 1108 l 147 1111 l 126 1111 l 97 1112 l 66 1105 l 61 1075 l 45 1111 l 8 1112 l 4 1021 l 14 895 l 22 983 l 16 875 l 28 708 l 12 844 l 4 705 l 8 660 l 4 615 l 4 571 l 11 522 l 4 481 l 4 435 l 4 408 l 14 390 l 28 403 l 35 390 l 57 390 l 62 400 l 75 392 l 90 397 l 98 390 l 113 397 l 119 390 l 131 390 l 142 415 l 153 397 l 161 390 l 172 390 l 172 410 l 164 429 l 172 449 l 161 557 l 147 446 l 160 570 l 160 572 l 127 640 l 157 604 l 149 685 l 158 602 l 163 596 l 172 681 l 172 699 l 180 699 l 187 707 l 196 699 l 212 699 l 228 711 l 232 757 l 235 708 l 244 699 l 260 699 l 264 707 l 277 699 l 292 699 l 292 707 l 300 708 l 300 717 l 293 729 l 300 733 l 293 742 l 293 750 l 300 758 l 300 800 l 290 806 l 300 817 l 294 829 l 283 835 l 271 833 l 269 818 l 252 833 l 212 835 l 204 781 l 201 829 l 189 835 l 180 835 l 164 829 l 172 843 l 172 868 l 161 924 l 138 859 l 160 930 l 144 1011 l 161 935 l 172 970 l 182 970 l 195 977 l 203 970 l 222 970 l 231 983 l 241 970 l 253 977 l 265 985 l 272 970 l 292 970 l 309 977 l 311 1007 l 322 970 l 332 970 l 332 1022 l 325 1025 l 332 1040 l 332 1076 l 321 1034 l 332 1095 z m 46 436 l 46 424 l 43 424 q 37 521 37 456 l 37 521 q 46 436 37 476 l 46 436 l 46 464 l 49 427 q 48 431 48 429 q 46 436 47 433 l 46 436 z m 161 579 l 163 567 l 165 591 l 163 596 l 161 579 z m 161 571 l 161 579 l 158 602 l 157 604 l 160 572 l 161 571 z m 161 571 l 160 570 l 161 557 l 163 567 l 161 571 z m 16 875 l 14 895 l 11 867 l 12 844 l 16 875 z "},"g":{"ha":432,"x_min":0,"x_max":415,"o":"m 176 704 l 176 750 l 170 772 l 176 806 l 176 833 l 164 762 l 176 704 z m 415 972 l 415 1003 l 400 1017 l 392 1002 l 386 1031 l 371 1044 l 364 1034 l 355 1059 l 340 1072 l 338 1057 l 326 1065 l 317 1025 l 310 1100 l 296 1114 l 273 1114 l 262 1103 l 252 1114 l 218 1114 l 197 1111 l 195 1076 l 184 1103 l 175 1114 l 142 1114 l 138 1108 l 126 1108 l 113 1107 l 100 1093 l 98 1051 l 90 1086 l 68 1065 l 68 1055 l 53 1051 l 46 1044 l 35 1031 l 29 985 l 24 1023 l 0 1003 l 0 939 l 5 899 l 20 956 l 9 875 l 17 821 l 7 856 l 0 812 l 4 785 l 0 749 l 0 717 l 7 681 l 5 636 l 0 623 l 0 590 l 7 558 l 0 526 l 0 494 l 7 489 l 12 496 l 22 475 l 29 469 l 39 454 l 45 570 l 50 450 l 71 431 l 86 419 l 90 436 l 97 494 l 98 406 l 113 392 l 134 392 l 143 419 l 144 400 l 163 392 l 187 392 l 200 400 l 212 392 l 225 414 l 232 395 l 252 397 l 262 392 l 313 392 l 323 432 l 325 406 l 357 437 l 358 454 l 364 460 l 376 456 l 390 469 l 403 509 l 403 482 l 415 494 l 415 528 l 408 539 l 415 562 l 415 629 l 396 549 l 415 664 l 415 697 l 408 721 l 415 730 l 415 765 l 403 765 l 392 761 l 378 696 l 372 741 l 363 732 l 363 762 l 311 765 l 294 757 l 286 765 l 272 765 l 260 758 l 245 765 l 235 753 l 225 734 l 216 766 l 207 757 l 207 629 l 222 629 l 222 648 l 228 629 l 231 629 l 232 677 l 235 629 l 248 629 l 248 591 l 257 595 l 257 578 l 248 572 l 248 559 l 254 551 l 248 547 l 248 528 l 239 528 l 235 493 l 229 528 l 221 528 l 220 515 l 211 528 l 207 528 l 204 513 l 199 528 l 184 528 l 189 518 l 172 515 l 176 555 l 171 585 l 176 611 l 176 667 l 163 750 l 138 597 l 160 766 l 138 904 l 161 779 l 176 889 l 176 917 l 168 942 l 176 972 l 199 972 l 199 1002 l 207 972 l 211 972 l 214 991 l 221 972 l 227 1044 l 229 972 l 243 972 l 253 985 l 248 964 l 248 924 l 254 911 l 257 903 l 248 900 l 248 885 l 254 872 l 248 868 l 248 852 l 254 848 l 258 844 l 279 844 l 292 854 l 304 850 l 314 905 l 318 854 l 332 844 l 343 850 l 353 844 l 363 844 l 374 861 l 383 850 l 395 844 l 406 844 l 407 852 l 415 854 l 415 914 l 408 922 l 407 933 l 415 943 l 415 953 l 406 958 l 415 972 z m 332 492 l 332 503 q 346 510 342 503 l 346 510 q 355 505 354 510 l 355 505 q 353 492 355 503 q 350 476 350 482 l 350 476 l 345 476 l 345 493 q 338 493 340 493 q 332 492 335 492 l 332 492 z m 9 875 l 5 899 l 0 875 l 7 856 l 9 875 z m 160 766 l 163 750 l 164 762 l 161 779 l 160 766 z "},"h":{"ha":424,"x_min":-9,"x_max":400,"o":"m 161 942 l 161 961 l 157 979 l 161 997 l 161 1053 l 153 977 l 161 942 z m 150 975 l 151 968 l 153 977 l 151 982 l 150 975 z m 366 825 l 400 1108 l 383 1105 l 378 1059 l 370 1097 l 358 1108 l 349 1103 l 338 1108 l 328 1108 l 313 1101 l 307 1108 l 298 1097 l 290 1075 l 285 1104 l 265 1108 l 250 1105 l 239 1105 l 233 1108 l 233 1089 l 240 1015 l 233 1053 l 233 1015 l 236 987 l 236 970 l 233 961 l 233 924 l 241 907 l 233 888 l 233 868 l 232 836 l 239 832 l 237 806 l 229 814 l 220 814 l 218 750 l 212 803 l 208 786 l 203 814 l 193 814 l 192 808 l 184 814 l 175 814 l 171 796 l 167 814 l 161 814 l 163 922 l 151 968 l 138 848 l 150 975 l 138 1032 l 151 982 l 161 1089 l 161 1108 l 150 1104 l 140 1108 l 129 1099 l 121 1069 l 111 1104 l 97 1103 l 87 1108 l 78 1108 l 65 1099 l 56 1108 l 33 1103 l 31 1083 l 17 1096 l 14 1108 l 3 1108 l 3 1088 l -7 1063 l -7 972 l 0 838 l 0 793 l -7 838 l -7 791 l 7 621 l 21 777 l 7 607 l 14 534 l 7 597 l -9 387 l 3 386 l 14 399 l 22 389 l 41 392 l 46 386 l 62 389 l 72 415 l 79 390 l 90 393 l 102 390 l 109 386 l 131 386 l 139 407 l 143 389 l 161 386 l 161 440 l 158 456 l 158 475 l 161 496 l 161 551 l 153 546 l 154 575 l 161 606 l 161 679 l 167 679 l 170 686 l 174 692 l 179 679 l 184 679 l 187 733 l 193 686 l 197 679 l 203 679 l 205 686 l 211 679 l 215 679 l 224 699 l 229 679 l 233 679 l 233 570 l 260 789 l 233 532 l 233 496 l 236 481 l 236 463 l 237 432 l 233 422 l 233 404 l 248 395 l 236 387 l 254 386 l 262 404 l 268 393 l 282 392 l 285 387 l 307 386 l 328 386 l 345 397 l 349 386 l 361 392 l 370 386 l 379 422 l 379 387 l 400 392 l 400 431 l 396 469 l 396 515 l 400 567 l 400 657 l 383 476 l 400 747 l 396 732 l 396 828 l 396 917 l 400 928 l 400 1018 l 366 825 z m 45 1054 l 45 1054 q 26 1040 34 1042 l 26 1040 q 21 1069 26 1057 l 21 1069 q 27 1072 22 1069 q 33 1074 31 1074 l 33 1074 q 45 1054 45 1066 z m 318 452 l 318 421 q 311 416 317 418 q 302 410 305 414 l 302 410 q 298 408 302 408 q 294 407 295 408 l 294 407 q 295 411 295 408 q 296 415 295 414 l 296 415 q 310 437 307 428 l 310 437 q 315 440 315 440 l 315 440 q 317 446 317 442 q 318 452 317 450 l 318 452 z m -4 696 l -7 657 l -1 607 l -7 567 l -7 476 l 5 610 l -4 696 z m 7 607 l 7 621 l 5 610 l 7 597 l 7 607 z "},"i":{"ha":189,"x_min":-8,"x_max":165,"o":"m 155 729 l 132 618 l 158 807 l 157 833 l 165 838 l 163 869 l 163 889 l 154 908 l 163 925 l 163 962 l 160 971 l 160 989 l 163 1017 l 163 1054 l 155 1017 l 163 1090 l 163 1109 l 157 1107 l 146 1107 l 132 1078 l 117 1100 l 106 1060 l 98 1099 l 90 1109 l 83 1103 l 68 1097 l 58 1109 l 47 1104 l 37 1109 l 21 1100 l 14 1069 l 12 1107 l -8 1103 l 31 827 l -4 1019 l -4 949 l 0 918 l 0 829 l 1 733 l -4 749 l 12 478 l -4 659 l -4 568 l 0 517 l 0 471 l -4 432 l -4 387 l 14 393 l 17 424 l 26 387 l 35 393 l 54 390 l 61 412 l 69 387 l 90 387 l 107 393 l 121 418 l 125 392 l 135 406 l 142 387 l 160 389 l 157 396 l 163 406 l 163 424 l 158 433 l 160 464 l 160 482 l 163 497 l 163 533 l 144 808 l 163 571 l 163 681 l 155 729 z m 14 799 l 14 829 q 15 824 15 828 q 16 818 15 820 l 16 818 q 21 815 21 815 l 21 815 q 36 793 26 804 l 36 793 q 37 789 37 792 q 37 786 37 787 l 37 786 q 33 787 37 787 q 29 787 30 787 l 29 787 q 21 794 27 791 q 14 799 16 796 l 14 799 z "},"j":{"ha":401,"x_min":0,"x_max":383,"o":"m 151 576 l 151 612 l 146 596 l 151 576 z m 216 895 l 215 851 l 216 821 l 221 783 l 216 749 l 216 713 l 228 777 l 216 895 z m 383 647 l 382 697 l 383 724 l 378 760 l 383 802 l 383 918 l 370 733 l 383 647 z m 232 775 l 231 789 l 228 777 l 231 760 l 232 775 z m 367 718 l 368 705 l 370 733 l 368 745 l 367 718 z m 143 597 l 144 591 l 146 596 l 144 602 l 143 597 z m 383 1072 l 383 1111 l 372 1111 l 368 1089 l 353 1100 l 342 1095 l 338 1112 l 321 1107 l 310 1111 l 300 1111 l 293 1100 l 286 1107 l 268 1111 l 248 1111 l 236 1104 l 227 1111 l 216 1111 l 216 1039 l 222 999 l 216 966 l 231 789 l 239 829 l 232 775 l 245 611 l 231 760 l 216 640 l 216 532 l 204 532 l 200 497 l 196 532 l 187 532 l 186 519 l 180 532 l 176 492 l 172 532 l 160 532 l 154 525 l 139 522 l 138 538 l 151 550 l 151 558 l 144 591 l 135 564 l 143 597 l 136 632 l 144 602 l 151 629 l 151 665 l 154 669 l 146 669 l 134 675 l 126 657 l 119 669 l 104 675 l 94 675 l 85 650 l 77 675 l 57 675 l 46 661 l 40 640 l 28 675 l 21 668 l 11 668 l 0 675 l 0 606 l 8 599 l 4 589 l 4 578 l 0 559 l 0 526 l 4 515 l 0 503 l 0 492 l 14 479 l 25 510 l 26 484 l 35 460 l 62 435 l 68 449 l 77 422 l 83 415 l 96 419 l 103 406 l 104 396 l 111 390 l 122 390 l 126 395 l 136 395 l 151 390 l 168 400 l 175 395 l 182 390 l 212 390 l 231 404 l 236 419 l 241 414 l 252 390 l 272 390 l 293 408 l 297 446 l 307 422 l 328 440 l 338 492 l 343 472 l 349 460 l 363 472 l 368 496 l 376 486 l 383 492 l 383 570 l 368 705 l 355 532 l 367 718 l 351 852 l 368 745 l 383 994 l 378 1026 l 383 1072 z m 351 1059 l 351 1059 q 345 1047 349 1053 q 336 1042 340 1042 l 336 1042 q 330 1069 336 1062 l 330 1069 q 342 1061 336 1069 l 342 1061 q 338 1076 342 1064 l 338 1076 q 343 1082 338 1082 l 343 1082 q 354 1068 351 1079 l 354 1068 q 351 1059 354 1064 z "},"k":{"ha":484,"x_min":-8,"x_max":472,"o":"m -8 981 l -8 935 l -8 890 l -8 844 l -8 800 l -8 754 l -1 819 l -8 981 z m 0 778 l -8 664 l -8 619 l 4 699 l 0 778 z m 1 794 l 0 833 l -1 819 l 0 778 l 1 794 z m 147 553 l 149 541 l 150 547 l 149 559 l 147 553 z m 5 667 l 4 705 l 4 699 l 5 659 l 5 667 z m 472 395 l 450 441 l 440 441 l 429 489 l 419 513 l 403 529 l 399 561 l 367 632 l 367 587 l 346 679 l 335 703 l 322 705 l 314 751 l 302 775 l 321 817 l 339 893 l 339 860 l 366 924 l 375 954 l 374 972 l 393 987 l 410 1039 l 406 1065 l 418 1059 l 429 1072 l 446 1116 l 425 1116 l 421 1104 l 403 1116 l 392 1116 l 380 1109 l 366 1103 l 358 1116 l 345 1117 l 332 1108 l 315 1116 l 300 1089 l 292 1111 l 271 1116 l 264 1096 l 253 1008 l 250 1059 l 231 1003 l 229 972 l 216 964 l 203 926 l 196 850 l 189 889 l 161 814 l 161 908 l 150 916 l 150 940 l 160 961 l 150 978 l 160 1000 l 161 1021 l 161 1096 l 155 1108 l 144 1104 l 139 1116 l 118 1116 l 113 1100 l 103 1088 l 87 1116 l 77 1116 l 68 1104 l 56 1116 l 45 1109 l 35 1116 l 17 1105 l 16 1084 l 3 1116 l -8 1116 l -8 1069 l 0 833 l 16 978 l 1 794 l 4 705 l 22 828 l 5 667 l 11 510 l 5 659 l -8 529 l -8 485 l -1 441 l -8 395 l 11 403 l 12 395 l 24 395 l 33 412 l 39 397 l 57 401 l 65 395 l 77 395 l 90 400 l 97 395 l 110 400 l 118 395 l 132 410 l 134 400 l 150 395 l 161 395 l 161 431 l 149 541 l 134 472 l 147 553 l 138 642 l 149 559 l 161 632 l 161 688 l 183 632 l 189 636 l 197 596 l 228 522 l 229 564 l 243 486 l 279 395 l 292 395 l 300 418 l 311 404 l 328 395 l 340 395 l 361 403 l 366 414 l 376 395 l 400 395 l 400 427 l 411 395 l 424 395 l 437 401 l 447 395 l 472 395 z m 37 1057 l 37 1057 l 37 1067 q 33 1079 33 1071 l 33 1079 l 28 1071 q 24 1074 24 1071 l 24 1074 l 24 1086 l 35 1086 l 35 1082 l 39 1082 q 40 1069 40 1079 l 40 1069 q 37 1067 40 1069 l 37 1067 q 43 1063 40 1064 l 43 1063 q 40 1060 43 1061 q 37 1057 37 1059 z m 182 737 l 182 722 q 179 726 181 722 q 174 730 176 729 l 174 730 q 172 750 172 736 l 172 750 q 155 777 158 768 l 155 777 q 153 794 154 782 q 149 812 151 806 l 149 812 q 148 819 148 816 q 146 825 147 821 l 146 825 q 135 867 138 852 l 135 867 q 127 878 129 876 l 127 878 l 134 869 q 135 867 135 869 l 135 867 q 137 864 136 865 q 139 861 138 863 l 139 861 q 146 825 146 850 l 146 825 q 171 757 163 777 l 171 757 q 172 754 172 755 q 172 750 172 753 l 172 750 q 177 744 175 747 q 182 737 180 741 l 182 737 z m 304 450 l 304 450 q 292 441 300 444 l 292 441 l 292 437 q 300 435 298 437 l 300 435 q 299 432 300 433 q 298 429 299 431 l 298 429 l 286 429 q 283 440 286 433 q 281 456 281 448 l 281 456 q 286 458 282 458 l 286 458 l 286 454 l 294 454 l 294 469 q 299 459 294 465 q 304 450 304 454 z m 161 467 l 161 486 l 161 504 l 161 522 l 155 546 l 161 558 l 161 578 l 161 596 l 150 547 l 161 467 z "},"l":{"ha":340,"x_min":1,"x_max":321,"o":"m 1 975 l 1 930 l 4 958 l 1 975 z m 170 781 l 170 928 l 164 828 l 170 781 z m 158 751 l 170 671 l 170 707 l 161 799 l 158 751 z m 314 444 l 321 465 l 321 482 l 310 461 l 314 444 z m 313 439 l 314 433 l 317 437 l 314 444 l 313 439 z m 321 422 l 321 449 l 317 437 l 321 422 z m 1 660 l 1 614 l 3 650 l 1 660 z m 157 762 l 155 726 l 157 717 l 158 751 l 157 762 z m 307 465 l 309 458 l 310 461 l 307 468 l 307 465 z m 160 817 l 161 799 l 164 828 l 161 842 l 160 817 z m 9 982 l 8 999 l 4 958 l 7 940 l 9 982 z m 321 498 l 321 524 l 309 511 l 301 524 l 283 524 l 273 504 l 264 524 l 236 524 l 227 517 l 216 517 l 207 524 l 187 521 l 180 486 l 179 524 l 165 519 l 170 597 l 157 717 l 147 572 l 155 726 l 127 981 l 157 762 l 160 817 l 151 918 l 161 842 l 170 1002 l 164 1032 l 170 1075 l 170 1111 l 160 1105 l 149 1111 l 144 1096 l 135 1096 l 117 1111 l 96 1111 l 85 1100 l 75 1111 l 64 1111 l 56 1088 l 43 1111 l 32 1111 l 25 1104 l 11 1111 l 1 1111 l 1 1065 l 8 999 l 16 1060 l 9 982 l 26 840 l 7 940 l 1 840 l 1 794 l 4 755 l 5 737 l 8 802 l 8 700 l 20 536 l 8 611 l 8 521 l 1 479 l 1 389 l 21 389 l 31 428 l 39 406 l 46 411 l 52 393 l 90 399 l 127 390 l 153 400 l 180 389 l 197 396 l 245 393 l 245 453 l 261 389 l 281 400 l 301 389 l 321 389 l 321 406 l 314 433 l 302 407 l 313 439 l 309 458 l 289 424 l 307 465 l 301 488 l 307 468 l 321 498 z m 147 475 l 147 475 l 147 473 l 147 452 l 147 473 q 149 559 147 530 l 149 559 q 153 596 153 576 l 153 596 q 154 567 153 581 q 154 532 154 553 l 154 532 q 147 475 154 498 z m 8 700 l 5 737 l 3 650 l 8 611 l 8 700 z "},"m":{"ha":539,"x_min":-7,"x_max":524,"o":"m -3 925 l -3 835 l 0 785 l -3 745 l -3 700 l -7 644 l 8 785 l -3 925 z m 364 676 l 364 618 l 368 585 l 364 559 l 364 472 l 374 591 l 364 676 z m 522 842 l 524 925 l 524 970 l 514 890 l 522 842 z m 513 905 l 511 893 l 513 878 l 514 890 l 513 905 z m 12 781 l 11 807 l 8 785 l 11 755 l 12 781 z m 505 807 l 511 893 l 501 979 l 513 905 l 524 1060 l 524 1105 l 498 1105 l 493 1097 l 471 1100 l 461 1105 l 450 1101 l 437 1101 l 424 1105 l 419 1072 l 410 1096 l 396 1084 l 390 1101 l 367 1101 l 349 1105 l 323 1105 l 321 1083 l 322 961 l 314 1040 l 268 757 l 267 757 l 265 757 l 264 757 l 262 757 l 264 720 l 260 757 l 257 679 l 258 757 l 257 757 l 256 757 l 254 757 l 253 757 l 252 757 l 224 930 l 218 859 l 218 975 l 197 1105 l 178 1097 l 172 1105 l 160 1105 l 143 1097 l 136 1084 l 122 1105 l 110 1100 l 90 1097 l 85 1105 l 60 1105 l 46 1092 l 35 1100 l 20 1071 l 9 1105 l -3 1105 l -3 1015 l 11 807 l 22 921 l 12 781 l 29 517 l 11 755 l -3 566 l -3 385 l 7 385 l 9 419 l 22 389 l 36 385 l 47 390 l 57 390 l 66 385 l 77 385 l 94 383 l 97 414 l 107 385 l 117 385 l 123 386 l 135 396 l 147 385 l 157 385 l 157 471 l 142 646 l 157 528 l 157 844 l 184 643 l 191 669 l 199 597 l 197 557 l 221 385 l 235 385 l 240 410 l 243 385 l 257 385 l 260 400 l 265 385 l 279 385 l 283 429 l 289 385 l 293 385 l 301 443 l 306 533 l 311 501 l 311 549 l 319 559 l 329 618 l 332 794 l 338 676 l 364 852 l 364 736 l 375 608 l 386 761 l 376 596 l 385 489 l 375 579 l 364 414 l 364 385 l 385 385 l 395 410 l 404 385 l 424 385 l 436 392 l 444 385 l 454 385 l 463 410 l 473 392 l 488 447 l 493 385 l 501 395 l 511 395 l 524 385 l 524 519 l 513 554 l 518 608 l 524 656 l 524 790 l 513 878 l 505 807 z m 146 1059 l 146 1059 q 142 1057 146 1057 l 142 1057 q 138 1047 142 1054 q 135 1039 135 1041 l 135 1039 q 142 1035 142 1039 l 142 1035 q 140 1027 142 1033 q 139 1018 139 1022 l 139 1018 l 135 1014 q 132 1028 132 1014 l 132 1028 q 129 1038 132 1033 q 126 1047 126 1042 l 126 1047 q 138 1067 133 1067 l 138 1067 q 147 1065 146 1067 l 147 1065 q 146 1059 146 1064 z m 376 596 l 375 608 l 374 591 l 375 579 l 376 596 z "},"n":{"ha":429,"x_min":-1,"x_max":412,"o":"m -1 704 l -1 659 l 1 688 l -1 704 z m 5 710 l 4 725 l 1 688 l 4 672 l 5 710 z m 406 755 l 412 1064 l 406 1090 l 403 1109 l 372 1109 l 357 1101 l 349 1076 l 343 1109 l 322 1109 l 319 1105 l 310 1105 l 293 1109 l 253 1109 l 253 1003 l 257 972 l 253 960 l 253 770 l 201 939 l 199 916 l 189 982 l 150 1109 l 121 1109 l 114 1054 l 109 1107 l 93 1109 l 83 1105 l 74 1109 l 62 1100 l 56 1109 l 46 1109 l 26 1107 l 31 1069 l 17 1109 l -1 1109 l -1 903 l 11 1019 l 9 893 l 25 958 l 1 819 l 17 864 l -1 794 l 4 725 l 9 781 l 5 710 l 16 608 l 4 672 l -1 568 l -1 433 l 1 401 l 8 389 l 18 389 l 26 395 l 39 400 l 39 387 l 58 389 l 68 396 l 78 389 l 107 389 l 122 412 l 127 396 l 134 431 l 138 390 l 157 389 l 157 517 l 153 533 l 157 558 l 157 581 l 153 604 l 157 623 l 157 729 l 199 602 l 189 689 l 212 558 l 241 473 l 253 464 l 256 431 l 262 410 l 253 395 l 286 390 l 279 412 l 292 401 l 304 396 l 314 389 l 322 389 l 330 395 l 340 389 l 349 396 l 358 389 l 372 392 l 372 401 l 383 422 l 386 389 l 403 389 l 412 433 l 412 524 l 407 581 l 412 614 l 412 974 l 406 755 z m 317 1059 l 317 1059 q 309 1054 317 1054 l 309 1054 q 298 1059 300 1054 l 298 1059 q 297 1062 297 1060 q 296 1065 297 1065 l 296 1065 q 300 1070 296 1067 q 304 1074 304 1073 l 304 1074 l 292 1071 l 292 1064 l 288 1064 l 279 1060 q 281 1082 279 1079 l 281 1082 q 288 1084 286 1084 l 288 1084 q 295 1082 291 1084 q 306 1079 300 1080 l 306 1079 q 319 1068 319 1078 l 319 1068 q 317 1059 319 1064 z "},"o":{"ha":429,"x_min":-4,"x_max":411,"o":"m 403 743 l 404 724 l 406 737 l 404 758 l 403 743 z m 411 628 l 411 815 l 406 737 l 411 628 z m 4 676 l 4 696 l 3 685 l 4 664 l 4 676 z m 408 932 l 411 971 l 411 1003 l 383 1031 l 380 975 l 370 1044 l 349 1065 l 339 1060 l 332 1055 l 328 1086 l 300 1114 l 289 1114 l 275 1101 l 264 1114 l 253 1114 l 229 1112 l 229 1074 l 216 1114 l 199 1107 l 192 1114 l 180 1114 l 164 1107 l 155 1114 l 109 1114 l 102 1107 l 94 1042 l 93 1092 l 81 1086 l 60 1065 l 57 1039 l 50 1048 l 37 1044 l 17 1023 l 9 974 l 3 1010 l -4 1003 l -4 896 l 4 861 l -4 846 l 4 696 l 12 779 l 4 676 l 11 553 l 4 664 l -4 566 l -4 503 l 3 496 l 12 493 l 16 482 l 29 468 l 35 500 l 41 454 l 49 447 l 66 441 l 61 433 l 68 427 l 78 425 l 82 447 l 87 406 l 102 392 l 113 392 l 127 407 l 138 392 l 150 392 l 171 399 l 179 418 l 187 392 l 200 392 l 222 395 l 229 401 l 237 392 l 250 392 l 262 404 l 281 395 l 288 401 l 300 392 l 314 406 l 323 435 l 323 424 l 335 427 l 363 454 l 372 497 l 376 468 l 404 496 l 411 534 l 411 566 l 404 724 l 396 618 l 403 743 l 396 911 l 404 758 l 411 878 l 408 901 l 408 932 z m 254 628 l 245 754 l 241 696 l 250 579 l 241 679 l 236 583 l 236 528 l 224 528 l 221 486 l 216 522 l 216 513 l 208 528 l 204 528 l 201 510 l 196 528 l 193 496 l 189 528 l 172 528 l 167 604 l 158 558 l 158 586 l 164 637 l 161 660 l 164 643 l 172 722 l 165 798 l 172 778 l 172 806 l 167 819 l 167 847 l 172 889 l 172 972 l 180 972 l 183 993 l 189 972 l 200 972 l 205 1019 l 208 972 l 212 972 l 221 982 l 220 972 l 224 972 l 225 977 l 236 982 l 244 971 l 229 937 l 245 778 l 252 851 l 245 768 l 254 628 z m 326 505 l 326 505 q 322 496 326 498 l 322 496 l 322 489 q 319 488 319 489 l 319 488 q 328 637 328 563 l 328 637 q 325 693 326 669 q 322 733 324 718 l 322 733 q 319 787 322 752 l 319 787 q 322 828 319 814 l 322 828 q 325 854 324 839 q 327 889 326 869 q 328 920 327 909 l 328 920 l 332 920 q 330 770 330 869 q 329 621 330 670 l 329 621 q 330 610 329 614 l 330 610 q 332 605 332 607 q 334 602 333 602 l 334 602 q 326 505 334 536 z m 172 583 l 172 639 l 168 614 l 172 583 z m 245 768 l 245 778 l 244 764 l 245 754 l 245 768 z m 168 614 l 164 643 l 164 637 l 167 604 l 168 614 z m 236 889 l 236 806 l 241 714 l 244 764 l 236 889 z m -4 783 l -4 628 l 3 685 l -4 783 z m 241 714 l 240 697 l 241 679 l 241 696 l 241 714 z m 236 750 l 236 639 l 240 697 l 236 750 z "},"p":{"ha":424,"x_min":-4,"x_max":401,"o":"m 1 1044 l 1 1054 l -1 1010 l 0 999 l 1 1044 z m -4 798 l -4 393 l 3 660 l -4 798 z m -4 1022 l -4 977 l -1 1010 l -4 1022 z m 5 635 l 3 693 l 3 660 l 5 602 l 5 635 z m 167 875 l 167 885 l 165 879 l 167 871 l 167 875 z m 244 868 l 241 884 l 240 886 l 239 876 l 240 868 l 244 868 z m 171 831 l 171 896 l 167 875 l 171 831 z m 239 876 l 239 880 l 237 869 l 239 869 l 239 876 z m 401 1008 l 379 1028 l 374 1017 l 374 1026 l 359 1029 l 350 1054 l 343 1053 l 335 1067 l 319 1079 l 314 1076 l 306 1092 l 283 1111 l 265 1111 l 257 1097 l 240 1103 l 231 1116 l 180 1111 l 175 1100 l 157 1100 l 161 1111 l 121 1111 l 86 1109 l 82 1086 l 75 1084 l 75 1109 l 31 1108 l 14 1111 l -4 1111 l 1 1054 l 4 1099 l 1 1044 l 11 935 l 0 999 l -4 888 l 3 693 l 7 854 l 5 635 l 12 450 l 5 602 l 4 395 l 29 393 l 72 393 l 83 400 l 94 393 l 106 393 l 122 395 l 139 393 l 143 441 l 150 393 l 171 393 l 171 456 l 167 473 l 171 488 l 171 550 l 167 567 l 171 582 l 171 629 l 163 644 l 175 654 l 186 644 l 216 644 l 222 650 l 231 644 l 245 644 l 262 646 l 268 672 l 269 648 l 277 644 l 292 644 l 339 690 l 350 729 l 353 703 l 374 722 l 379 736 l 387 734 l 401 749 l 401 798 l 392 814 l 397 831 l 401 846 l 401 895 l 397 913 l 401 928 l 401 1008 z m 254 807 l 240 868 l 239 869 l 235 818 l 235 793 l 240 778 l 232 779 l 220 779 l 215 724 l 211 779 l 200 779 l 196 766 l 192 779 l 179 779 l 179 768 l 171 779 l 171 806 l 167 871 l 161 842 l 165 879 l 161 947 l 167 885 l 171 921 l 171 972 l 160 986 l 171 991 l 179 986 l 200 986 l 203 1006 l 207 986 l 215 986 l 215 999 l 224 986 l 235 986 l 235 921 l 240 895 l 245 975 l 240 890 l 241 884 l 250 867 l 244 868 l 254 807 z m 239 889 l 235 896 l 239 880 l 239 889 z m 235 869 l 235 844 l 237 869 l 235 869 z m 239 889 l 240 886 l 240 890 l 240 895 l 239 889 z "},"q":{"ha":435,"x_min":1,"x_max":416,"o":"m 300 1112 l 313 1112 l 319 1105 l 328 1050 l 335 1075 l 339 1086 l 351 1074 l 354 1059 l 366 1060 l 371 1054 l 378 1015 l 385 1040 l 390 1035 l 397 1023 l 401 930 l 410 1015 l 416 1008 l 412 974 l 412 946 l 416 922 l 416 893 l 410 850 l 416 836 l 416 778 l 412 721 l 416 721 l 416 692 l 412 660 l 404 640 l 416 606 l 416 549 l 403 534 l 395 579 l 395 526 l 389 522 l 382 525 l 380 513 l 376 509 l 371 522 l 367 500 l 345 478 l 372 478 l 378 441 l 380 478 l 395 478 l 399 461 l 403 478 l 412 478 l 410 471 l 416 472 l 416 450 l 412 443 l 416 439 l 416 433 l 408 425 l 408 419 l 416 416 l 416 390 l 399 404 l 390 393 l 359 390 l 340 390 l 323 416 l 318 392 l 286 408 l 265 390 l 245 390 l 225 403 l 201 390 l 189 416 l 171 390 l 114 390 l 107 397 l 103 443 l 93 411 l 78 425 l 78 447 l 64 447 l 64 461 l 50 453 l 29 472 l 24 539 l 16 486 l 1 500 l 1 532 l 22 920 l 1 595 l 1 720 l 8 696 l 1 782 l 1 875 l 24 549 l 1 937 l 1 1000 l 8 1007 l 18 1007 l 22 1021 l 36 1035 l 47 1021 l 53 1036 l 57 1055 l 64 1063 l 72 1064 l 78 1076 l 93 1092 l 98 1074 l 107 1105 l 114 1112 l 139 1112 l 161 1107 l 164 1086 l 176 1112 l 201 1112 l 214 1097 l 225 1108 l 237 1112 l 248 1107 l 262 1112 l 282 1107 l 288 1088 l 300 1112 z m 245 525 l 250 525 l 250 553 l 268 444 l 249 589 l 253 627 l 253 654 l 250 694 l 250 722 l 258 916 l 250 779 l 250 864 l 267 757 l 250 921 l 250 949 l 253 970 l 245 977 l 236 977 l 229 1010 l 222 977 l 218 977 l 211 986 l 204 981 l 200 1002 l 196 977 l 178 977 l 161 660 l 178 921 l 178 836 l 174 810 l 178 779 l 178 751 l 163 916 l 178 694 l 178 637 l 174 604 l 178 582 l 178 553 l 172 530 l 168 519 l 180 526 l 192 525 l 196 525 l 199 479 l 204 525 l 210 511 l 214 525 l 218 525 l 227 507 l 228 521 l 232 525 l 236 525 l 239 509 l 245 525 z "},"r":{"ha":419,"x_min":-4,"x_max":403,"o":"m 403 1008 l 396 1015 l 387 978 l 382 987 l 382 1022 l 368 1036 l 366 1011 l 361 1042 l 343 1060 l 336 1067 l 321 1078 l 322 1050 l 314 1086 l 306 1092 l 298 1099 l 297 1092 l 283 1111 l 265 1111 l 248 1111 l 228 1108 l 211 1111 l 193 1111 l 175 1111 l 158 1111 l 127 1105 l 122 1111 l 104 1111 l 86 1111 l 74 1108 l 50 1111 l 32 1111 l 21 1109 l -4 1111 l -4 1067 l 3 794 l 21 1092 l 4 755 l 12 452 l 3 737 l -4 570 l -4 525 l -4 479 l -4 435 l -4 389 l 5 389 l 18 399 l 28 389 l 37 389 l 49 389 l 58 389 l 69 393 l 74 406 l 90 389 l 102 389 l 111 389 l 122 389 l 142 389 l 147 408 l 154 389 l 164 389 l 164 408 l 164 427 l 164 444 l 160 460 l 164 481 l 164 500 l 164 518 l 158 536 l 164 554 l 164 572 l 164 591 l 160 610 l 164 628 l 164 646 l 164 665 l 164 684 l 170 684 l 174 684 l 178 684 l 182 684 l 196 703 l 200 684 l 196 684 l 200 684 l 204 684 l 211 693 l 210 729 l 218 684 l 222 684 l 228 684 l 241 686 l 236 684 l 236 665 l 236 646 l 240 627 l 236 610 l 236 591 l 236 572 l 236 554 l 236 536 l 236 518 l 244 538 l 236 481 l 236 463 l 236 444 l 236 427 l 236 408 l 236 389 l 248 389 l 258 450 l 257 392 l 271 400 l 277 393 l 293 393 l 306 400 l 317 395 l 330 389 l 332 395 l 345 406 l 361 389 l 372 389 l 382 389 l 393 399 l 403 389 l 403 408 l 403 427 l 397 443 l 403 463 l 403 481 l 403 500 l 403 518 l 395 536 l 396 551 l 403 572 l 403 591 l 403 610 l 403 628 l 403 646 l 403 665 l 403 684 l 397 688 l 392 692 l 386 696 l 385 672 l 385 693 l 371 710 l 366 714 l 359 718 l 354 722 l 349 728 l 350 703 l 342 714 l 332 741 l 326 745 l 321 749 l 315 754 l 321 758 l 326 761 l 332 765 l 338 770 l 343 774 l 349 778 l 354 782 l 354 796 l 366 789 l 359 807 l 366 811 l 380 802 l 386 806 l 392 810 l 397 812 l 403 817 l 403 829 l 403 840 l 403 852 l 403 865 l 403 876 l 396 888 l 403 900 l 403 913 l 403 925 l 396 932 l 403 949 l 403 960 l 403 972 l 403 985 l 403 996 l 403 1008 z m 250 971 l 236 926 l 236 917 l 241 885 l 236 897 l 236 888 l 236 876 l 236 867 l 236 857 l 236 847 l 236 838 l 236 827 l 248 811 l 231 810 l 228 817 l 222 817 l 218 817 l 212 811 l 210 817 l 210 800 l 200 817 l 196 817 l 192 817 l 184 782 l 178 807 l 174 817 l 170 817 l 164 817 l 164 827 l 164 838 l 164 847 l 155 835 l 164 867 l 164 876 l 164 886 l 154 922 l 164 907 l 164 917 l 164 926 l 164 936 l 153 960 l 164 957 l 164 966 l 164 977 l 170 977 l 180 985 l 178 977 l 182 977 l 187 977 l 192 977 l 192 987 l 200 977 l 204 977 l 210 977 l 212 1003 l 220 985 l 222 977 l 228 977 l 232 977 l 236 977 l 236 966 l 236 957 l 236 947 l 250 971 z m -4 977 l -4 930 l -4 886 l -4 840 l -4 796 l -4 750 l -4 705 l -4 660 l 3 777 l -4 977 z m 4 755 l 3 794 l 3 777 l 3 737 l 4 755 z "},"s":{"ha":427,"x_min":1,"x_max":412,"o":"m 399 890 l 393 896 l 393 886 l 374 886 l 364 896 l 358 922 l 353 890 l 334 886 l 314 886 l 310 895 l 293 886 l 289 900 l 265 888 l 261 940 l 254 886 l 243 886 l 243 922 l 249 928 l 249 957 l 243 964 l 243 982 l 237 989 l 235 982 l 228 982 l 222 991 l 218 991 l 210 986 l 205 991 l 197 991 l 195 982 l 178 982 l 179 972 l 161 895 l 179 954 l 179 945 l 164 879 l 164 832 l 179 916 l 179 860 l 161 956 l 179 840 l 179 831 l 186 831 l 191 768 l 200 831 l 229 831 l 240 822 l 243 831 l 264 831 l 272 823 l 278 829 l 292 829 l 298 822 l 306 785 l 314 808 l 329 794 l 334 782 l 345 781 l 351 774 l 361 704 l 367 760 l 382 746 l 389 739 l 397 707 l 399 724 l 412 718 l 412 704 l 399 539 l 412 675 l 412 534 l 401 707 l 412 507 l 412 493 l 406 486 l 397 496 l 393 473 l 386 467 l 379 465 l 372 458 l 367 447 l 359 440 l 351 440 l 347 443 l 346 460 l 340 428 l 328 408 l 315 415 l 314 396 l 307 389 l 285 390 l 286 400 l 271 389 l 260 389 l 233 392 l 229 415 l 224 389 l 211 389 l 199 397 l 192 393 l 175 389 l 150 389 l 140 393 l 127 393 l 114 389 l 100 403 l 94 441 l 90 414 l 79 424 l 65 437 l 58 504 l 57 449 l 43 460 l 41 471 l 35 478 l 22 481 l 16 518 l 12 492 l 1 501 l 1 525 l 7 525 l 7 533 l 5 536 l 5 559 l 7 557 l 7 581 l 1 597 l 1 629 l 12 629 l 22 625 l 35 629 l 46 615 l 57 629 l 79 629 l 100 628 l 104 603 l 113 629 l 123 629 l 132 623 l 147 627 l 155 615 l 167 629 l 178 629 l 178 624 l 172 589 l 178 599 l 178 575 l 147 439 l 178 550 l 178 533 l 191 533 l 196 485 l 199 533 l 211 533 l 216 517 l 220 533 l 228 533 l 231 500 l 235 533 l 243 533 l 243 542 l 249 640 l 243 559 l 243 633 l 264 546 l 243 668 l 243 677 l 233 681 l 227 705 l 222 682 l 214 677 l 199 677 l 192 684 l 180 679 l 174 686 l 170 677 l 139 677 l 132 685 l 123 677 l 117 685 l 113 720 l 107 694 l 86 715 l 87 726 l 77 728 l 65 762 l 58 742 l 40 761 l 32 782 l 25 777 l 1 799 l 1 838 l 3 840 l 3 852 l 1 876 l 1 954 l 16 840 l 1 979 l 1 1006 l 8 1013 l 20 1013 l 21 1025 l 33 1039 l 41 1039 l 49 983 l 54 1059 l 79 1084 l 86 1051 l 93 1097 l 106 1109 l 118 1109 l 126 1105 l 142 1109 l 154 1109 l 167 1105 l 180 1054 l 176 1105 l 203 1109 l 214 1109 l 228 1101 l 239 1109 l 253 1111 l 267 1093 l 272 1078 l 288 1109 l 298 1109 l 306 1104 l 313 1039 l 317 1078 l 332 1080 l 345 1068 l 353 1028 l 358 1055 l 383 1032 l 386 1004 l 397 1021 l 404 1014 l 404 999 l 395 925 l 404 982 l 404 935 l 393 989 l 404 918 l 404 903 l 399 890 z "},"t":{"ha":378,"x_min":3,"x_max":359,"o":"m 3 1059 l 3 1048 l 3 1040 l 3 1032 l 3 1022 l 8 1034 l 3 1059 z m 359 1111 l 338 1111 l 315 1111 l 313 1082 l 296 1092 l 289 1092 l 279 1112 l 236 1111 l 193 1114 l 186 1079 l 182 1112 l 114 1111 l 72 1112 l 64 1100 l 52 1093 l 43 1116 l 3 1111 l 3 1103 l 3 1093 l 3 1084 l 3 1075 l 9 1036 l 9 1038 l 18 1080 l 12 1042 l 24 1065 l 11 1028 l 18 982 l 9 1025 l 9 1023 l 3 978 l 3 970 l 8 970 l 14 970 l 20 966 l 26 970 l 32 970 l 37 970 l 45 975 l 50 970 l 56 970 l 61 970 l 62 977 l 72 974 l 79 970 l 85 970 l 92 970 l 97 970 l 97 933 l 97 897 l 98 860 l 97 825 l 97 789 l 110 624 l 119 745 l 111 608 l 118 519 l 110 595 l 107 539 l 111 481 l 106 521 l 97 393 l 117 393 l 115 416 l 127 393 l 139 393 l 150 393 l 160 393 l 171 399 l 182 403 l 186 396 l 201 393 l 212 393 l 233 393 l 244 414 l 248 399 l 254 393 l 265 393 l 265 429 l 262 468 l 265 500 l 265 536 l 258 654 l 254 550 l 257 661 l 250 786 l 258 689 l 258 724 l 253 800 l 260 753 l 265 933 l 262 972 l 271 970 l 277 970 l 289 970 l 292 975 l 298 977 l 301 993 l 307 970 l 313 970 l 318 970 l 323 970 l 330 970 l 335 975 l 342 970 l 347 970 l 354 970 l 354 977 l 359 978 l 359 987 l 359 996 l 359 1004 l 355 1015 l 354 1006 l 355 1017 l 353 1028 l 357 1025 l 359 1048 l 359 1059 l 359 1067 l 359 1075 l 355 1086 l 359 1093 l 359 1103 l 359 1111 z m 231 518 l 231 518 q 230 526 231 522 q 227 530 229 530 l 227 530 l 227 486 q 228 484 227 485 q 228 481 228 483 l 228 481 q 227 449 228 460 l 227 449 q 226 441 227 444 q 225 433 226 437 l 225 433 q 227 431 225 431 l 227 431 l 227 411 l 225 416 l 225 433 q 220 476 220 454 l 220 476 q 227 497 221 484 l 227 497 q 226 505 227 503 q 225 511 226 508 l 225 511 q 224 579 224 533 l 224 579 q 227 582 227 579 l 227 582 l 227 566 q 231 518 231 550 z m 258 682 l 265 608 l 265 644 l 260 713 l 258 682 z m 3 1004 l 3 996 l 5 1014 l 3 1004 z m 97 572 l 97 536 l 97 500 l 97 454 l 103 536 l 97 572 z m 109 607 l 97 717 l 98 669 l 97 644 l 104 558 l 109 607 z m 9 1023 l 9 1025 l 11 1028 l 9 1031 l 12 1042 l 9 1038 l 9 1035 l 9 1036 l 8 1034 l 8 1029 l 5 1014 l 9 1023 z m 107 539 l 104 558 l 103 536 l 106 521 l 107 539 z m 110 595 l 111 608 l 110 624 l 109 607 l 110 595 z m 359 1022 l 359 1032 l 358 1023 l 359 1022 z m 258 724 l 260 713 l 261 746 l 260 753 l 258 724 z m 258 689 l 257 661 l 258 654 l 258 682 l 258 689 z m 355 1017 l 355 1015 l 358 1023 l 357 1025 l 355 1017 z m 265 717 l 265 753 l 265 789 l 265 825 l 265 861 l 261 746 l 265 717 z "},"u":{"ha":439,"x_min":-1,"x_max":421,"o":"m 421 726 l 421 764 l 419 803 l 421 840 l 421 917 l 414 799 l 421 726 z m 245 999 l 245 961 l 249 914 l 245 889 l 245 851 l 252 925 l 245 999 z m 174 704 l 174 778 l 171 823 l 174 851 l 174 961 l 164 825 l 174 704 z m -1 956 l -1 803 l 5 854 l -1 956 z m 253 932 l 253 946 l 252 925 l 253 909 l 253 932 z m 8 848 l 8 867 l 5 854 l 7 832 l 8 848 z m 412 787 l 412 774 l 414 799 l 412 812 l 412 787 z m 410 1108 l 400 1101 l 387 1108 l 378 1075 l 371 1096 l 355 1108 l 334 1108 l 323 1101 l 311 1108 l 300 1108 l 290 1101 l 279 1101 l 268 1108 l 245 1108 l 245 1072 l 253 946 l 257 1010 l 253 932 l 261 793 l 253 909 l 245 778 l 245 668 l 250 643 l 252 587 l 245 558 l 245 521 l 241 521 l 237 489 l 229 504 l 222 513 l 212 513 l 205 521 l 187 521 l 184 504 l 178 521 l 174 521 l 174 558 l 151 404 l 174 632 l 163 804 l 146 547 l 161 827 l 151 999 l 163 846 l 174 1035 l 175 1093 l 167 1101 l 163 1108 l 151 1108 l 142 1097 l 131 1108 l 119 1108 l 107 1099 l 94 1089 l 94 1108 l 64 1108 l 56 1103 l 45 1103 l 32 1108 l 24 1107 l 14 1107 l -1 1108 l -1 1032 l 8 867 l 14 907 l 8 848 l 17 694 l 7 832 l -1 726 l -1 650 l 4 597 l 4 558 l -1 534 l -1 497 l 14 484 l 26 484 l 29 469 l 33 472 l 43 456 l 58 441 l 62 456 l 72 436 l 81 421 l 87 414 l 103 403 l 106 461 l 111 393 l 118 386 l 178 386 l 182 401 l 193 386 l 218 386 l 232 393 l 243 386 l 262 387 l 268 412 l 281 386 l 318 386 l 323 393 l 330 484 l 338 407 l 357 428 l 361 443 l 370 450 l 370 465 l 382 456 l 396 469 l 401 550 l 408 484 l 421 497 l 421 650 l 412 774 l 406 644 l 412 787 l 404 909 l 412 812 l 421 994 l 418 1026 l 421 1071 l 421 1108 l 410 1108 z m 94 1044 l 94 1044 q 90 1043 93 1044 q 86 1042 87 1042 l 86 1042 q 81 1044 82 1042 l 81 1044 l 85 1044 l 85 1063 q 87 1064 86 1063 q 90 1064 89 1064 l 90 1064 l 90 1069 q 94 1069 92 1069 q 97 1068 95 1069 l 97 1068 q 94 1044 97 1046 z m 161 827 l 163 804 l 164 825 l 163 846 l 161 827 z "},"v":{"ha":463,"x_min":1,"x_max":449,"o":"m 449 1108 l 416 1108 l 404 1079 l 403 1107 l 383 1108 l 375 1101 l 364 1101 l 350 1108 l 339 1108 l 326 1093 l 318 1108 l 307 1096 l 294 1088 l 285 1108 l 273 1108 l 268 1040 l 265 789 l 264 971 l 232 559 l 231 559 l 229 559 l 228 559 l 227 559 l 225 559 l 224 559 l 222 559 l 221 559 l 220 559 l 218 559 l 203 765 l 197 589 l 197 835 l 176 1108 l 165 1108 l 153 1103 l 143 1108 l 132 1108 l 123 1063 l 121 1103 l 100 1108 l 78 1108 l 65 1101 l 56 1108 l 45 1108 l 32 1084 l 24 1108 l 1 1108 l 7 1063 l 21 1008 l 26 964 l 25 928 l 81 521 l 66 791 l 92 431 l 98 386 l 117 396 l 131 386 l 167 387 l 167 431 l 178 399 l 187 386 l 215 392 l 225 386 l 260 392 l 268 419 l 273 386 l 298 387 l 323 387 l 323 460 l 338 386 l 353 386 l 371 521 l 399 943 l 383 611 l 449 1108 z "},"w":{"ha":600,"x_min":1,"x_max":585,"o":"m 32 928 l 54 793 l 64 746 l 69 703 l 85 612 l 66 758 l 32 928 z m 349 868 l 336 978 l 336 918 l 349 868 z m 319 533 l 318 543 l 318 532 l 321 522 l 319 533 z m 334 916 l 336 904 l 336 918 l 334 929 l 334 916 z m 536 890 l 532 873 l 528 842 l 533 861 l 536 890 z m 468 607 l 532 873 l 546 983 l 536 890 l 576 1064 l 585 1108 l 564 1108 l 554 1097 l 543 1108 l 532 1108 l 525 1103 l 514 1092 l 501 1108 l 490 1108 l 481 1100 l 471 1100 l 458 1108 l 449 1108 l 440 1074 l 431 1104 l 416 1108 l 411 1065 l 408 879 l 406 1021 l 368 758 l 367 758 l 366 758 l 364 758 l 363 758 l 361 758 l 354 825 l 336 904 l 336 799 l 334 916 l 313 1011 l 334 929 l 330 1021 l 321 1108 l 306 1108 l 304 1086 l 297 1108 l 293 1108 l 293 1096 l 285 1108 l 278 1108 l 272 1008 l 269 1108 l 257 1108 l 248 1021 l 252 991 l 249 970 l 240 956 l 218 758 l 216 758 l 215 758 l 214 758 l 212 758 l 211 758 l 210 758 l 208 758 l 182 956 l 184 850 l 182 872 l 174 1021 l 164 1086 l 164 1100 l 154 1100 l 146 1072 l 135 1100 l 122 1108 l 111 1108 l 110 1103 l 92 1108 l 82 1108 l 75 1096 l 64 1079 l 65 1107 l 41 1108 l 32 1108 l 29 1101 l 20 1101 l 1 1108 l 17 1018 l 64 781 l 47 924 l 68 760 l 122 488 l 71 734 l 98 522 l 121 386 l 135 401 l 138 386 l 161 386 l 167 399 l 175 399 l 184 386 l 210 386 l 220 397 l 227 425 l 233 386 l 249 386 l 257 461 l 258 510 l 253 562 l 264 518 l 269 575 l 265 682 l 273 612 l 282 688 l 283 688 l 285 688 l 286 688 l 288 688 l 289 688 l 290 688 l 292 688 l 293 688 l 294 688 l 296 688 l 297 688 l 306 612 l 318 543 l 317 631 l 319 533 l 334 464 l 321 522 l 323 443 l 329 386 l 338 386 l 346 441 l 353 386 l 370 386 l 382 396 l 393 386 l 401 386 l 408 396 l 419 407 l 425 386 l 433 386 l 437 401 l 449 386 l 457 386 l 465 432 l 468 489 l 481 522 l 505 657 l 528 842 l 468 607 z m 396 701 l 396 701 q 396 650 396 675 q 397 597 397 624 l 397 597 q 400 562 397 574 l 400 562 q 397 570 399 566 q 393 579 396 574 l 393 579 q 392 616 392 591 l 392 616 q 393 652 392 632 q 396 701 395 673 l 396 701 q 397 799 397 733 l 397 799 l 403 810 q 401 777 403 798 q 399 738 400 755 q 396 701 397 720 z m 521 747 l 538 838 l 541 864 l 553 928 l 561 974 l 533 861 l 521 747 z m 310 575 l 319 481 l 318 532 l 310 575 z m 68 760 l 64 781 l 66 758 l 71 734 l 68 760 z "},"x":{"ha":488,"x_min":-9,"x_max":469,"o":"m 469 392 l 415 530 l 411 494 l 397 578 l 387 602 l 380 599 l 370 647 l 361 671 l 353 681 l 350 628 l 334 741 l 325 764 l 375 895 l 393 997 l 393 939 l 461 1114 l 439 1114 l 416 1111 l 410 1076 l 406 1114 l 385 1114 l 372 1103 l 354 1109 l 350 1086 l 340 1114 l 321 1111 l 315 1079 l 307 1114 l 286 1114 l 278 1089 l 275 1007 l 271 1064 l 239 953 l 216 693 l 232 928 l 229 916 l 228 916 l 227 916 l 225 916 l 224 916 l 222 916 l 221 916 l 197 1014 l 193 945 l 191 1039 l 172 1114 l 161 1114 l 154 1068 l 147 1111 l 129 1114 l 119 1104 l 113 1088 l 96 1114 l 74 1114 l 66 1105 l 56 1100 l 41 1114 l -3 1114 l 40 1004 l 49 996 l 52 1029 l 65 939 l 100 851 l 114 823 l 111 909 l 125 786 l 134 764 l 115 717 l 89 550 l 97 671 l -9 392 l 11 392 l 28 400 l 33 392 l 57 397 l 61 411 l 77 393 l 86 393 l 94 446 l 100 392 l 121 392 l 142 393 l 146 411 l 154 392 l 165 392 l 172 415 l 178 492 l 179 439 l 200 510 l 203 616 l 207 533 l 221 581 l 222 581 l 224 581 l 225 581 l 227 581 l 228 581 l 229 581 l 272 450 l 267 541 l 281 427 l 293 392 l 315 392 l 321 404 l 335 393 l 349 392 l 359 400 l 370 392 l 380 392 l 389 408 l 403 392 l 424 393 l 421 439 l 436 392 l 469 392 z "},"y":{"ha":481,"x_min":3,"x_max":467,"o":"m 322 464 l 322 637 l 317 534 l 322 464 z m 155 595 l 154 597 l 154 579 l 154 576 l 155 595 z m 147 637 l 147 464 l 154 579 l 147 637 z m 315 530 l 315 524 l 317 534 l 315 543 l 315 530 z m 467 1108 l 456 1108 l 447 1100 l 433 1108 l 422 1108 l 412 1101 l 401 1086 l 401 1105 l 378 1108 l 335 1108 l 339 1096 l 329 1080 l 317 1096 l 306 1096 l 302 1080 l 286 1076 l 278 1029 l 277 886 l 273 997 l 250 856 l 249 856 l 248 856 l 245 856 l 244 856 l 243 856 l 241 856 l 197 1029 l 203 905 l 191 1061 l 178 1108 l 167 1108 l 153 1103 l 144 1090 l 134 1108 l 113 1108 l 94 1107 l 92 1019 l 79 1108 l 46 1108 l 39 1086 l 29 1101 l 14 1108 l 3 1108 l 47 979 l 66 937 l 77 913 l 75 903 l 102 825 l 92 982 l 110 806 l 129 747 l 147 696 l 147 676 l 154 597 l 157 639 l 155 595 l 172 421 l 154 576 l 147 425 l 147 386 l 158 386 l 168 401 l 180 386 l 201 386 l 215 399 l 224 392 l 235 386 l 257 386 l 277 404 l 281 419 l 288 397 l 300 386 l 322 386 l 322 425 l 315 524 l 310 427 l 315 530 l 307 632 l 315 543 l 322 676 l 322 696 l 358 799 l 376 989 l 370 838 l 385 876 l 395 903 l 400 932 l 408 957 l 421 979 l 431 1006 l 443 1080 l 449 1057 l 467 1108 z m 237 673 l 237 673 q 232 753 237 720 l 232 753 l 232 811 q 229 885 229 836 l 229 885 l 235 878 q 233 848 233 867 q 232 819 233 829 l 232 819 l 232 811 q 237 673 237 719 z "},"z":{"ha":457,"x_min":3,"x_max":441,"o":"m 66 1103 l 66 1111 l 117 1111 l 143 1107 l 149 1011 l 150 1111 l 269 1111 l 300 1105 l 310 1061 l 321 1111 l 338 1111 l 357 1088 l 358 1063 l 370 1071 l 389 1047 l 399 1019 l 406 997 l 408 1023 l 422 1008 l 432 981 l 435 991 l 441 985 l 427 956 l 400 922 l 385 895 l 382 869 l 367 840 l 334 783 l 338 819 l 307 753 l 307 725 l 262 639 l 231 581 l 232 624 l 218 553 l 203 524 l 215 524 l 229 452 l 229 518 l 253 524 l 290 524 l 302 515 l 315 494 l 315 518 l 340 524 l 364 518 l 370 494 l 378 524 l 403 524 l 403 507 l 386 406 l 403 490 l 403 422 l 390 500 l 403 406 l 403 389 l 364 389 l 322 392 l 317 432 l 307 389 l 269 389 l 249 401 l 236 392 l 212 389 l 175 389 l 138 392 l 134 414 l 118 389 l 98 389 l 81 412 l 79 518 l 69 428 l 45 460 l 41 510 l 33 476 l 3 515 l 93 688 l 93 653 l 122 746 l 182 861 l 212 899 l 218 856 l 227 947 l 241 975 l 132 975 l 114 993 l 111 1078 l 98 975 l 66 975 l 66 993 l 75 1095 l 66 1010 l 66 1060 l 83 999 l 66 1076 l 66 1086 l 75 991 l 66 1103 z "},"":{"ha":815,"x_min":null,"x_max":null,"o":""},"":{"ha":443,"x_min":-1,"x_max":416,"o":"m 254 926 l 254 935 l 260 947 l 265 960 l 271 972 l 277 985 l 279 933 l 288 1008 l 293 1021 l 300 1023 l 306 1035 l 310 1057 l 315 1069 l 321 1082 l 328 1039 l 332 1107 l 338 1118 l 343 1131 l 347 1126 l 351 1122 l 355 1120 l 359 1116 l 364 1111 l 368 1107 l 372 1103 l 376 1099 l 380 1095 l 385 1092 l 389 1088 l 392 1083 l 396 1079 l 400 1075 l 404 1071 l 408 1067 l 406 1061 l 401 1054 l 399 1048 l 395 1042 l 389 1057 l 387 1031 l 383 1023 l 380 1018 l 376 1011 l 374 1006 l 371 1051 l 367 993 l 363 986 l 358 981 l 355 974 l 351 968 l 355 968 l 359 968 l 364 968 l 371 935 l 372 968 l 376 968 l 380 968 l 385 968 l 389 968 l 393 968 l 397 968 l 400 886 l 406 968 l 410 968 l 412 968 l 416 968 l 416 957 l 416 946 l 416 933 l 416 922 l 416 911 l 416 900 l 416 889 l 416 878 l 416 838 l 411 879 l 411 825 l 411 814 l 416 793 l 416 782 l 416 770 l 416 758 l 407 758 l 393 765 l 386 836 l 386 762 l 367 758 l 355 758 l 351 762 l 340 762 l 325 758 l 315 758 l 301 771 l 288 762 l 285 758 l 273 766 l 264 758 l 254 758 l 254 768 l 254 778 l 254 786 l 269 926 l 254 806 l 254 814 l 254 823 l 254 833 l 254 871 l 254 879 l 254 889 l 265 794 l 254 907 l 254 917 l 254 926 z m -1 926 l -1 935 l 4 947 l 9 960 l 16 972 l 21 985 l 24 933 l 32 1008 l 37 1021 l 45 1023 l 50 1035 l 54 1057 l 60 1069 l 65 1082 l 71 1039 l 77 1107 l 82 1118 l 87 1131 l 92 1126 l 96 1122 l 100 1120 l 104 1116 l 109 1111 l 113 1107 l 117 1103 l 121 1099 l 125 1095 l 127 1092 l 132 1088 l 136 1083 l 140 1079 l 144 1075 l 149 1071 l 153 1067 l 150 1061 l 146 1054 l 142 1048 l 139 1042 l 134 1057 l 132 1031 l 127 1023 l 125 1018 l 121 1011 l 118 1006 l 115 1051 l 110 993 l 107 986 l 103 981 l 100 974 l 96 968 l 100 968 l 104 968 l 109 968 l 115 935 l 117 968 l 121 968 l 125 968 l 129 968 l 134 968 l 138 968 l 142 968 l 144 886 l 150 968 l 153 968 l 157 968 l 161 968 l 161 957 l 161 946 l 161 933 l 161 922 l 161 911 l 161 900 l 161 889 l 161 878 l 161 838 l 155 879 l 155 825 l 155 814 l 161 793 l 161 782 l 161 770 l 161 758 l 151 758 l 138 765 l 131 836 l 131 762 l 111 758 l 100 758 l 96 762 l 85 762 l 69 758 l 60 758 l 46 771 l 32 762 l 29 758 l 18 766 l 8 758 l -1 758 l -1 768 l -1 778 l -1 786 l 12 926 l -1 806 l -1 814 l -1 823 l -1 833 l -1 871 l -1 879 l -1 889 l 9 794 l -1 907 l -1 917 l -1 926 z "},"":{"ha":443,"x_min":-1,"x_max":416,"o":"m 161 975 l 161 965 l 155 953 l 150 940 l 144 929 l 139 917 l 138 966 l 127 892 l 122 879 l 115 878 l 110 865 l 106 843 l 100 831 l 94 818 l 89 863 l 83 794 l 78 782 l 72 770 l 68 774 l 64 778 l 60 782 l 56 786 l 52 790 l 49 793 l 45 798 l 40 802 l 36 806 l 32 810 l 28 814 l 24 818 l 20 822 l 16 825 l 11 829 l 7 833 l 11 840 l 14 846 l 18 852 l 21 859 l 26 844 l 28 871 l 32 876 l 36 884 l 39 889 l 43 896 l 45 848 l 50 908 l 53 914 l 57 921 l 60 926 l 64 933 l 60 933 l 56 933 l 52 933 l 45 965 l 43 933 l 39 933 l 35 933 l 31 933 l 26 933 l 24 933 l 20 933 l 16 1015 l 11 933 l 7 933 l 3 933 l -1 933 l -1 945 l -1 956 l -1 966 l -1 978 l -1 989 l -1 1002 l -1 1013 l -1 1023 l -1 1063 l 4 1021 l 4 1075 l 4 1086 l -1 1108 l -1 1120 l -1 1131 l -1 1141 l 8 1141 l 22 1136 l 31 1064 l 31 1137 l 50 1141 l 60 1141 l 65 1137 l 75 1137 l 90 1141 l 100 1141 l 115 1129 l 127 1137 l 131 1141 l 142 1135 l 151 1141 l 161 1141 l 161 1132 l 161 1124 l 161 1114 l 147 974 l 161 1096 l 161 1086 l 161 1076 l 161 1068 l 161 1031 l 161 1021 l 161 1013 l 150 1107 l 161 993 l 161 983 l 161 975 z m 416 975 l 416 965 l 411 953 l 406 940 l 400 929 l 395 917 l 393 966 l 383 892 l 378 879 l 371 878 l 366 865 l 361 843 l 355 831 l 350 818 l 345 863 l 339 794 l 334 782 l 328 770 l 323 774 l 319 778 l 315 782 l 311 786 l 309 790 l 304 793 l 300 798 l 296 802 l 292 806 l 288 810 l 283 814 l 279 818 l 275 822 l 271 825 l 267 829 l 262 833 l 267 840 l 269 846 l 273 852 l 277 859 l 282 844 l 283 871 l 288 876 l 292 884 l 294 889 l 298 896 l 300 848 l 306 908 l 309 914 l 313 921 l 317 926 l 319 933 l 315 933 l 311 933 l 307 933 l 300 965 l 298 933 l 294 933 l 290 933 l 288 933 l 283 933 l 279 933 l 275 933 l 271 1015 l 267 933 l 262 933 l 258 933 l 254 933 l 254 945 l 254 956 l 254 966 l 254 978 l 254 989 l 254 1002 l 254 1013 l 254 1023 l 254 1063 l 260 1021 l 260 1075 l 260 1086 l 254 1108 l 254 1120 l 254 1131 l 254 1141 l 264 1141 l 278 1136 l 286 1064 l 286 1137 l 306 1141 l 315 1141 l 321 1137 l 330 1137 l 346 1141 l 355 1141 l 371 1129 l 383 1137 l 386 1141 l 397 1135 l 407 1141 l 416 1141 l 416 1132 l 416 1124 l 416 1114 l 403 974 l 416 1096 l 416 1086 l 416 1076 l 416 1068 l 416 1031 l 416 1021 l 416 1013 l 407 1107 l 416 993 l 416 983 l 416 975 z "},"":{"ha":311,"x_min":-17,"x_max":268,"o":"m 8 743 l 8 762 l 22 762 l 37 762 l 54 747 l 66 739 l 75 798 l 89 798 l 106 793 l 119 793 l 132 798 l 146 798 l 170 782 l 172 693 l 189 798 l 210 762 l 224 762 l 229 755 l 237 743 l 237 724 l 237 704 l 262 551 l 268 633 l 268 614 l 268 595 l 268 575 l 268 555 l 237 550 l 229 546 l 237 511 l 237 492 l 237 472 l 237 453 l 224 453 l 207 479 l 195 467 l 179 425 l 164 425 l 149 461 l 136 425 l 121 425 l 107 425 l 94 496 l 85 576 l 74 456 l 50 425 l 37 453 l 22 453 l 14 490 l 8 464 l 8 492 l -11 492 l -11 511 l 8 550 l -17 570 l 25 721 l -17 608 l -17 628 l -17 646 l -17 665 l -17 685 l 8 503 l 8 724 l 8 743 z "},"":{"ha":823,"x_min":7,"x_max":771,"o":"m 612 200 l 612 214 l 623 214 l 632 214 l 643 203 l 653 197 l 661 214 l 671 214 l 684 210 l 693 210 l 701 214 l 711 214 l 726 203 l 730 140 l 741 214 l 750 214 l 761 214 l 764 208 l 771 200 l 771 186 l 771 174 l 766 77 l 771 147 l 771 134 l 771 119 l 771 107 l 771 93 l 771 81 l 771 66 l 764 64 l 771 40 l 771 26 l 771 14 l 771 0 l 761 0 l 749 18 l 741 9 l 730 0 l 721 0 l 708 5 l 701 0 l 692 0 l 682 0 l 671 29 l 664 85 l 657 1 l 642 0 l 632 0 l 623 0 l 616 25 l 612 7 l 612 26 l 612 40 l 612 53 l 612 66 l 612 81 l 624 184 l 612 107 l 612 119 l 612 134 l 612 147 l 612 160 l 625 47 l 612 186 l 612 200 z m 313 200 l 313 214 l 322 214 l 332 214 l 343 203 l 353 197 l 361 214 l 371 214 l 383 210 l 393 210 l 401 214 l 411 214 l 428 203 l 431 140 l 440 214 l 450 214 l 461 214 l 464 208 l 471 200 l 471 186 l 471 174 l 467 77 l 471 147 l 471 134 l 471 119 l 471 107 l 471 93 l 471 81 l 471 66 l 464 64 l 471 40 l 471 26 l 471 14 l 471 0 l 461 0 l 449 18 l 440 9 l 431 0 l 421 0 l 408 5 l 401 0 l 392 0 l 382 0 l 371 29 l 364 85 l 357 1 l 342 0 l 332 0 l 322 0 l 317 25 l 313 7 l 313 26 l 313 40 l 313 53 l 313 66 l 313 81 l 323 184 l 313 107 l 313 119 l 313 134 l 313 147 l 313 160 l 325 47 l 313 186 l 313 200 z m 7 200 l 7 214 l 17 214 l 26 214 l 39 203 l 47 197 l 56 214 l 66 214 l 78 210 l 87 210 l 96 214 l 106 214 l 122 203 l 126 140 l 136 214 l 146 214 l 155 214 l 160 208 l 165 200 l 165 186 l 165 174 l 161 77 l 165 147 l 165 134 l 165 119 l 165 107 l 165 93 l 165 81 l 165 66 l 160 64 l 165 40 l 165 26 l 165 14 l 165 0 l 155 0 l 143 18 l 135 9 l 125 0 l 115 0 l 103 5 l 96 0 l 86 0 l 77 0 l 65 29 l 60 85 l 52 1 l 36 0 l 26 0 l 17 0 l 11 25 l 7 7 l 7 26 l 7 40 l 7 53 l 7 66 l 7 81 l 18 184 l 7 107 l 7 119 l 7 134 l 7 147 l 7 160 l 20 47 l 7 186 l 7 200 z "}}}
